SplineFontDB: 3.0
FontName: StickNoBills
FullName: Stick No Bills
FamilyName: Stick No Bills
OS2StyleName: "regular"
Weight: Regular
Copyright: Copyright (c) 2013 STICK NO BILLS, Copyright (c) 2015 mooniak\n
UComments: "2015-2-15: Created with FontForge (http://fontforge.org) The  Free Font Editor"
Version: 1.0
ItalicAngle: 0
UnderlinePosition: -102
UnderlineWidth: 51
Ascent: 819
Descent: 205
InvalidEm: 0
UFOAscent: 819
UFODescent: -205
LayerCount: 2
Layer: 0 0 "Back" 1
Layer: 1 0 "Fore" 0
PreferredKerning: 4
FSType: 0
OS2Version: 0
OS2_WeightWidthSlopeOnly: 0
OS2_UseTypoMetrics: 0
CreationTime: 1429518268
ModificationTime: 1429819131
PfmFamily: 16
TTFWeight: 400
TTFWidth: 5
LineGap: 94
VLineGap: 0
OS2TypoAscent: 819
OS2TypoAOffset: 0
OS2TypoDescent: -205
OS2TypoDOffset: 0
OS2TypoLinegap: 94
OS2WinAscent: 918
OS2WinAOffset: 0
OS2WinDescent: 205
OS2WinDOffset: 0
HheadAscent: 918
HheadAOffset: 0
HheadDescent: -205
HheadDOffset: 0
OS2CapHeight: 0
OS2XHeight: 0
OS2Vendor: 'PfEd'
OS2UnicodeRanges: 00000002.00000000.00000000.00000000
Lookup: 258 0 0 "'kern' Horizontal Kerning lookup 0" { "'kern' Horizontal Kerning lookup 0-1" [153,15,0] } ['kern' ('DFLT' <'dflt' > 'hani' <'dflt' > 'latn' <'dflt' > ) ]
MarkAttachClasses: 1
DEI: 91125
KernClass2: 7 7 "'kern' Horizontal Kerning lookup 0-1"
 1 A
 7 T Y P F
 9 f r v w y
 1 L
 3 W V
 0 
 7 W V T Y
 12 period comma
 17 a e s o q d c g u
 1 A
 5 w v t
 15 semicolon colon
 0 {} 0 {} 0 {} 0 {} 0 {} 0 {} 0 {} 0 {} -70 {} 61 {} -23 {} 0 {} -68 {} 45 {} 0 {} 16 {} -80 {} -30 {} -100 {} -23 {} -63 {} 0 {} 0 {} -41 {} 0 {} 0 {} 0 {} 0 {} 0 {} -82 {} 0 {} 84 {} 0 {} -77 {} 62 {} 0 {} 0 {} -109 {} -55 {} -130 {} 0 {} -75 {} 0 {} 0 {} 0 {} 0 {} 0 {} 0 {} 0 {}

StartChar: A
Encoding: 33 65 0
GlifName: A_
Width: 516
VWidth: 0
GlyphClass: 2
Flags: W
HStem: 0 21<26 164 26 26 353 353 353 490> 0 21<26 164 26 26 353 353 353 490> 679 20<200 339 339 339> 679 20<200 339 339 339>
VStem: 155 15<582 582>
LayerCount: 2
Back
Fore
SplineSet
155 582 m 257x88
 170 582 l 257
 230 302 l 257
 164 0 l 257
 26 0 l 257
 155 582 l 257x88
200 699 m 257xa8
 339 699 l 257
 490 0 l 257
 353 0 l 257
 333 85 l 257
 239 85 l 257
 269 223 l 257
 305 223 l 257
 200 699 l 257xa8
EndSplineSet
Validated: 1
EndChar

StartChar: AE
Encoding: 133 198 1
GlifName: A_E_
Width: 727
VWidth: 0
GlyphClass: 2
Flags: W
HStem: 0 141<478 701 478 701> 277 141<478 607 478 607> 560 140<320 337 320 320 478 478 478 483 483 701>
VStem: 337 141<141 148 148 148 268 277 418 560>
LayerCount: 2
Back
Fore
SplineSet
701 141 m 257
 701 0 l 257
 337 0 l 257
 337 148 l 257
 272 148 l 257
 301 268 l 257
 337 268 l 257
 337 560 l 257
 320 560 l 257
 182 0 l 257
 26 0 l 257
 206 700 l 257
 701 700 l 257
 701 560 l 257
 483 560 l 257
 478 560 l 257
 478 418 l 257
 607 418 l 257
 607 277 l 257
 478 277 l 257
 478 141 l 257
 701 141 l 257
EndSplineSet
Validated: 1
EndChar

StartChar: Aring
Encoding: 132 197 6
GlifName: A_ring
Width: 516
VWidth: 0
GlyphClass: 2
Flags: W
HStem: 0 21<26 164 26 26 353 490 353 353> 669 64 679 20<339 339 339 339> 797 64<260 278>
VStem: 155 15<582 582> 173 64<756 774 756 791.5> 301 64<756 774>
LayerCount: 2
Back
Fore
SplineSet
173 765 m 256xbe
 173 818 216 861 269 861 c 256
 322 861 365 818 365 765 c 256
 365 739 355 716 339 699 c 257
 339 699 l 257
 490 0 l 257
 353 0 l 257
 333 85 l 257
 239 85 l 257
 269 223 l 257
 305 223 l 257
 200 698 l 257
 183 715 173 739 173 765 c 256xbe
237 765 m 256
 237 747 251 733 269 733 c 256xde
 287 733 301 747 301 765 c 256
 301 783 287 797 269 797 c 256
 251 797 237 783 237 765 c 256
155 582 m 257
 170 582 l 257
 230 302 l 257
 164 0 l 257
 26 0 l 257
 155 582 l 257
EndSplineSet
Validated: 5
EndChar

StartChar: B
Encoding: 34 66 8
GlifName: B_
Width: 484
VWidth: 0
GlyphClass: 2
Flags: W
HStem: 0 122<26 264.5 221 264.5> 289 122<221 251 221 266> 577 123<26 221>
VStem: 26 141<0 700 0 700> 324 134<197 201 197 216>
LayerCount: 2
Back
Fore
SplineSet
221 122 m 257
 308 122 324 179 324 205 c 256
 324 227 311 289 221 289 c 257
 221 411 l 257
 281 411 322 446 322 497 c 256
 322 547 280 576 221 577 c 257
 221 700 l 257
 229 701 237 701 245 701 c 256
 397 701 454 574 454 514 c 258
 454 513 l 258
 453 421 420 378 385 352 c 257
 423 322 458 285 458 201 c 256
 458 199 458 198 458 197 c 256
 457 86 366 -2 249 -2 c 256
 240 -2 230 -1 221 0 c 257
 221 122 l 257
26 700 m 257
 167 700 l 257
 167 0 l 257
 26 0 l 257
 26 700 l 257
EndSplineSet
Validated: 1
EndChar

StartChar: C
Encoding: 35 67 9
GlifName: C_
Width: 494
VWidth: 0
GlyphClass: 2
Flags: W
HStem: 685 20<157.5 229 283 329>
VStem: 32 141<181 518> 330 138<129 215 129 215>
LayerCount: 2
Back
Fore
SplineSet
283 564 m 257
 283 705 l 257
 375 705 468 612 468 516 c 257
 330 480 l 257
 330 495 l 258
 330 509 330 520 325 532 c 256
 315 555 283 564 283 564 c 257
283 136 m 257
 283 136 315 143 325 166 c 256
 330 178 330 189 330 203 c 258
 330 215 l 257
 468 182 l 257
 468 76 375 -5 283 -5 c 257
 283 136 l 257
229 705 m 257
 229 564 l 257
 183 563 173 523 173 518 c 257
 173 181 l 257
 173 176 183 136 229 136 c 257
 229 -5 l 257
 86 -5 32 121 32 181 c 257
 32 518 l 257
 32 578 86 705 229 705 c 257
EndSplineSet
Validated: 1
EndChar

StartChar: D
Encoding: 36 68 11
GlifName: D_
Width: 452
VWidth: 0
GlyphClass: 2
Flags: W
HStem: 0 21<32 32 32 173 227 257> 0 21<32 32 32 173 227 257> 680 20<32 173 173 173 227 298.5>
VStem: 32 141<0 700 0 700> 283 141<197 503>
LayerCount: 2
Back
Fore
SplineSet
227 0 m 257xb8
 227 141 l 257
 233 141 282 149 283 197 c 258
 283 503 l 257
 283 508 275 558 227 559 c 257
 227 700 l 257
 370 700 424 566 424 503 c 257
 424 197 l 257
 424 50 287 0 227 0 c 257xb8
32 0 m 257
 32 700 l 257
 173 700 l 257
 173 0 l 257
 32 0 l 257
EndSplineSet
Validated: 1
EndChar

StartChar: E
Encoding: 37 69 12
GlifName: E_
Width: 422
VWidth: 0
GlyphClass: 2
Flags: W
HStem: 0 141<173 396 173 396> 277 141<173 302 173 302> 560 140<173 396 173 173>
VStem: 32 364<0 141 560 700> 32 141<141 277 418 560>
LayerCount: 2
Back
Fore
SplineSet
396 141 m 257xf0
 396 0 l 257
 32 0 l 257
 32 700 l 257
 396 700 l 257
 396 560 l 257xf0
 173 560 l 257
 173 418 l 257
 302 418 l 257
 302 277 l 257
 173 277 l 257
 173 141 l 257xe8
 396 141 l 257xf0
EndSplineSet
Validated: 1
EndChar

StartChar: EURO
Encoding: 191 8364 13
GlifName: E_U_R_O_
Width: 567
VWidth: 0
GlyphClass: 2
Flags: W
HStem: 258 59<50 99 50 99 236 408> 376 60<236 408> 558 140<278 278 278 338>
VStem: 99 137<182 202 202 258 178.5 258 317 376 436 488> 381 136<182 186 171 199 514 518>
LayerCount: 2
Back
Fore
SplineSet
278 698 m 257
 278 558 l 257
 239 543 236 532 236 488 c 258
 236 436 l 257
 408 436 l 257
 408 376 l 257
 236 376 l 257
 236 317 l 257
 408 317 l 257
 408 258 l 257
 236 258 l 257
 236 202 l 258
 236 155 254 154 278 141 c 257
 278 2 l 257
 197 8 168 45 134 90 c 256
 113 118 101 149 99 182 c 258
 99 258 l 257
 50 258 l 257
 50 317 l 257
 99 317 l 257
 99 377 l 257
 50 377 l 257
 50 436 l 257
 99 436 l 257
 99 496 l 258
 99 540 106 576 134 613 c 256
 172 666 217 696 278 698 c 257
338 698 m 257
 387 697 426 675 464 636 c 256
 501 598 517 544 517 514 c 257
 380 463 l 257
 381 501 l 258
 381 535 366 549 338 558 c 257
 338 698 l 257
338 2 m 257
 338 142 l 257
 366 151 381 165 381 199 c 258
 380 237 l 257
 517 186 l 257
 517 156 501 102 464 64 c 256
 426 25 387 3 338 2 c 257
EndSplineSet
Validated: 1
EndChar

StartChar: Eth
Encoding: 143 208 18
GlifName: E_th
Width: 501
VWidth: 0
GlyphClass: 2
Flags: W
HStem: 0 21<83 224 83 83 278 308> 292 128<26 83 26 83 224 280> 680 20<83 224 224 224 278 349.5>
VStem: 83 141<0 292 0 292 420 700> 334 141<197 503>
LayerCount: 2
Back
Fore
SplineSet
278 0 m 257
 278 141 l 257
 284 141 333 149 334 197 c 258
 334 503 l 258
 334 508 326 558 278 559 c 257
 278 700 l 257
 421 700 475 566 475 503 c 258
 475 197 l 258
 475 50 338 0 278 0 c 257
224 420 m 257
 280 420 l 257
 280 292 l 257
 224 292 l 257
 224 0 l 257
 83 0 l 257
 83 292 l 257
 26 292 l 257
 26 420 l 257
 83 420 l 257
 83 700 l 257
 224 700 l 257
 224 420 l 257
EndSplineSet
Validated: 1
EndChar

StartChar: F
Encoding: 38 70 19
GlifName: F_
Width: 422
VWidth: 0
GlyphClass: 2
Flags: W
HStem: 1 21<32 173 32 32> 1 21<32 173 32 32> 277 141<173 302 173 302> 560 140<173 396 173 173>
VStem: 32 141<1 277 418 560>
LayerCount: 2
Back
Fore
SplineSet
302 418 m 257xb8
 302 277 l 257
 173 277 l 257
 173 1 l 257
 32 1 l 257
 32 700 l 257
 396 700 l 257
 396 560 l 257
 173 560 l 257
 173 418 l 257
 302 418 l 257xb8
EndSplineSet
Validated: 1
EndChar

StartChar: G
Encoding: 39 71 20
GlifName: G_
Width: 493
VWidth: 0
GlyphClass: 2
Flags: W
HStem: -5 141<219.5 222 219.5 222 219.5 276> 685 20<156 222 276 322.5>
VStem: 26 141<192 508 192 524 192 524> 276 185<135.5 136 136 136 223 353 135.5 353> 319 142<190 223 223 223>
LayerCount: 2
Back
Fore
SplineSet
276 564 m 257xf0
 276 705 l 257xf0
 369 705 461 612 461 516 c 257xe8
 323 465 l 257
 323 495 l 258
 323 509 323 520 318 532 c 256
 308 555 276 564 276 564 c 257xf0
461 353 m 257
 461 176 l 258
 461 95 358 -4 276 -5 c 257
 276 136 l 257xf0
 282 136 319 155 319 190 c 258
 319 223 l 257xe8
 276 223 l 257
 276 353 l 257
 461 353 l 257
222 -5 m 257
 162 -5 26 48 26 192 c 257
 26 524 l 257
 34 589 90 705 222 705 c 257
 222 564 l 257
 176 563 167 513 167 508 c 257
 167 192 l 258
 168 146 217 136 222 136 c 257
 222 -5 l 257
EndSplineSet
Validated: 1
EndChar

StartChar: H
Encoding: 40 72 21
GlifName: H_
Width: 458
VWidth: 0
GlyphClass: 2
Flags: W
HStem: 0 21<32 173 32 32 285 285 285 426> 0 21<32 173 32 32 285 285 285 426> 680 20<32 173 173 173 285 426 426 426>
VStem: 32 170<283 421 283 700> 32 141<0 283 0 421 421 700> 256 170<283 421 421 421> 285 141<0 283 283 283 421 700 0 700>
LayerCount: 2
Back
Fore
SplineSet
202 421 m 257xb0
 202 283 l 257xb0
 173 283 l 257
 173 0 l 257
 32 0 l 257xa8
 32 700 l 257xb0
 173 700 l 257
 173 421 l 257xa8
 202 421 l 257xb0
285 700 m 257xa2
 426 700 l 257
 426 0 l 257
 285 0 l 257
 285 283 l 257xa2
 256 283 l 257
 256 421 l 257xa4
 285 421 l 257
 285 700 l 257xa2
EndSplineSet
Validated: 1
EndChar

StartChar: HKD
Encoding: 192 22291 22
GlifName: H_K_D_
Width: 843
VWidth: 0
GlyphClass: 2
Flags: W
HStem: 488 210<50 92 50 92 50 126 126 169 50 198 198 241 284 284 284 325> 573 41<92 101 92 101 92 117 117 126>
VStem: 50 51<573 614 573 698> 50 42<488 573 488 614 614 698> 117 52<573 614 614 614> 126 43<488 573 573 573 614 698 488 698> 198 43<488 698 488 698> 360 134 464 71 590 71 652 141
LayerCount: 2
Back
Fore
SplineSet
101 614 m 257x62
 101 573 l 257x62
 92 573 l 257x52
 92 488 l 257
 50 488 l 257x92
 50 698 l 257xa2
 92 698 l 257x92
 92 614 l 257x52
 101 614 l 257x62
283 698 m 257x82
 325 698 l 257
 299 611 l 257
 326 488 l 257
 284 488 l 257
 257 611 l 257
 283 698 l 257x82
198 698 m 257
 241 698 l 257
 241 488 l 257
 198 488 l 257
 198 698 l 257
126 698 m 257x86
 169 698 l 257
 169 488 l 257
 126 488 l 257x86
 126 573 l 257x46
 117 573 l 257
 117 614 l 257x4a
 126 614 l 257x46
 126 698 l 257x86
EndSplineSet
Refer: 105 36 N 1 0 0 1 322 0 2
Validated: 1
EndChar

StartChar: I
Encoding: 41 73 23
GlifName: I_
Width: 209
VWidth: 0
GlyphClass: 2
Flags: W
HStem: 0 21<34 175 34 34> 0 21<34 175 34 34> 680 20<34 175 175 175>
VStem: 34 141<0 700 0 700>
LayerCount: 2
Back
Fore
SplineSet
34 700 m 257xb0
 175 700 l 257
 175 0 l 257
 34 0 l 257
 34 700 l 257xb0
EndSplineSet
Validated: 1
EndChar

StartChar: J
Encoding: 42 74 28
GlifName: J_
Width: 495
VWidth: 0
GlyphClass: 2
Flags: W
HStem: -5 142<210.5 213 210.5 213 267 269.5 210.5 297> 680 20<323 463 463 463>
VStem: 26 141<193 242 193 242> 323 140<193 700>
LayerCount: 2
Back
Fore
SplineSet
213 -5 m 257
 153 -5 26 54 26 193 c 257
 26 242 l 257
 167 242 l 257
 167 193 l 258
 168 147 208 137 213 137 c 257
 213 -5 l 257
267 -5 m 257
 267 137 l 257
 272 137 322 147 323 193 c 258
 323 700 l 257
 463 700 l 257
 463 193 l 257
 463 49 327 -5 267 -5 c 257
EndSplineSet
Validated: 1
EndChar

StartChar: K
Encoding: 43 75 29
GlifName: K_
Width: 475
VWidth: 0
GlyphClass: 2
Flags: W
HStem: 0 21<26 167 26 26 319 457 319 319> 0 21<26 167 26 26 319 457 319 319> 680 20<26 167 167 167 314 453 453 453>
VStem: 26 141<0 700 0 700>
LayerCount: 2
Back
Fore
SplineSet
314 700 m 257xb0
 453 700 l 257
 347 341 l 257
 457 0 l 257
 319 0 l 257
 207 341 l 257
 314 700 l 257xb0
26 700 m 257
 167 700 l 257
 167 0 l 257
 26 0 l 257
 26 700 l 257
EndSplineSet
Validated: 1
EndChar

StartChar: L
Encoding: 44 76 30
GlifName: L_
Width: 428
VWidth: 0
GlyphClass: 2
Flags: W
HStem: 0 139<167 402 167 402> 680 20<26 167 167 167>
VStem: 26 141<139 700 139 700 139 700>
LayerCount: 2
Back
Fore
SplineSet
402 139 m 257
 402 0 l 257
 26 0 l 257
 26 700 l 257
 167 700 l 257
 167 139 l 257
 402 139 l 257
EndSplineSet
Validated: 1
EndChar

StartChar: Lslash
Encoding: 193 321 31
GlifName: L_slash
Width: 530
VWidth: 0
GlyphClass: 2
Flags: W
HStem: 0 139<270 505 270 505> 680 20<129 270 270 270>
VStem: 129 141<139 233 233 233 492 700>
LayerCount: 2
Back
Fore
SplineSet
348 553 m 257
 420 460 l 257
 270 343 l 257
 270 139 l 257
 505 139 l 257
 505 0 l 257
 129 0 l 257
 129 233 l 257
 98 209 l 257
 26 302 l 257
 129 382 l 257
 129 700 l 257
 270 700 l 257
 270 492 l 257
 348 553 l 257
EndSplineSet
Validated: 1
EndChar

StartChar: M
Encoding: 45 77 32
GlifName: M_
Width: 676
VWidth: 0
GlyphClass: 2
Flags: W
HStem: 0 21<32 32 32 173 285 285 285 382 503 503 503 644> 0 21<32 32 32 173 285 285 285 382 503 503 503 644> 680 20<32 142 142 142 503 644 644 644>
VStem: 32 141<0 127 0 444> 503 141<0 700 0 700>
LayerCount: 2
Back
Fore
SplineSet
32 0 m 257xb8
 32 444 l 257
 41 444 l 257
 173 127 l 257
 173 0 l 257
 32 0 l 257xb8
32 700 m 257
 142 700 l 257
 333 237 l 257
 439 476 l 257
 449 476 l 257
 449 151 l 257
 382 0 l 257
 285 0 l 257
 32 608 l 257
 32 700 l 257
503 700 m 257
 644 700 l 257
 644 0 l 257
 503 0 l 257
 503 700 l 257
EndSplineSet
Validated: 1
EndChar

StartChar: N
Encoding: 46 78 33
GlifName: N_
Width: 509
VWidth: 0
GlyphClass: 2
Flags: W
HStem: 0 21<32 32 32 173 410 410 410 477> 0 21<32 32 32 173 410 410 410 477> 680 20<32 147 147 147 336 477 477 477>
VStem: 32 141<0 278 0 492> 336 141<498 700>
LayerCount: 2
Back
Fore
SplineSet
32 0 m 257xb8
 32 492 l 257
 40 492 l 257
 173 278 l 257
 173 0 l 257
 32 0 l 257xb8
477 700 m 257
 477 284 l 257
 469 284 l 257
 336 498 l 257
 336 700 l 257
 477 700 l 257
32 700 m 257
 147 700 l 257
 477 168 l 257
 477 0 l 257
 410 0 l 257
 32 608 l 257
 32 700 l 257
EndSplineSet
Validated: 1
EndChar

StartChar: O
Encoding: 47 79 35
GlifName: O_
Width: 508
VWidth: 0
GlyphClass: 2
Flags: W
HStem: -5 142<223.5 226 223.5 226 281 283.5 223.5 311> 564 141<161 227 161 281>
VStem: 30 141<195 508> 337 141<195 508 508 510.5>
LayerCount: 2
Back
Fore
SplineSet
226 -5 m 257
 166 -5 30 51 30 195 c 258
 30 524 l 258
 30 584 95 705 227 705 c 257
 227 564 l 257
 181 563 171 513 171 508 c 258
 171 195 l 258
 171 149 221 137 226 137 c 257
 226 -5 l 257
281 -5 m 257
 281 137 l 257
 286 137 336 149 337 195 c 258
 337 508 l 258
 337 513 327 563 281 564 c 257
 281 705 l 257
 412 705 478 583 478 524 c 258
 478 195 l 258
 478 51 341 -5 281 -5 c 257
EndSplineSet
Validated: 1
EndChar

StartChar: OE
Encoding: 194 338 36
GlifName: O_E_
Width: 724
VWidth: 0
GlyphClass: 2
Flags: W
HStem: -5 142 564 141
VStem: 26 141<200 503> 333 141
LayerCount: 2
Back
Fore
SplineSet
698 141 m 257
 698 0 l 257
 277 0 l 257
 277 142 l 257
 334 142 l 257
 334 559 l 257
 277 559 l 257
 277 700 l 257
 698 700 l 257
 698 560 l 257
 475 560 l 257
 475 418 l 257
 604 418 l 257
 604 277 l 257
 475 277 l 257
 475 141 l 257
 698 141 l 257
222 0 m 257
 162 0 26 56 26 200 c 258
 26 519 l 258
 26 579 91 700 223 700 c 257
 223 559 l 257
 177 558 167 508 167 503 c 258
 167 200 l 258
 167 154 217 142 222 142 c 257
 222 0 l 257
EndSplineSet
Validated: 1
EndChar

StartChar: Oslash
Encoding: 151 216 41
GlifName: O_slash
Width: 662
VWidth: 0
GlyphClass: 2
Flags: W
HStem: -5 142<301.5 304 301.5 304 359 361.5 301.5 389> 564 141<239 305 239 359>
VStem: 108 141<356 508> 415 141<195 347 347 347>
LayerCount: 2
Back
Fore
SplineSet
584 658 m 257
 662 570 l 257
 556 474 l 257
 556 195 l 258
 556 51 419 -5 359 -5 c 257
 359 137 l 257
 364 137 414 149 415 195 c 258
 415 347 l 257
 249 197 l 257
 249 195 l 258
 249 149 299 137 304 137 c 257
 304 -5 l 257
 261 -5 178 24 135 94 c 257
 78 43 l 257
 0 131 l 257
 108 228 l 257
 108 524 l 258
 108 584 173 705 305 705 c 257
 305 564 l 257
 259 563 249 513 249 508 c 258
 249 356 l 257
 415 505 l 257
 415 508 l 258
 415 513 405 563 359 564 c 257
 359 705 l 257
 441 705 497 658 528 607 c 257
 584 658 l 257
EndSplineSet
Validated: 1
EndChar

StartChar: P
Encoding: 48 80 43
GlifName: P_
Width: 474
VWidth: 0
GlyphClass: 2
Flags: W
HStem: 0 21<26 167 26 26> 0 21<26 167 26 26> 318 139<221 254 254 257.5 221 299.5> 561 139<221 254 26 221>
VStem: 26 141<0 700 0 700> 305 143<483 533.5>
LayerCount: 2
Back
Fore
SplineSet
221 457 m 257x3c
 254 457 l 258
 261 457 305 458 305 508 c 256
 305 559 263 561 254 561 c 258
 221 561 l 257
 221 700 l 257
 402 700 448 626 448 512 c 256
 448 369 378 318 221 318 c 257
 221 457 l 257x3c
26 700 m 257
 167 700 l 257
 167 0 l 257
 26 0 l 257xbc
 26 700 l 257
EndSplineSet
Validated: 1
EndChar

StartChar: Percent_sign
Encoding: 5 37 44
GlifName: P_ercent_sign
Width: 629
VWidth: 0
GlyphClass: 2
Flags: W
HStem: 9 216<465 525> 467 216<104 164>
VStem: 26 216<545 605> 387 216<87 147>
LayerCount: 2
Back
Fore
SplineSet
160 -23 m 257
 335 716 l 257
 461 716 l 257
 287 -23 l 257
 160 -23 l 257
26 575 m 256
 26 635 74 683 134 683 c 256
 194 683 242 635 242 575 c 256
 242 515 194 467 134 467 c 256
 74 467 26 515 26 575 c 256
387 117 m 256
 387 177 435 225 495 225 c 256
 555 225 603 177 603 117 c 256
 603 57 555 9 495 9 c 256
 435 9 387 57 387 117 c 256
EndSplineSet
Validated: 1
EndChar

StartChar: Q
Encoding: 49 81 45
GlifName: Q_
Width: 500
VWidth: 0
GlyphClass: 2
Flags: W
HStem: 564 141<157 223 157 277>
VStem: 26 141<195 508> 333 141<195 508 508 510.5>
LayerCount: 2
Back
Fore
SplineSet
222 -5 m 257
 162 -5 26 51 26 195 c 258
 26 524 l 258
 26 584 91 705 223 705 c 257
 223 564 l 257
 177 563 167 513 167 508 c 258
 167 195 l 258
 167 149 217 137 222 137 c 257
 222 -5 l 257
405 47 m 257
 460 -32 l 257
 348 -107 l 257
 277 -5 l 257
 277 137 l 257
 282 137 332 149 333 195 c 258
 333 508 l 258
 333 513 323 563 277 564 c 257
 277 705 l 257
 408 705 474 583 474 524 c 258
 474 195 l 258
 474 127 444 79 405 47 c 257
EndSplineSet
Validated: 1
EndChar

StartChar: R
Encoding: 50 82 46
GlifName: R_
Width: 495
VWidth: 0
GlyphClass: 2
Flags: W
HStem: 0 21<32 173 32 32 343 469 343 343> 0 21<32 173 32 32 343 469 343 343> 286 125<227 240> 567 133<227 240 32 227>
VStem: 32 141<0 700 0 700> 326 127<467.5 512>
LayerCount: 2
Back
Fore
SplineSet
227 411 m 257xbc
 240 411 l 258
 300 411 326 447 326 488 c 256
 326 536 289 567 240 567 c 258
 227 567 l 257
 227 700 l 257
 377 700 453 616 453 496 c 256
 453 428 432 381 386 352 c 257
 422 325 448 266 452 217 c 258
 469 0 l 257
 343 0 l 257
 328 178 l 258
 321 257 298 285 227 286 c 257
 227 411 l 257xbc
32 700 m 257
 173 700 l 257
 173 0 l 257
 32 0 l 257
 32 700 l 257
EndSplineSet
Validated: 1
EndChar

StartChar: S
Encoding: 51 83 47
GlifName: S_
Width: 497
VWidth: 0
GlyphClass: 2
Flags: W
HStem: 680 20<216 216 271 324>
VStem: 41 134<479.5 525 479.5 577.5> 333 141<176.5 240.5>
LayerCount: 2
Back
Fore
SplineSet
216 700 m 257
 216 568 l 257
 195 562 175 537 175 513 c 256
 175 446 279 434 346 394 c 256
 407 358 474 311 474 209 c 256
 474 96 379 -3 271 -3 c 257
 271 127 l 257
 295 130 333 150 333 203 c 256
 333 278 224 294 164 323 c 256
 93 357 41 403 41 508 c 256
 41 647 165 699 216 700 c 257
271 700 m 257
 377 700 440 589 446 553 c 257
 316 510 l 257
 311 557 271 568 271 568 c 257
 271 700 l 257
216 -3 m 257
 107 -3 34 103 33 158 c 257
 160 203 l 257
 162 147 216 127 216 127 c 257
 216 -3 l 257
EndSplineSet
Validated: 1
EndChar

StartChar: T
Encoding: 52 84 49
GlifName: T_
Width: 485
VWidth: 0
GlyphClass: 2
Flags: W
HStem: 0 21<172 313 172 172> 0 21<172 313 172 172> 562 138<26 172 26 459 313 459 313 313>
VStem: 172 141<0 562 0 562>
LayerCount: 2
Back
Fore
SplineSet
459 700 m 257xb0
 459 562 l 257
 313 562 l 257
 313 0 l 257
 172 0 l 257
 172 562 l 257
 26 562 l 257
 26 700 l 257
 459 700 l 257xb0
EndSplineSet
Validated: 1
EndChar

StartChar: Thorn
Encoding: 157 222 50
GlifName: T_horn
Width: 474
VWidth: 0
GlyphClass: 2
Flags: W
HStem: 0 21<26 167 26 26> 0 21<26 167 26 26> 208 139<221 254 254 257.5 221 299.5> 451 139<221 254 221 311.5> 680 20<26 167 167 167>
VStem: 26 141<0 700 0 700> 305 143<373 423.5>
LayerCount: 2
Back
Fore
SplineSet
221 347 m 257x3e
 254 347 l 258
 261 347 305 348 305 398 c 256
 305 449 263 451 254 451 c 258
 221 451 l 257
 221 590 l 257
 402 590 448 516 448 402 c 256
 448 259 378 208 221 208 c 257
 221 347 l 257x3e
26 700 m 257
 167 700 l 257
 167 0 l 257
 26 0 l 257xbe
 26 700 l 257
EndSplineSet
Validated: 1
EndChar

StartChar: TradeMarkSign
Encoding: 196 8482 51
GlifName: T_radeM_arkS_ign
Width: 403
VWidth: 0
GlyphClass: 2
Flags: W
HStem: 653 47<26 72 26 165 120 165 120 120>
VStem: 72 48<484 653 484 653> 188 48<484 522 484 628> 330 47<484 700 484 700>
LayerCount: 2
Back
Fore
SplineSet
188 484 m 257
 188 628 l 257
 191 628 l 257
 236 522 l 257
 236 484 l 257
 188 484 l 257
188 700 m 257
 225 700 l 257
 281 564 l 257
 313 636 l 257
 317 636 l 257
 317 529 l 257
 298 484 l 257
 265 484 l 257
 188 669 l 257
 188 700 l 257
330 700 m 257
 377 700 l 257
 377 484 l 257
 330 484 l 257
 330 700 l 257
165 700 m 257
 165 653 l 257
 120 653 l 257
 120 484 l 257
 72 484 l 257
 72 653 l 257
 26 653 l 257
 26 700 l 257
 165 700 l 257
EndSplineSet
Validated: 1
EndChar

StartChar: U
Encoding: 53 85 52
GlifName: U_
Width: 512
VWidth: 0
GlyphClass: 2
Flags: W
HStem: -5 142<226.5 229 226.5 229 283 285.5 226.5 313.5> 680 20<32 173 173 173 339 479 479 479>
VStem: 32 141<193 700 193 700> 339 140<193 700>
LayerCount: 2
Back
Fore
SplineSet
229 -5 m 257
 169 -5 32 49 32 193 c 258
 32 700 l 257
 173 700 l 257
 173 193 l 257
 174 147 224 137 229 137 c 257
 229 -5 l 257
283 -5 m 257
 283 137 l 257
 288 137 338 147 339 193 c 257
 339 700 l 257
 479 700 l 257
 479 193 l 258
 479 48 344 -5 283 -5 c 257
EndSplineSet
Validated: 1
EndChar

StartChar: V
Encoding: 54 86 57
GlifName: V_
Width: 508
VWidth: 0
GlyphClass: 2
Flags: W
HStem: 0 21<229 276 229 229> 0 21<229 276 229 229> 680 20<26 170 170 170 338 482 482 482>
LayerCount: 2
Back
Fore
SplineSet
26 700 m 257xa0
 170 700 l 257
 329 158 l 257
 276 0 l 257
 229 0 l 257
 26 700 l 257xa0
482 700 m 257
 442 569 401 430 359 290 c 257
 349 290 l 257
 283 514 l 257
 338 700 l 257
 482 700 l 257
EndSplineSet
Validated: 1
EndChar

StartChar: W
Encoding: 55 87 58
GlifName: W_
Width: 725
VWidth: 0
GlyphClass: 2
Flags: W
HStem: 0 21<229 276 229 229 442 442 442 489> 0 21<229 276 229 229 442 442 442 489> 680 20<26 170 170 170 239 383 383 383 555 699 699 699>
LayerCount: 2
Back
Fore
SplineSet
26 700 m 257xa0
 170 700 l 257
 328 158 l 257
 276 0 l 257
 229 0 l 257
 26 700 l 257xa0
239 700 m 257
 383 700 l 257
 541 158 l 257
 489 0 l 257
 442 0 l 257
 239 700 l 257
699 700 m 257
 576 290 l 257
 566 290 l 257
 500 514 l 257
 555 700 l 257
 699 700 l 257
EndSplineSet
Validated: 1
EndChar

StartChar: X
Encoding: 56 88 59
GlifName: X_
Width: 464
VWidth: 0
GlyphClass: 2
Flags: W
HStem: 0 21<26 171 26 26 293 438 293 293> 0 21<26 171 26 26 293 438 293 293> 680 20<38 175 175 175 289 426 426 426>
LayerCount: 2
Back
Fore
SplineSet
426 700 m 257xa0
 302 361 l 257
 438 0 l 257
 293 0 l 257
 232 167 l 257
 171 0 l 257
 26 0 l 257
 162 361 l 257
 38 700 l 257
 175 700 l 257
 232 548 l 257
 289 700 l 257
 426 700 l 257xa0
EndSplineSet
Validated: 1
EndChar

StartChar: Y
Encoding: 57 89 60
GlifName: Y_
Width: 479
VWidth: 0
GlyphClass: 2
Flags: W
HStem: 0 21<157 303 157 157> 0 21<157 303 157 157> 680 20<26 173 173 173 308 453 453 453>
VStem: 157 146<0 252 252 252>
LayerCount: 2
Back
Fore
SplineSet
26 700 m 257xb0
 173 700 l 257
 303 253 l 257
 303 0 l 257
 157 0 l 257
 157 252 l 257
 26 700 l 257xb0
269 565 m 257
 308 700 l 257
 453 700 l 257
 344 331 l 257
 335 331 l 257
 269 565 l 257
EndSplineSet
Validated: 1
EndChar

StartChar: Z
Encoding: 58 90 63
GlifName: Z_
Width: 418
VWidth: 0
GlyphClass: 2
Flags: W
HStem: 0 144<182 392 182 392> 560 140<26 236 26 392>
VStem: 26 366<0 141 141 141 563 700>
LayerCount: 2
Back
Fore
SplineSet
182 144 m 257
 392 144 l 257
 392 0 l 257
 26 0 l 257
 26 141 l 257
 236 560 l 257
 26 560 l 257
 26 700 l 257
 392 700 l 257
 392 563 l 257
 182 144 l 257
EndSplineSet
Validated: 1
EndChar

StartChar: a
Encoding: 65 97 65
GlifName: a
Width: 435
VWidth: 0
GlyphClass: 2
Flags: W
HStem: 1 112<163 180 163 180 229 232 163 229>
VStem: 26 101<139 149 149 162 139 167 139 183.5> 268 116<149 227 227 227 351 363 361 375>
LayerCount: 2
Back
Fore
SplineSet
228 519 m 257
 231 519 l 258
 334 519 384 424 384 380 c 258
 384 143 l 258
 384 138 386 114 407 114 c 258
 410 114 l 257
 410 1 l 257
 407 1 l 258
 370 1 341 13 321 30 c 257
 298 12 268 1 232 1 c 258
 229 1 l 257
 229 113 l 257
 232 113 l 258
 262 114 268 146 268 149 c 258
 268 227 l 257
 230 205 153 190 139 183 c 256
 133 180 127 173 127 162 c 258
 127 149 l 258
 127 129 137 113 163 113 c 258
 180 113 l 257
 180 1 l 257
 83 1 26 64 26 121 c 258
 26 167 l 258
 26 200 33 233 75 257 c 256
 118 282 268 311 268 351 c 256
 268 355 268 359 268 363 c 256
 268 387 266 404 231 407 c 256
 228 408 l 257
 228 519 l 257
181 407 m 257
 178 407 l 258
 155 405 138 390 138 353 c 258
 138 349 l 257
 33 389 l 257
 33 391 l 258
 33 462 110 519 178 519 c 258
 181 519 l 257
 181 407 l 257
EndSplineSet
Validated: 1
EndChar

StartChar: acute
Encoding: 115 180 68
GlifName: acute
Width: 263
VWidth: 0
GlyphClass: 2
Flags: W
HStem: 605 152<87 141 50 214>
VStem: 50 164<605 757>
LayerCount: 2
Back
Fore
SplineSet
141 605 m 257
 50 605 l 257
 87 757 l 257
 214 757 l 257
 141 605 l 257
EndSplineSet
Validated: 1
EndChar

StartChar: ae
Encoding: 165 230 70
GlifName: ae
Width: 666
VWidth: 0
GlyphClass: 2
Flags: W
HStem: 1 112<163 180 163 180 229 232 163 229> 208 116<384 525 384 639 384 525> 400 116<424 426 426 429>
VStem: 26 101<139 149 149 162 139 180 139 196.5> 268 116<149 208 132 227 132 227 351 363 363 373> 525 114<324 369 369 378 208 382.5>
LayerCount: 2
Back
Fore
SplineSet
482 402 m 258
 478 402 l 257
 478 516 l 257
 484 516 l 258
 554 516 639 450 639 378 c 258
 639 208 l 257
 384 208 l 257
 384 143 l 258
 384 121 400 109 425 108 c 258
 484 108 l 258
 517 108 536 134 541 157 c 257
 640 120 l 257
 624 55 555 0 484 0 c 258
 425 0 l 258
 380 0 345 9 321 30 c 257
 298 12 268 1 232 1 c 258
 229 1 l 257
 229 113 l 257
 232 113 l 258
 262 114 268 146 268 149 c 258
 268 227 l 257
 230 205 153 190 139 183 c 256
 133 180 127 173 127 162 c 258
 127 149 l 258
 127 129 137 113 163 113 c 258
 180 113 l 257
 180 1 l 257
 83 1 26 53 26 110 c 258
 26 180 l 258
 26 213 33 233 75 257 c 256
 118 282 268 311 268 351 c 258
 268 363 l 258
 268 387 266 407 231 407 c 258
 178 407 l 258
 155 407 138 390 138 353 c 258
 138 349 l 257
 33 389 l 257
 33 391 l 258
 33 462 110 519 178 519 c 258
 233 519 l 258
 273 519 305 504 329 483 c 257
 353 502 385 516 424 516 c 258
 429 516 l 257
 429 400 l 257
 426 400 l 258
 400 400 387 385 384 373 c 258
 384 324 l 257
 525 324 l 257
 525 369 l 258
 525 396 502 402 482 402 c 258
EndSplineSet
Validated: 1
EndChar

StartChar: ampersand
Encoding: 6 38 72
GlifName: ampersand
Width: 687
VWidth: 0
GlyphClass: 2
Flags: W
HStem: 682 20<257 257>
VStem: 26 157<182 227.5 182 260> 94 137<518.5 552.5 518.5 574.5> 344 133<518.5 545>
LayerCount: 2
Back
Fore
SplineSet
257 578 m 257xb0
 257 578 231 569 231 536 c 256xb0
 231 501 251 495 257 489 c 257
 257 269 l 257
 233 297 l 257
 208 275 183 251 183 204 c 256
 183 160 210 135 257 135 c 257
 257 3 l 257
 107 3 26 93 26 214 c 256xd0
 26 306 81 370 151 404 c 257
 124 424 94 486 94 528 c 256
 94 621 153 681 257 702 c 257
 257 578 l 257xb0
317 700 m 257
 424 681 477 618 477 520 c 256
 477 445 417 383 363 361 c 257
 431 280 l 257
 443 299 451 320 455 345 c 257
 594 345 l 257
 584 274 559 227 520 180 c 257
 661 16 l 257
 464 16 l 257
 417 72 l 257
 393 50 352 26 317 16 c 257
 317 168 l 257
 324 173 325 174 332 180 c 257
 317 198 l 257
 317 486 l 257
 328 495 344 504 344 533 c 256
 344 557 340 570 317 582 c 257
 317 700 l 257
EndSplineSet
Validated: 1
EndChar

StartChar: asciicircum
Encoding: 62 94 74
GlifName: asciicircum
Width: 374
VWidth: 0
GlyphClass: 2
Flags: W
HStem: 460 296<27 264 27 264 176 290 176 413>
LayerCount: 2
Back
Fore
SplineSet
27 460 m 257
 176 756 l 257
 264 756 l 257
 413 460 l 257
 290 460 l 257
 219 603 l 257
 149 460 l 257
 27 460 l 257
EndSplineSet
Validated: 1
EndChar

StartChar: asciitilde
Encoding: 94 126 75
GlifName: asciitilde
Width: 568
VWidth: 0
GlyphClass: 2
Flags: W
HStem: 235 132<343 399.5> 308 132<147.5 198>
LayerCount: 2
Back
Fore
SplineSet
518 281 m 257x80
 462 247 418 235 381 235 c 256x80
 289 235 239 308 157 308 c 256
 127 308 92 299 50 272 c 257
 50 405 l 257
 95 431 132 440 163 440 c 256x40
 250 440 299 367 387 367 c 256
 422 367 464 379 518 412 c 257
 518 281 l 257x80
EndSplineSet
Validated: 1
EndChar

StartChar: asterisk
Encoding: 10 42 76
GlifName: asterisk
Width: 394
VWidth: 0
GlyphClass: 2
Flags: W
HStem: 478 307<160 231 160 231> 517 21<92 92>
VStem: 160 71<478 564 564 564 704 785>
LayerCount: 2
Back
Fore
SplineSet
231 478 m 257xa0
 160 478 l 257xa0
 160 564 l 257
 92 517 l 257x60
 51 574 l 257
 138 633 l 257
 50 691 l 257
 92 748 l 257
 160 704 l 257
 160 785 l 257
 231 785 l 257
 231 702 l 257
 302 748 l 257
 344 691 l 257
 256 632 l 257
 343 572 l 257
 302 515 l 257
 231 565 l 257
 231 478 l 257xa0
EndSplineSet
Validated: 1
EndChar

StartChar: at
Encoding: 32 64 77
GlifName: at
Width: 803
VWidth: 0
GlyphClass: 2
Flags: W
HStem: -87 109<337 457.5 337 480.5> 116 403<368 375.5 368 593> 116 124<556 580.5 556 593> 602 113<367.5 500>
VStem: 16 120<217 396.5 217 421> 205 340<257.5 273 257.5 366.5> 666 120<346 471>
LayerCount: 2
Back
Fore
SplineSet
667 103 m 257xbe
 717 12 l 257
 658 -45 538 -87 423 -87 c 256
 195 -87 16 47 16 309 c 256
 16 533 191 715 448 715 c 256
 610 715 786 612 786 412 c 256
 786 201 654 116 532 116 c 256xde
 494 116 463 137 453 161 c 257
 439 139 407 116 344 116 c 256xbe
 268 116 205 193 205 289 c 256
 205 444 327 519 409 519 c 256xde
 473 519 495 493 510 477 c 257
 518 504 l 257
 602 504 l 257
 552 308 l 258
 549 297 545 280 545 266 c 256
 545 249 549 240 563 240 c 256
 598 240 666 280 666 412 c 256
 666 530 549 602 451 602 c 256
 284 602 136 481 136 312 c 256
 136 122 260 22 414 22 c 256
 501 22 587 47 667 103 c 257xbe
EndSplineSet
Validated: 1
EndChar

StartChar: b
Encoding: 66 98 79
GlifName: b
Width: 414
VWidth: 0
GlyphClass: 2
Flags: W
HStem: 0 118<30 236 203 236 203 236> 398 118<203 236 236 237 203 236> 679 20<30 155 155 155> 679 20<30 155 155 155>
VStem: 30 125<0 699 0 699> 270 118<143 373 373 374>
LayerCount: 2
Back
Fore
SplineSet
30 0 m 257xec
 30 699 l 257
 155 699 l 257
 155 0 l 257
 30 0 l 257xec
270 373 m 257
 270 375 264 397 237 398 c 258
 203 398 l 257
 203 516 l 257
 236 516 l 258
 338 516 387 422 388 377 c 257
 388 141 l 258
 388 97 339 0 236 0 c 258
 203 0 l 257
 203 118 l 257
 236 118 l 258
 264 118 270 142 270 143 c 257
 270 373 l 257
EndSplineSet
Validated: 1
EndChar

StartChar: backslash
Encoding: 60 92 80
GlifName: backslash
Width: 402
VWidth: 0
GlyphClass: 2
Flags: W
VStem: 50 301
LayerCount: 2
Back
Fore
SplineSet
351 -23 m 257
 224 -23 l 257
 50 716 l 257
 176 716 l 257
 351 -23 l 257
EndSplineSet
Validated: 1
EndChar

StartChar: bar
Encoding: 92 124 81
GlifName: bar
Width: 205
VWidth: 0
GlyphClass: 2
Flags: W
VStem: 50 105<-134 754 -134 754>
LayerCount: 2
Back
Fore
SplineSet
50 754 m 257
 155 754 l 257
 155 -134 l 257
 50 -134 l 257
 50 754 l 257
EndSplineSet
Validated: 1
EndChar

StartChar: braceleft
Encoding: 91 123 82
GlifName: braceleft
Width: 407
VWidth: 0
GlyphClass: 2
Flags: W
HStem: -38 99<280 292 289 307> 635 100<273 307>
VStem: 112 127<192 207 207 290 290 304 146.5 306 408 469>
LayerCount: 2
Back
Fore
SplineSet
307 735 m 257
 307 635 l 257
 239 635 240 591 239 469 c 257
 239 383 l 258
 239 366 219 354 195 348 c 257
 220 340 239 325 239 304 c 258
 239 207 l 258
 239 86 253 61 307 61 c 257
 307 -38 l 257
 301 -38 295 -38 289 -38 c 256
 200 -38 112 -31 112 192 c 258
 112 290 l 258
 112 322 86 329 50 348 c 257
 86 363 111 370 112 408 c 258
 112 504 l 258
 112 715 198 735 307 735 c 257
EndSplineSet
Validated: 1
EndChar

StartChar: braceright
Encoding: 93 125 83
GlifName: braceright
Width: 407
VWidth: 0
GlyphClass: 2
Flags: W
HStem: -38 99<100 118 100 103> 635 100<100 134>
VStem: 168 127<208 290 80.5 304 80.5 314.5 408 469 469 469>
LayerCount: 2
Back
Fore
SplineSet
100 735 m 257
 209 735 295 715 295 504 c 258
 295 408 l 258
 296 370 321 363 357 348 c 257
 321 329 295 322 295 290 c 258
 295 192 l 258
 295 -31 207 -38 118 -38 c 256
 112 -38 106 -38 100 -38 c 257
 100 61 l 257
 154 61 168 87 168 208 c 258
 168 304 l 258
 168 325 187 340 212 348 c 257
 188 354 168 366 168 383 c 256
 168 384 168 384 168 384 c 256
 168 469 l 258
 167 591 168 635 100 635 c 257
 100 735 l 257
EndSplineSet
Validated: 1
EndChar

StartChar: bracketleft
Encoding: 59 91 84
GlifName: bracketleft
Width: 258
VWidth: 0
GlyphClass: 2
Flags: W
HStem: -36 110<180 244 180 244> 629 110<183 244 183 183>
VStem: 50 194<-36 74 629 739> 50 130<74 74 74 739>
LayerCount: 2
Back
Fore
SplineSet
244 739 m 257xe0
 244 629 l 257xe0
 183 629 l 257
 180 74 l 257xd0
 244 74 l 257
 244 -36 l 257
 50 -36 l 257
 50 739 l 257
 244 739 l 257xe0
EndSplineSet
Validated: 1
EndChar

StartChar: bracketright
Encoding: 61 93 85
GlifName: bracketright
Width: 258
VWidth: 0
GlyphClass: 2
Flags: W
HStem: -36 110<14 78 14 208 14 78> 629 110<14 75 14 208>
VStem: 14 194<-36 74 74 74 629 739 -36 739> 78 130<74 74>
LayerCount: 2
Back
Fore
SplineSet
14 739 m 257xe0
 208 739 l 257
 208 -36 l 257
 14 -36 l 257
 14 74 l 257xe0
 78 74 l 257xd0
 75 629 l 257
 14 629 l 257
 14 739 l 257xe0
EndSplineSet
Validated: 1
EndChar

StartChar: breve
Encoding: 199 728 86
GlifName: breve
Width: 244
VWidth: 0
GlyphClass: 2
Flags: W
HStem: 430 64<113 131 113 148.5>
VStem: 26 64<517 526 517 526> 154 64<517 526>
LayerCount: 2
Back
Fore
SplineSet
218 526 m 257
 218 473 175 430 122 430 c 256
 69 430 26 473 26 526 c 257
 90 526 l 257
 90 508 104 494 122 494 c 256
 140 494 154 508 154 526 c 257
 218 526 l 257
EndSplineSet
Validated: 1
EndChar

StartChar: brokenbar
Encoding: 101 166 87
GlifName: brokenbar
Width: 222
VWidth: 0
GlyphClass: 2
Flags: W
VStem: 50 122<-134 221 -134 221 399 754>
LayerCount: 2
Back
Fore
SplineSet
50 754 m 257
 172 754 l 257
 172 399 l 257
 50 399 l 257
 50 754 l 257
50 221 m 257
 172 221 l 257
 172 -134 l 257
 50 -134 l 257
 50 221 l 257
EndSplineSet
Validated: 1
EndChar

StartChar: bullet
Encoding: 200 8226 88
GlifName: bullet
Width: 352
VWidth: 0
GlyphClass: 2
Flags: W
LayerCount: 2
Back
Fore
SplineSet
26 344 m 256
 26 428 92 496 176 496 c 256
 260 496 326 428 326 344 c 256
 326 260 260 194 176 194 c 256
 92 194 26 260 26 344 c 256
EndSplineSet
Validated: 1
EndChar

StartChar: c
Encoding: 67 99 89
GlifName: c
Width: 418
VWidth: 0
GlyphClass: 2
Flags: W
HStem: -1 117<243 249 243 249 249 250> 496 20<185 191 191 191 233 239 239 275.5>
VStem: 30 119<141 375>
LayerCount: 2
Back
Fore
SplineSet
266 383 m 257
 261 397 239 399 239 399 c 258
 238 399 237 399 236 399 c 258
 233 399 l 257
 233 516 l 257
 239 516 l 258
 312 516 381 448 381 376 c 258
 381 372 l 257
 270 330 l 257
 270 360 l 258
 270 370 270 375 266 383 c 257
243 -1 m 257
 243 116 l 257
 249 116 l 257
 251 116 272 119 277 132 c 257
 281 140 281 146 281 156 c 258
 281 186 l 257
 392 144 l 257
 392 140 l 258
 392 68 323 -1 250 -1 c 258
 243 -1 l 257
30 377 m 257
 31 421 80 516 185 516 c 258
 191 516 l 257
 191 400 l 257
 185 400 l 258
 154 400 149 377 149 375 c 258
 149 141 l 258
 149 139 154 115 194 115 c 256
 199 114 l 257
 199 0 l 257
 194 0 l 258
 79 0 30 97 30 141 c 258
 30 377 l 257
EndSplineSet
Validated: 1
EndChar

StartChar: caron
Encoding: 201 711 90
GlifName: caron
Width: 270
VWidth: 0
GlyphClass: 2
Flags: W
HStem: 514 152<101 107 162 167 101 101>
VStem: 26 218<666 666>
LayerCount: 2
Back
Fore
SplineSet
26 666 m 257
 107 666 l 257
 134 609 l 257
 162 666 l 257
 244 666 l 257
 167 514 l 257
 101 514 l 257
 26 666 l 257
EndSplineSet
Validated: 1
EndChar

StartChar: cedilla
Encoding: 119 184 92
GlifName: cedilla
Width: 219
VWidth: 0
GlyphClass: 2
Flags: W
HStem: -36 91<26 44 26 89.5>
VStem: 102 92<95.5 123>
LayerCount: 2
Back
Fore
SplineSet
102 123 m 257
 194 123 l 257
 194 47 153 -36 26 -36 c 257
 26 55 l 257
 62 55 102 68 102 123 c 257
EndSplineSet
Validated: 1
EndChar

StartChar: cent
Encoding: 97 162 93
GlifName: cent
Width: 494
VWidth: 0
GlyphClass: 2
Flags: W
VStem: 32 141<181 518> 158 71<-48 -5 -5 7 7 7 693 705 705 749> 283 71<-48 -5 -5 11 -48 86 687 705 705 749> 330 138<143 215 143 215>
LayerCount: 2
Back
Fore
SplineSet
158 749 m 257x40
 229 749 l 257
 229 705 l 257
 229 595 l 257
 229 564 l 257x40
 183 563 173 523 173 518 c 258
 173 181 l 258x80
 173 176 183 136 229 136 c 257
 229 86 l 257
 229 -5 l 257
 229 -48 l 257
 158 -48 l 257
 158 7 l 257x40
 68 40 32 132 32 181 c 258
 32 518 l 258x80
 32 567 68 660 158 693 c 257
 158 749 l 257x40
283 749 m 257x20
 354 749 l 257
 354 687 l 257x20
 417 656 468 587 468 516 c 257
 330 480 l 257
 330 495 l 258x10
 330 509 330 520 325 532 c 256
 315 555 283 564 283 564 c 257
 283 595 l 257
 283 705 l 257
 283 749 l 257x20
283 136 m 257
 283 136 315 143 325 166 c 256
 330 178 330 189 330 203 c 258
 330 215 l 257
 468 182 l 257x10
 468 104 417 40 354 11 c 257
 354 -48 l 257
 283 -48 l 257
 283 -5 l 257
 283 86 l 257
 283 136 l 257
EndSplineSet
Validated: 1
EndChar

StartChar: circumflex
Encoding: 202 710 94
GlifName: circumflex
Width: 270
VWidth: 0
GlyphClass: 2
Flags: W
HStem: 514 152<26 167 101 107 162 162 162 167 101 244>
VStem: 26 218<514 514>
LayerCount: 2
Back
Fore
SplineSet
26 514 m 257
 101 666 l 257
 167 666 l 257
 244 514 l 257
 162 514 l 257
 134 571 l 257
 107 514 l 257
 26 514 l 257
EndSplineSet
Validated: 1
EndChar

StartChar: colon
Encoding: 26 58 95
GlifName: colon
Width: 250
VWidth: 0
GlyphClass: 2
Flags: W
HStem: -5 151<104 146> 285 151<104 146>
VStem: 50 150<49 91 339 381>
LayerCount: 2
Back
Fore
SplineSet
50 70 m 256
 50 112 83 146 125 146 c 256
 167 146 200 112 200 70 c 256
 200 28 167 -5 125 -5 c 256
 83 -5 50 28 50 70 c 256
50 360 m 256
 50 402 83 436 125 436 c 256
 167 436 200 402 200 360 c 256
 200 318 167 285 125 285 c 256
 83 285 50 318 50 360 c 256
EndSplineSet
Validated: 1
EndChar

StartChar: comma
Encoding: 12 44 96
GlifName: comma
Width: 265
VWidth: 0
GlyphClass: 2
Flags: W
LayerCount: 2
Back
Fore
SplineSet
178 -23 m 257
 51 -23 l 257
 88 129 l 257
 215 129 l 257
 178 -23 l 257
EndSplineSet
Validated: 1
EndChar

StartChar: copyright
Encoding: 104 169 97
GlifName: copyright
Width: 859
VWidth: 0
GlyphClass: 2
Flags: W
HStem: -49 93<412 412 412 447> 112 89<366.5 447 447 476.5> 476 90<397.5 412 366.5 447> 636 90<412 412 412 447>
VStem: 50 89<332 339 332 339 337 339 332 464> 287 90<231 447> 720 89<332 339 338 339 327 427.5>
LayerCount: 2
Back
Fore
SplineSet
412 44 m 257
 412 -49 l 257
 240 -43 56 104 50 327 c 256
 50 331 50 335 50 339 c 256
 50 589 264 725 412 726 c 257
 412 636 l 257
 283 635 139 516 139 339 c 256
 139 337 139 334 139 332 c 256
 142 179 266 51 412 44 c 257
447 476 m 257
 447 566 l 257
 506 566 565 507 565 446 c 257
 477 413 l 257
 477 432 l 258
 477 441 477 448 474 456 c 256
 468 470 447 476 447 476 c 257
447 201 m 257
 447 201 468 207 474 222 c 256
 477 229 477 236 477 245 c 258
 477 264 l 257
 565 232 l 257
 565 171 506 112 447 112 c 257
 447 201 l 257
412 566 m 257
 412 476 l 257
 383 476 377 450 377 447 c 257
 377 231 l 257
 377 228 383 203 412 203 c 257
 412 112 l 257
 321 112 287 193 287 231 c 257
 287 447 l 257
 287 485 321 566 412 566 c 257
447 44 m 257
 593 51 717 179 720 332 c 256
 720 334 720 337 720 339 c 256
 720 516 576 635 447 636 c 257
 447 726 l 257
 595 725 809 589 809 339 c 256
 809 335 809 331 809 327 c 256
 803 104 619 -43 447 -49 c 257
 447 44 l 257
EndSplineSet
Validated: 1
EndChar

StartChar: currency
Encoding: 99 164 98
GlifName: currency
Width: 656
VWidth: 0
GlyphClass: 2
Flags: W
HStem: 133 118<281 310 304 310 304 357 304 351> 477 118<287.5 310 304 310 304 351 351 357>
VStem: 146 120<275 275 275 276 276 452> 393 117<275 451 451 452.5>
LayerCount: 2
Back
Fore
SplineSet
351 477 m 257
 351 595 l 257
 357 595 l 258
 400 595 434 578 459 555 c 257
 534 622 l 257
 606 540 l 257
 510 456 l 258
 510 455 510 455 510 455 c 256
 510 275 l 256
 510 275 510 275 510 275 c 256
 605 190 l 257
 534 109 l 257
 460 174 l 257
 435 150 401 133 357 133 c 258
 351 133 l 257
 351 247 l 257
 357 247 l 258
 388 248 393 272 393 274 c 258
 393 451 l 258
 393 454 387 477 357 477 c 258
 351 477 l 257
50 540 m 257
 122 622 l 257
 198 555 l 257
 223 578 259 595 304 595 c 258
 310 595 l 257
 310 477 l 257
 304 477 l 258
 271 477 266 453 266 452 c 258
 266 276 l 258
 266 273 274 251 304 251 c 258
 310 251 l 257
 310 133 l 257
 304 133 l 258
 258 133 222 151 197 175 c 257
 122 109 l 257
 51 190 l 257
 146 275 l 256
 146 275 146 275 146 275 c 256
 146 455 l 256
 146 455 146 455 146 456 c 258
 50 540 l 257
EndSplineSet
Validated: 5
EndChar

StartChar: d
Encoding: 68 100 99
GlifName: d
Width: 414
VWidth: 0
GlyphClass: 2
Flags: W
HStem: 0 118<130 210 182 210 182 258 182 384> 398 118<180 210 180 210> 678 20<258 384 384 384>
VStem: 30 118<142 143 143 373> 258 126<0 698>
LayerCount: 2
Back
Fore
SplineSet
180 516 m 258
 210 516 l 257
 210 398 l 257
 180 398 l 257
 153 397 148 375 148 373 c 258
 148 143 l 257
 148 141 154 118 182 118 c 258
 210 118 l 257
 210 0 l 257
 182 0 l 258
 78 0 30 97 30 141 c 258
 30 377 l 257
 31 422 79 516 180 516 c 258
384 0 m 257
 258 0 l 257
 258 698 l 257
 384 698 l 257
 384 0 l 257
EndSplineSet
Validated: 1
EndChar

StartChar: dagger
Encoding: 203 8224 100
GlifName: dagger
Width: 453
VWidth: 0
GlyphClass: 2
Flags: W
HStem: 450 127<26 156 26 156 297 427>
VStem: 156 141<-56 450 -56 450 577 764>
LayerCount: 2
Back
Fore
SplineSet
427 577 m 257
 427 450 l 257
 297 450 l 257
 297 -56 l 257
 156 -56 l 257
 156 450 l 257
 26 450 l 257
 26 577 l 257
 156 577 l 257
 156 764 l 257
 297 764 l 257
 297 577 l 257
 427 577 l 257
EndSplineSet
Validated: 1
EndChar

StartChar: daggerdbl
Encoding: 204 8225 101
GlifName: daggerdbl
Width: 453
VWidth: 0
GlyphClass: 2
Flags: W
HStem: 131 127<26 156 26 156 297 427> 450 127<26 156 26 156 297 427>
VStem: 156 141<-56 131 -56 131 258 450 577 764>
LayerCount: 2
Back
Fore
SplineSet
156 764 m 257
 297 764 l 257
 297 577 l 257
 427 577 l 257
 427 450 l 257
 297 450 l 257
 297 258 l 257
 427 258 l 257
 427 131 l 257
 297 131 l 257
 297 -56 l 257
 156 -56 l 257
 156 131 l 257
 26 131 l 257
 26 258 l 257
 156 258 l 257
 156 450 l 257
 26 450 l 257
 26 577 l 257
 156 577 l 257
 156 764 l 257
EndSplineSet
Validated: 1
EndChar

StartChar: degree
Encoding: 111 176 102
GlifName: degree
Width: 282
VWidth: 0
GlyphClass: 2
Flags: W
HStem: 468 77<129.5 151 129.5 172> 622 77
VStem: 25 77<572.5 594 572.5 615> 179 77<572.5 594>
LayerCount: 2
Back
Fore
SplineSet
102 583 m 256
 102 562 119 545 140 545 c 256
 162 545 179 562 179 583 c 256
 179 605 162 622 140 622 c 256
 119 622 102 605 102 583 c 256
25 583 m 256
 25 647 77 698 140 698 c 256
 204 698 256 647 256 583 c 256
 256 520 204 468 140 468 c 256
 77 468 25 520 25 583 c 256
EndSplineSet
Validated: 1
EndChar

StartChar: dieresis
Encoding: 103 168 103
GlifName: dieresis
Width: 320
VWidth: 0
GlyphClass: 2
Flags: W
LayerCount: 2
Back
Fore
SplineSet
170 678 m 256
 170 720 203 754 245 754 c 256
 287 754 320 720 320 678 c 256
 320 636 287 603 245 603 c 256
 203 603 170 636 170 678 c 256
0 678 m 256
 0 720 33 754 75 754 c 256
 117 754 150 720 150 678 c 256
 150 636 117 603 75 603 c 256
 33 603 0 636 0 678 c 256
EndSplineSet
Validated: 1
EndChar

StartChar: divide
Encoding: 182 247 104
GlifName: divide
Width: 650
VWidth: 0
GlyphClass: 2
Flags: W
HStem: 40 151 228 127<100 550 100 550> 393 151
VStem: 213 150
LayerCount: 2
Back
Fore
SplineSet
550 355 m 257
 550 228 l 257
 100 228 l 257
 100 355 l 257
 550 355 l 257
EndSplineSet
Refer: 175 46 N 1 0 0 1 196 415 2
Refer: 175 46 N 1 0 0 1 196 62 2
Validated: 1
EndChar

StartChar: dollar
Encoding: 4 36 105
GlifName: dollar
Width: 501
VWidth: 0
GlyphClass: 2
Flags: W
VStem: 38 134<499.5 525 499.5 553.5> 142 71<-47 13 13 13 679 750> 268 71<-47 -3 -3 12 -47 127 682 750> 330 141<176.5 222>
LayerCount: 2
Back
Fore
SplineSet
268 428 m 257x20
 294 418 320 407 343 394 c 256
 404 358 471 311 471 209 c 256x10
 471 122 414 44 339 12 c 257
 339 -47 l 257
 268 -47 l 257
 268 -3 l 256
 268 127 l 257x20
 292 130 330 150 330 203 c 256x10
 330 241 303 263 268 280 c 257
 268 428 l 257x20
213 750 m 257x40
 213 568 l 257x40
 192 562 172 537 172 513 c 256x80
 172 486 189 469 213 454 c 257
 213 302 l 257x40
 194 309 176 316 161 323 c 256
 90 357 38 403 38 508 c 256x80
 38 599 91 652 142 679 c 257
 142 750 l 257
 213 750 l 257x40
339 682 m 257x20
 402 649 438 580 443 553 c 257
 313 510 l 257
 308 557 268 568 268 568 c 257
 268 750 l 257
 339 750 l 257
 339 682 l 257x20
213 -47 m 257x40
 142 -47 l 257
 142 13 l 257
 73 45 31 116 30 158 c 257
 157 203 l 257
 159 147 213 127 213 127 c 257
 213 -47 l 257x40
EndSplineSet
Validated: 1
EndChar

StartChar: dotaccent
Encoding: 205 729 106
GlifName: dotaccent
Width: 202
VWidth: 0
GlyphClass: 2
Flags: W
HStem: 603 151<80 122>
VStem: 26 150<657 699>
LayerCount: 2
Back
Fore
SplineSet
26 678 m 256
 26 720 59 754 101 754 c 256
 143 754 176 720 176 678 c 256
 176 636 143 603 101 603 c 256
 59 603 26 636 26 678 c 256
EndSplineSet
Validated: 1
EndChar

StartChar: dotlessi
Encoding: 206 305 107
GlifName: dotlessi
Width: 174
VWidth: 0
GlyphClass: 2
Flags: W
LayerCount: 2
Back
Fore
SplineSet
148 0 m 257
 26 0 l 257
 26 516 l 257
 148 516 l 257
 148 0 l 257
EndSplineSet
Validated: 1
EndChar

StartChar: e
Encoding: 69 101 108
GlifName: e
Width: 424
VWidth: 0
GlyphClass: 2
Flags: W
HStem: 0 111<131 242 183 242 236 242 236 242> 208 116<148 283 148 397 148 283> 402 114<236 240 182 236>
VStem: 26 122<141 208 324 369> 283 114<324 369 369 378>
LayerCount: 2
Back
Fore
SplineSet
240 402 m 258
 236 402 l 257
 236 516 l 257
 242 516 l 258
 312 516 397 450 397 378 c 258
 397 208 l 257
 148 208 l 257
 148 141 l 258
 148 138 155 109 183 108 c 258
 188 108 l 257
 188 0 l 257
 183 0 l 258
 79 0 26 96 26 141 c 258
 26 377 l 257
 27 422 80 516 182 516 c 258
 187 516 l 257
 187 400 l 257
 184 400 l 258
 155 400 148 380 148 369 c 258
 148 324 l 257
 283 324 l 257
 283 369 l 258
 283 396 260 402 240 402 c 258
236 0 m 257
 236 111 l 257
 242 111 l 258
 273 113 294 132 298 153 c 258
 299 157 l 257
 398 120 l 257
 397 118 l 256
 382 54 312 0 242 0 c 258
 236 0 l 257
EndSplineSet
Validated: 1
EndChar

StartChar: eight
Encoding: 24 56 113
GlifName: eight
Width: 486
VWidth: 0
GlyphClass: 2
Flags: W
HStem: 0 125<190 212 210 212 212 276 212 275> 571 127<179 214 179 272>
VStem: 26 128<183 226 183 234> 329 123<471.5 524> 332 128<183 226>
LayerCount: 2
Back
Fore
SplineSet
274 125 m 257xe8
 307 134 332 165 332 201 c 256xe8
 332 251 305 274 273 283 c 257
 273 413 l 257
 309 424 329 446 329 497 c 256
 329 551 290 568 272 571 c 257
 272 698 l 257
 342 698 452 619 452 499 c 256xf0
 452 415 409 352 395 349 c 257
 423 330 460 269 460 199 c 256
 460 53 316 0 276 0 c 258
 275 0 l 257
 274 125 l 257xe8
212 125 m 257
 211 0 l 257
 210 0 l 258
 170 0 26 53 26 199 c 256
 26 269 63 330 91 349 c 257
 77 352 33 415 33 499 c 256
 33 619 144 698 214 698 c 257
 214 571 l 257
 196 568 157 551 157 497 c 256
 157 446 177 424 213 413 c 257
 213 283 l 257
 181 274 154 251 154 201 c 256
 154 165 179 134 212 125 c 257
EndSplineSet
Validated: 1
EndChar

StartChar: emdash
Encoding: 207 8212 114
GlifName: emdash
Width: 906
VWidth: 0
GlyphClass: 2
Flags: W
HStem: 230 127<26 880 26 880>
LayerCount: 2
Back
Fore
SplineSet
880 357 m 257
 880 230 l 257
 26 230 l 257
 26 357 l 257
 880 357 l 257
EndSplineSet
Validated: 1
EndChar

StartChar: endash
Encoding: 208 8211 115
GlifName: endash
Width: 532
VWidth: 0
GlyphClass: 2
Flags: W
HStem: 230 127<26 506 26 506>
LayerCount: 2
Back
Fore
SplineSet
506 357 m 257
 506 230 l 257
 26 230 l 257
 26 357 l 257
 506 357 l 257
EndSplineSet
Validated: 1
EndChar

StartChar: equal
Encoding: 29 61 116
GlifName: equal
Width: 418
VWidth: 0
GlyphClass: 2
Flags: W
HStem: 131 127<50 368 50 368> 325 127<50 368 50 368>
VStem: 50 318<131 258 131 258 325 452 131 452>
LayerCount: 2
Back
Fore
SplineSet
368 258 m 257
 368 131 l 257
 50 131 l 257
 50 258 l 257
 368 258 l 257
368 452 m 257
 368 325 l 257
 50 325 l 257
 50 452 l 257
 368 452 l 257
EndSplineSet
Validated: 1
EndChar

StartChar: eth
Encoding: 175 240 117
GlifName: eth
Width: 420
VWidth: 0
GlyphClass: 2
Flags: W
HStem: -1 118<132 192 186 192 233 239 186 233> 398 118<169.5 192 186 192 233 239 186 233>
VStem: 28 120<144.5 154 154 363> 275 117<152 363 363 364 364 371.5>
LayerCount: 2
Back
Fore
SplineSet
267 558 m 257
 210 541 l 257
 192 598 l 257
 242 614 l 257
 230 627 214 637 192 647 c 257
 192 714 l 257
 250 703 297 679 330 641 c 257
 380 657 l 257
 398 599 l 257
 364 588 l 257
 383 548 392 500 392 442 c 258
 392 376 l 257
 392 364 l 257
 392 141 l 258
 392 96 343 -1 239 -1 c 258
 233 -1 l 257
 233 117 l 257
 239 117 l 258
 270 118 275 141 275 152 c 258
 275 363 l 258
 275 380 269 398 239 398 c 258
 233 398 l 257
 233 516 l 257
 239 516 l 258
 251 516 262 515 273 512 c 257
 271 530 270 545 267 558 c 257
28 376 m 258
 28 421 79 516 186 516 c 258
 192 516 l 257
 192 398 l 257
 186 398 l 258
 153 398 148 373 148 363 c 258
 148 154 l 258
 148 135 156 117 186 117 c 258
 192 117 l 257
 192 -1 l 257
 186 -1 l 258
 78 -1 28 97 28 141 c 258
 28 376 l 258
EndSplineSet
Validated: 1
EndChar

StartChar: exclam
Encoding: 1 33 118
GlifName: exclam
Width: 329
VWidth: 0
GlyphClass: 2
Flags: W
LayerCount: 2
Back
Fore
SplineSet
88 53 m 256
 88 95 121 129 163 129 c 256
 205 129 238 95 238 53 c 256
 238 11 205 -22 163 -22 c 256
 121 -22 88 11 88 53 c 256
100 166 m 257
 100 700 l 257
 229 700 l 257
 229 166 l 257
 100 166 l 257
EndSplineSet
Validated: 1
EndChar

StartChar: exclamdown
Encoding: 96 161 119
GlifName: exclamdown
Width: 210
VWidth: 0
GlyphClass: 2
Flags: W
HStem: 0 21<38 167 38 38> 0 21<38 167 38 38> 571 151<80 122>
VStem: 26 150<626 668> 38 129<0 534 0 534>
LayerCount: 2
Back
Fore
SplineSet
26 647 m 256x30
 26 689 59 722 101 722 c 256
 143 722 176 689 176 647 c 256
 176 605 143 571 101 571 c 256
 59 571 26 605 26 647 c 256x30
38 534 m 257xa8
 167 534 l 257
 167 0 l 257
 38 0 l 257
 38 534 l 257xa8
EndSplineSet
Validated: 1
EndChar

StartChar: f
Encoding: 70 102 120
GlifName: f
Width: 304
VWidth: 0
GlyphClass: 2
Flags: W
HStem: 0 21<89 211 89 89> 0 21<89 211 89 89> 400 116<26 89 26 89> 579 117<244 277 244 244>
VStem: 89 122<0 400 0 400 516 552>
LayerCount: 2
Back
Fore
SplineSet
89 552 m 258xb8
 89 597 140 695 243 696 c 258
 304 696 l 257
 277 579 l 257
 244 579 l 257
 216 578 211 555 211 552 c 258
 211 515 l 257
 277 516 l 257
 277 400 l 257
 211 400 l 257
 211 0 l 257
 89 0 l 257
 89 400 l 257
 26 400 l 257
 26 516 l 257
 89 516 l 257
 89 552 l 258xb8
EndSplineSet
Validated: 1
EndChar

StartChar: fi
Encoding: 209 64257 121
GlifName: fi
Width: 494
VWidth: 0
GlyphClass: 2
Flags: W
HStem: 0 21<89 211 89 89 335 457 335 335> 0 21<89 211 89 89 335 457 335 335> 400 116<26 89 26 89 211 335> 558 145<375 415> 579 117<244 277 244 244>
VStem: 89 122<0 400 0 400 516 552> 322 146<610.5 650> 335 122<0 400 400 400>
LayerCount: 2
Back
Fore
SplineSet
468 630 m 256x36
 468 591 435 558 395 558 c 256
 355 558 322 591 322 630 c 256
 322 670 355 703 395 703 c 256
 435 703 468 670 468 630 c 256x36
89 552 m 258
 89 597 140 695 243 696 c 258
 304 696 l 257
 277 579 l 257
 244 579 l 258
 216 578 211 555 211 552 c 258
 211 516 l 257
 457 516 l 257
 457 0 l 257
 335 0 l 257
 335 400 l 257
 211 400 l 257
 211 0 l 257
 89 0 l 257xad
 89 400 l 257
 26 400 l 257
 26 516 l 257
 89 516 l 257
 89 552 l 258
EndSplineSet
Validated: 1
EndChar

StartChar: five
Encoding: 21 53 122
GlifName: five
Width: 492
VWidth: 0
GlyphClass: 2
Flags: W
HStem: 0 126<162 204 204 258> 324 123<195.5 204 195.5 258> 573 127<171 171>
VStem: 338 128<199 252>
LayerCount: 2
Back
Fore
SplineSet
409 574 m 257
 171 573 l 257
 159 442 l 257
 172 445 187 447 204 447 c 257
 204 324 l 257
 170 321 148 301 136 286 c 257
 26 354 l 257
 55 700 l 257
 409 700 l 257
 409 574 l 257
258 447 m 257
 401 444 466 333 466 223 c 256
 466 82 363 2 258 0 c 257
 258 126 l 257
 307 135 338 174 338 224 c 256
 338 280 296 319 258 324 c 257
 258 447 l 257
131 175 m 257
 147 144 177 131 204 126 c 257
 204 0 l 257
 120 0 60 46 28 107 c 257
 131 175 l 257
EndSplineSet
Validated: 1
EndChar

StartChar: fl
Encoding: 210 64258 123
GlifName: fl
Width: 483
VWidth: 0
GlyphClass: 2
Flags: W
HStem: 0 21<89 211 89 89 331 457 331 331> 0 21<89 211 89 89 331 457 331 331> 400 116<26 89 26 89> 579 117<244 331 244 244>
VStem: 89 122<0 400 0 400 516 552> 331 126<0 579 579 579>
LayerCount: 2
Back
Fore
SplineSet
457 0 m 257xbc
 331 0 l 257
 331 579 l 257
 244 579 l 258
 216 578 211 555 211 552 c 258
 211 515 l 257
 277 516 l 257
 277 400 l 257
 211 400 l 257
 211 0 l 257
 89 0 l 257
 89 400 l 257
 26 400 l 257
 26 516 l 257
 89 516 l 257
 89 552 l 258
 89 597 140 695 243 696 c 258
 457 696 l 257
 457 0 l 257xbc
EndSplineSet
Validated: 1
EndChar

StartChar: florin
Encoding: 211 402 124
GlifName: florin
Width: 382
VWidth: 0
GlyphClass: 2
Flags: W
HStem: -168 105<53 108 53 109 26 108> 400 116<78 141 78 141> 579 117<296 329 296 296>
VStem: 141 122<-36 -30 -30 0 0 7 7 400 516 552>
LayerCount: 2
Back
Fore
SplineSet
141 552 m 258
 141 597 192 695 295 696 c 258
 356 696 l 257
 329 579 l 257
 296 579 l 258
 268 578 263 555 263 552 c 258
 263 515 l 257
 329 516 l 257
 329 400 l 257
 263 400 l 257
 263 7 l 257
 263 0 l 257
 263 -30 l 258
 263 -92 221 -168 109 -168 c 258
 26 -168 l 257
 53 -63 l 257
 108 -63 l 258
 136 -62 141 -39 141 -36 c 258
 141 0 l 257
 141 7 l 257
 141 400 l 257
 78 400 l 257
 78 516 l 257
 141 516 l 257
 141 552 l 258
EndSplineSet
Validated: 1
EndChar

StartChar: four
Encoding: 20 52 125
GlifName: four
Width: 483
VWidth: 0
GlyphClass: 2
Flags: W
HStem: 0 21<273 403 273 273> 0 21<273 403 273 273> 145 127<170 216 26 26 403 457> 681 20<273 403 403 403>
VStem: 26 190<145 272 145 272> 273 184<145 272 145 701> 273 130<0 145 0 272 272 701>
LayerCount: 2
Back
Fore
SplineSet
216 272 m 257x38
 216 145 l 257
 26 145 l 257
 26 272 l 257
 216 598 l 257
 216 351 l 257
 170 272 l 257
 216 272 l 257x38
457 272 m 257xbc
 457 145 l 257xbc
 403 145 l 257
 403 0 l 257
 273 0 l 257xba
 273 701 l 257xbc
 403 701 l 257
 403 272 l 257xba
 457 272 l 257xbc
EndSplineSet
Validated: 1
EndChar

StartChar: fraction
Encoding: 212 8260 126
GlifName: fraction
Width: 560
VWidth: 0
GlyphClass: 2
Flags: W
HStem: 682 20<458 534 534 534>
LayerCount: 2
Back
Fore
SplineSet
26 -2 m 257
 458 702 l 257
 534 702 l 257
 109 -2 l 257
 26 -2 l 257
EndSplineSet
Validated: 1
EndChar

StartChar: g
Encoding: 71 103 127
GlifName: g
Width: 415
VWidth: 0
GlyphClass: 2
Flags: W
HStem: -181 112<54 234 54 236 26 234> -1 113<136.5 192 189 192 189 234 189 231> 403 113<173 192 189 192 231 234 189 231>
VStem: 35 115<139 140 140 375> 231 158<-1 109 109 109 403 516> 272 117<-40 3 3 3 139 374 374 375.5 511 516>
LayerCount: 2
Back
Fore
SplineSet
236 -181 m 257xf4
 26 -181 l 257
 54 -69 l 257
 234 -69 l 257
 265 -68 272 -43 272 -40 c 258
 272 3 l 257xf4
 260 0 248 -1 234 -1 c 258
 231 -1 l 257
 231 109 l 257xf8
 234 109 l 258
 265 110 272 136 272 139 c 258
 272 374 l 258xf4
 272 377 265 403 234 403 c 258
 231 403 l 257
 231 516 l 257xf8
 234 516 l 258
 247 516 261 514 272 511 c 257
 272 516 l 257xf4
 389 516 l 257xf8
 389 -40 l 258
 389 -83 339 -180 236 -181 c 257xf4
189 516 m 258
 192 516 l 257
 192 403 l 257
 189 403 l 258
 157 403 150 378 150 375 c 258
 150 140 l 258
 150 137 158 112 189 112 c 258
 192 112 l 257
 192 -1 l 257
 189 -1 l 258
 84 -1 35 96 35 139 c 258
 35 378 l 257
 36 422 85 516 189 516 c 258
EndSplineSet
Validated: 1
EndChar

StartChar: germandbls
Encoding: 158 223 128
GlifName: germandbls
Width: 522
VWidth: 0
GlyphClass: 2
Flags: W
HStem: 0 109<26 327 199 327 199 327> 586 119<199.5 242>
VStem: 26 129<0 457 457 457> 191 114<355 364.5 355 408.5> 294 112<507 518 405 519 405 545.5> 379 117<136.5 175.5>
LayerCount: 2
Back
Fore
SplineSet
155 0 m 257xe8
 26 0 l 257
 26 457 l 258
 27 531 16 705 226 705 c 256
 396 705 406 575 406 518 c 258
 406 405 l 257xe8
 342 406 l 257
 308 400 305 368 305 361 c 256
 305 349 310 326 391 299 c 256
 441 282 496 243 496 160 c 256
 496 57 420 0 327 0 c 258
 199 0 l 257
 199 109 l 257
 327 109 l 258
 342 110 379 120 379 153 c 256
 379 198 331 200 276 228 c 256
 228 252 191 287 191 371 c 256xf4
 191 446 244 489 294 507 c 257
 294 519 l 258
 294 572 259 586 225 586 c 256
 174 586 155 554 155 498 c 258
 155 0 l 257xe8
EndSplineSet
Validated: 1
EndChar

StartChar: grave
Encoding: 64 96 129
GlifName: grave
Width: 263
VWidth: 0
GlyphClass: 2
Flags: W
HStem: 605 152<122 122 122 176 49 213>
VStem: 49 164<605 757>
LayerCount: 2
Back
Fore
SplineSet
122 605 m 257
 49 757 l 257
 176 757 l 257
 213 605 l 257
 122 605 l 257
EndSplineSet
Validated: 1
EndChar

StartChar: greater
Encoding: 30 62 130
GlifName: greater
Width: 414
VWidth: 0
GlyphClass: 2
Flags: W
LayerCount: 2
Back
Fore
SplineSet
30 500 m 257
 384 322 l 257
 384 258 l 257
 30 79 l 257
 30 206 l 257
 206 292 l 257
 30 370 l 257
 30 500 l 257
EndSplineSet
Validated: 1
EndChar

StartChar: guillemotleft
Encoding: 106 171 131
GlifName: guillemotleft
Width: 475
VWidth: 0
GlyphClass: 2
Flags: W
LayerCount: 2
Back
Fore
SplineSet
238 477 m 257
 238 352 l 257
 149 292 l 257
 238 224 l 257
 238 102 l 257
 27 259 l 257
 27 321 l 257
 238 477 l 257
449 477 m 257
 449 352 l 257
 360 292 l 257
 449 224 l 257
 449 102 l 257
 238 259 l 257
 238 321 l 257
 449 477 l 257
EndSplineSet
Validated: 1
EndChar

StartChar: guillemotright
Encoding: 122 187 132
GlifName: guillemotright
Width: 414
VWidth: 0
GlyphClass: 2
Flags: W
LayerCount: 2
Back
Fore
SplineSet
26 477 m 257
 237 321 l 257
 237 259 l 257
 26 102 l 257
 26 224 l 257
 115 292 l 257
 26 352 l 257
 26 477 l 257
237 477 m 257
 448 321 l 257
 448 259 l 257
 237 102 l 257
 237 224 l 257
 326 292 l 257
 237 352 l 257
 237 477 l 257
EndSplineSet
Validated: 1
EndChar

StartChar: guilsinglleft
Encoding: 213 8249 133
GlifName: guilsinglleft
Width: 338
VWidth: 0
GlyphClass: 2
Flags: W
VStem: 26 286<79 292>
LayerCount: 2
Back
Fore
SplineSet
157 500 m 257
 312 500 l 257
 181 292 l 257
 312 79 l 257
 157 79 l 257
 26 292 l 257
 157 500 l 257
EndSplineSet
Validated: 1
EndChar

StartChar: guilsinglright
Encoding: 214 8250 134
GlifName: guilsinglright
Width: 338
VWidth: 0
GlyphClass: 2
Flags: W
VStem: 26 286<79 292 292 500>
LayerCount: 2
Back
Fore
SplineSet
181 500 m 257
 312 292 l 257
 181 79 l 257
 26 79 l 257
 157 292 l 257
 26 500 l 257
 181 500 l 257
EndSplineSet
Validated: 1
EndChar

StartChar: h
Encoding: 72 104 135
GlifName: h
Width: 421
VWidth: 0
GlyphClass: 2
Flags: W
HStem: 1 21<30 145 30 30 281 281 281 395> 1 21<30 145 30 30 281 281 281 395> 399 112<190 193 190 193 190 238 238 241> 678 20<30 144 144 144>
VStem: 30 163<399 511 399 698> 30 115<1 365> 281 114<1 365 365 367>
LayerCount: 2
Back
Fore
SplineSet
145 1 m 257xb6
 30 1 l 257xb6
 30 698 l 257
 144 698 l 257
 144 505 l 257
 147 506 l 258
 159 509 176 511 190 511 c 258
 193 511 l 257
 193 399 l 257xba
 190 399 l 258
 158 396 145 370 145 365 c 258
 145 1 l 257xb6
238 511 m 257
 241 511 l 256
 338 507 395 444 395 374 c 258
 395 1 l 257
 281 1 l 257
 281 365 l 258
 281 369 275 396 241 399 c 258
 238 399 l 257
 238 511 l 257
EndSplineSet
Validated: 1
EndChar

StartChar: hungarumlaut
Encoding: 215 733 136
GlifName: hungarumlaut
Width: 336
VWidth: 0
GlyphClass: 2
Flags: W
HStem: 605 152<55 109 26 167 55 169 198 252>
VStem: 26 284<605 757>
LayerCount: 2
Back
Fore
SplineSet
109 605 m 257
 26 605 l 257
 55 757 l 257
 167 757 l 257
 109 605 l 257
252 605 m 257
 169 605 l 257
 198 757 l 257
 310 757 l 257
 252 605 l 257
EndSplineSet
Validated: 1
EndChar

StartChar: hyphen
Encoding: 13 45 137
GlifName: hyphen
Width: 416
VWidth: 0
GlyphClass: 2
Flags: W
LayerCount: 2
Back
Fore
SplineSet
366 357 m 257
 366 230 l 257
 50 230 l 257
 50 357 l 257
 366 357 l 257
EndSplineSet
Validated: 1
EndChar

StartChar: i
Encoding: 73 105 138
GlifName: i
Width: 199
VWidth: 0
GlyphClass: 2
Flags: W
HStem: 0 21<39 161 39 39> 0 21<39 161 39 39> 496 20<39 161 161 161> 558 145<79 119>
VStem: 26 146<610.5 650> 39 122<0 516>
LayerCount: 2
Back
Fore
SplineSet
172 630 m 256x38
 172 591 139 558 99 558 c 256
 59 558 26 591 26 630 c 256
 26 670 59 703 99 703 c 256
 139 703 172 670 172 630 c 256x38
161 0 m 257xb4
 39 0 l 257
 39 516 l 257
 161 516 l 257
 161 0 l 257xb4
EndSplineSet
Validated: 1
EndChar

StartChar: iacute
Encoding: 172 237 139
GlifName: iacute
Width: 199
VWidth: 0
GlyphClass: 2
Flags: W
HStem: 0 21<39 161 39 39> 0 21<39 161 39 39> 496 20<39 161 161 161>
VStem: 39 122<0 516>
LayerCount: 2
Back
Fore
SplineSet
161 0 m 257xb0
 39 0 l 257
 39 516 l 257
 161 516 l 257
 161 0 l 257xb0
144 577 m 257
 54 577 l 257
 90 729 l 257
 218 729 l 257
 144 577 l 257
EndSplineSet
Validated: 1
EndChar

StartChar: idieresis
Encoding: 174 239 141
GlifName: idieresis
Width: 199
VWidth: 0
GlyphClass: 2
Flags: W
HStem: 0 21<39 161 39 39> 0 21<39 161 39 39> 496 20<39 161 161 161> 576 151<-7 35 163 205>
VStem: -61 150<630 672> 39 122<0 516> 109 150<630 672>
LayerCount: 2
Back
Fore
SplineSet
161 0 m 257xb4
 39 0 l 257
 39 516 l 257
 161 516 l 257
 161 0 l 257xb4
109 651 m 256x32
 109 693 142 727 184 727 c 256
 226 727 259 693 259 651 c 256
 259 609 226 576 184 576 c 256
 142 576 109 609 109 651 c 256x32
-61 651 m 256x38
 -61 693 -28 727 14 727 c 256
 56 727 89 693 89 651 c 256
 89 609 56 576 14 576 c 256
 -28 576 -61 609 -61 651 c 256x38
EndSplineSet
Validated: 1
EndChar

StartChar: igrave
Encoding: 171 236 142
GlifName: igrave
Width: 199
VWidth: 0
GlyphClass: 2
Flags: W
HStem: 0 21<39 161 39 39> 0 21<39 161 39 39> 496 20<39 161 161 161>
VStem: 39 122<0 516>
LayerCount: 2
Back
Fore
SplineSet
161 0 m 257xb0
 39 0 l 257
 39 516 l 257
 161 516 l 257
 161 0 l 257xb0
54 577 m 257
 -20 729 l 257
 108 729 l 257
 144 577 l 257
 54 577 l 257
EndSplineSet
Validated: 1
EndChar

StartChar: j
Encoding: 74 106 143
GlifName: j
Width: 194
VWidth: 0
GlyphClass: 2
Flags: W
HStem: -181 117<-23 4 -23 7 -50 4> 496 20<37 159 159 159> 556 146<77 117>
VStem: 24 146<608 648> 37 122<-38 516>
LayerCount: 2
Back
Fore
SplineSet
159 -38 m 258xe8
 159 -85 109 -181 7 -181 c 258
 -50 -181 l 257
 -23 -64 l 257
 4 -64 l 257
 32 -63 37 -40 37 -38 c 258
 37 516 l 257
 159 516 l 257
 159 -38 l 258xe8
170 628 m 256xf0
 170 588 137 556 97 556 c 256
 57 556 24 588 24 628 c 256
 24 668 57 702 97 702 c 256
 137 702 170 668 170 628 c 256xf0
EndSplineSet
Validated: 1
EndChar

StartChar: k
Encoding: 75 107 144
GlifName: k
Width: 452
VWidth: 0
GlyphClass: 2
Flags: W
HStem: 0 21<30 155 30 30 296 428 296 296> 0 21<30 155 30 30 296 428 296 296> 494 20<295 428 428 428> 678 20<30 155 155 155>
VStem: 30 125<0 698>
LayerCount: 2
Back
Fore
SplineSet
155 0 m 257xb8
 30 0 l 257
 30 698 l 257
 155 698 l 257
 155 0 l 257xb8
296 0 m 257
 183 257 l 257
 295 514 l 257
 428 514 l 257
 313 257 l 257
 428 0 l 257
 296 0 l 257
EndSplineSet
Validated: 1
EndChar

StartChar: l
Encoding: 76 108 145
GlifName: l
Width: 184
VWidth: 0
GlyphClass: 2
Flags: W
HStem: 0 21<30 161 30 30> 0 21<30 161 30 30> 678 20<30 161 161 161>
VStem: 30 131<0 698>
LayerCount: 2
Back
Fore
SplineSet
161 0 m 257xb0
 30 0 l 257
 30 698 l 257
 161 698 l 257
 161 0 l 257xb0
EndSplineSet
Validated: 1
EndChar

StartChar: less
Encoding: 28 60 146
GlifName: less
Width: 414
VWidth: 0
GlyphClass: 2
Flags: W
LayerCount: 2
Back
Fore
SplineSet
384 500 m 257
 384 370 l 257
 208 292 l 257
 384 206 l 257
 384 79 l 257
 30 258 l 257
 30 322 l 257
 384 500 l 257
EndSplineSet
Validated: 1
EndChar

StartChar: logicalnot
Encoding: 107 172 147
GlifName: logicalnot
Width: 502
VWidth: 0
GlyphClass: 2
Flags: W
HStem: 327 115<26 358 26 476>
VStem: 358 118<208 327 327 327>
LayerCount: 2
Back
Fore
SplineSet
476 208 m 257
 358 208 l 257
 358 327 l 257
 26 327 l 257
 26 442 l 257
 476 442 l 257
 476 208 l 257
EndSplineSet
Validated: 1
EndChar

StartChar: lslash
Encoding: 216 322 148
GlifName: lslash
Width: 424
VWidth: 0
GlyphClass: 2
Flags: W
HStem: 0 21 678 20
VStem: 147 131
LayerCount: 2
Back
Fore
SplineSet
326 536 m 257
 398 443 l 257
 98 209 l 257
 26 302 l 257
 326 536 l 257
EndSplineSet
Refer: 145 108 N 1 0 0 1 117 0 2
Validated: 5
EndChar

StartChar: m
Encoding: 77 109 149
GlifName: m
Width: 684
VWidth: 0
GlyphClass: 2
Flags: W
HStem: 0 21<30 154 30 30 280 404 280 280 530 530 530 654> 0 21<30 154 30 30 280 404 280 280 530 530 530 654> 398 121<174 195 189 195 189 237 237 243 441 447 488 494>
VStem: 30 124<0 372 0 377 0 401> 280 124<0 372 0 373.5> 530 124<0 372 372 373.5>
CounterMasks: 1 1c
LayerCount: 2
Back
Fore
SplineSet
154 372 m 257xbc
 154 0 l 257
 30 0 l 257
 30 377 l 258
 30 425 84 519 189 519 c 258
 195 519 l 257
 195 398 l 257
 189 398 l 258
 159 398 154 374 154 372 c 257xbc
530 372 m 257
 530 375 524 398 494 398 c 258
 488 398 l 257
 488 519 l 257
 494 519 l 258
 600 519 654 422 654 377 c 258
 654 0 l 257
 530 0 l 257
 530 372 l 257
280 0 m 257
 280 372 l 258
 280 375 273 398 243 398 c 258
 237 398 l 257
 237 519 l 257
 243 519 l 258
 285 519 317 505 342 486 c 257
 367 506 399 519 441 519 c 258
 447 519 l 257
 447 398 l 257
 441 398 l 258
 410 398 404 374 404 372 c 257
 404 0 l 257
 280 0 l 257
EndSplineSet
Validated: 1
EndChar

StartChar: mu
Encoding: 116 181 152
GlifName: mu
Width: 468
VWidth: 0
GlyphClass: 2
Flags: W
HStem: 0 21<26 150 26 26> 0 21<26 150 26 26> 179 121<180.5 192 187 192 187 234 234 239> 678 20<26 150 150 150 276 276 400 400> 680 20<276 400 400 400>
VStem: 26 166<179 300 179 321 179 356 179 698> 26 124<0 183 0 321 324.5 326 326 356 356 698> 276 124<326.5 328 328 698 698 700>
LayerCount: 2
Back
Fore
SplineSet
26 698 m 257xb5
 150 698 l 257
 150 356 l 257
 150 326 l 258xb3
 150 323 156 300 187 300 c 258
 192 300 l 257
 192 179 l 257xb5
 187 179 l 258
 174 179 162 180 150 183 c 257
 150 0 l 257
 26 0 l 257xb3
 26 321 l 257
 26 356 l 257
 26 698 l 257xb5
276 700 m 257x29
 400 700 l 257x29
 400 698 l 257
 400 328 l 258
 400 325 406 302 437 302 c 258
 442 302 l 257
 442 181 l 257
 437 181 l 258
 397 181 364 194 339 213 c 257
 313 193 280 179 239 179 c 258
 234 179 l 257
 234 300 l 257
 239 300 l 258
 270 300 276 324 276 326 c 258
 276 698 l 257x31
 276 700 l 257x29
EndSplineSet
Validated: 1
EndChar

StartChar: multiply
Encoding: 150 215 153
GlifName: multiply
Width: 697
VWidth: 0
GlyphClass: 2
Flags: W
LayerCount: 2
Back
Fore
SplineSet
260 417 m 257
 100 578 l 257
 189 667 l 257
 349 507 l 257
 508 666 l 257
 597 577 l 257
 438 418 l 257
 597 259 l 257
 507 170 l 257
 349 328 l 257
 190 168 l 257
 101 257 l 257
 260 417 l 257
EndSplineSet
Validated: 1
EndChar

StartChar: n
Encoding: 78 110 154
GlifName: n
Width: 434
VWidth: 0
GlyphClass: 2
Flags: W
HStem: 0 21<30 154 30 30 280 404 280 280> 0 21<30 154 30 30 280 404 280 280> 398 121<175.5 196 191 196 238 243 191 238>
VStem: 30 124<0 372 0 377 0 401> 280 124<0 372 372 373.5>
LayerCount: 2
Back
Fore
SplineSet
280 372 m 257xb8
 280 375 273 398 243 398 c 258
 238 398 l 257
 238 519 l 257
 243 519 l 258
 350 519 404 422 404 377 c 258
 404 0 l 257
 280 0 l 257
 280 372 l 257xb8
154 372 m 257
 154 0 l 257
 30 0 l 257
 30 377 l 258
 30 425 84 519 191 519 c 258
 196 519 l 257
 196 398 l 257
 191 398 l 258
 160 398 154 374 154 372 c 257
EndSplineSet
Validated: 1
EndChar

StartChar: nine
Encoding: 25 57 155
GlifName: nine
Width: 504
VWidth: 0
GlyphClass: 2
Flags: W
HStem: 1 126<179 218> 274 118<156 273 272 273 272 287> 576 124<218 218>
VStem: 26 119<450 515.5 450 547.5> 349 129<282.5 300>
LayerCount: 2
Back
Fore
SplineSet
218 274 m 257
 94 274 26 359 26 485 c 256
 26 610 117 699 218 700 c 257
 218 576 l 257
 183 572 145 540 145 491 c 256
 145 409 198 395 217 390 c 257
 218 274 l 257
142 178 m 257
 164 150 175 132 218 127 c 257
 218 1 l 257
 140 1 76 51 43 115 c 257
 142 178 l 257
272 2 m 257
 272 127 l 257
 344 142 349 248 349 300 c 257
 330 285 302 274 272 274 c 257
 272 392 l 257
 273 392 l 256
 293 397 340 413 340 490 c 256
 340 529 310 571 272 575 c 257
 272 700 l 257
 447 700 478 513 478 341 c 256
 478 224 444 6 272 2 c 257
EndSplineSet
Validated: 1
EndChar

StartChar: numbersign
Encoding: 3 35 157
GlifName: numbersign
Width: 888
VWidth: 0
GlyphClass: 2
Flags: W
HStem: 176 121<126 241 101 263 126 362 126 383 126 467> 404 121<157 281 135 303 157 402 157 507>
LayerCount: 2
Back
Fore
SplineSet
335 22 m 257
 214 22 l 257
 241 176 l 257
 101 176 l 257
 126 297 l 257
 263 297 l 257
 281 404 l 257
 135 404 l 257
 157 525 l 257
 303 525 l 257
 330 682 l 257
 451 682 l 257
 423 524 l 257
 529 524 l 257
 556 682 l 257
 677 682 l 257
 649 524 l 257
 787 524 l 257
 768 403 l 257
 628 404 l 257
 609 296 l 257
 752 296 l 257
 734 175 l 257
 588 176 l 257
 561 22 l 257
 441 22 l 257
 467 176 l 257
 362 176 l 257
 335 22 l 257
507 404 m 257
 402 404 l 257
 383 297 l 257
 489 296 l 257
 507 404 l 257
EndSplineSet
Validated: 1
EndChar

StartChar: o
Encoding: 79 111 158
GlifName: o
Width: 420
VWidth: 0
GlyphClass: 2
Flags: W
HStem: -1 118<132 192 186 192 186 233 233 239> 398 118<169.5 192 186 192 233 239 186 233>
VStem: 28 120<144.5 154 154 363> 275 117<152 363 363 371.5>
LayerCount: 2
Back
Fore
SplineSet
28 376 m 258
 28 421 79 516 186 516 c 258
 192 516 l 257
 192 398 l 257
 186 398 l 258
 153 398 148 373 148 363 c 257
 148 154 l 257
 148 135 156 117 186 117 c 258
 192 117 l 257
 192 -1 l 257
 186 -1 l 258
 78 -1 28 97 28 141 c 258
 28 376 l 258
233 398 m 257
 233 516 l 257
 239 516 l 258
 342 516 392 421 392 376 c 258
 392 141 l 258
 392 96 343 -1 239 -1 c 258
 233 -1 l 257
 233 117 l 257
 239 117 l 258
 270 118 275 141 275 152 c 257
 275 363 l 257
 275 380 269 398 239 398 c 258
 233 398 l 257
EndSplineSet
Validated: 1
EndChar

StartChar: oe
Encoding: 218 339 162
GlifName: oe
Width: 671
VWidth: 0
GlyphClass: 2
Flags: W
HStem: -1 114<130 190 184 190 231 237 184 231> 208 116<395 530 395 644 395 530> 398 118<167.5 190 184 190 231 237 184 231>
VStem: 26 120<141 142 142 373> 273 122<140 141 141 208 324 369> 530 114<324 369 369 378>
LayerCount: 2
Back
Fore
SplineSet
487 402 m 258
 483 402 l 257
 483 516 l 257
 489 516 l 258
 559 516 644 450 644 378 c 258
 644 208 l 257
 395 208 l 257
 395 141 l 258
 395 138 402 109 430 108 c 258
 489 108 l 258
 519 108 541 132 545 153 c 258
 546 157 l 257
 645 120 l 257
 644 118 l 257
 629 54 559 0 489 0 c 258
 430 0 l 258
 390 0 359 14 334 34 c 257
 310 14 277 -1 237 -1 c 258
 231 -1 l 257
 231 113 l 257
 237 113 l 258
 268 114 273 138 273 140 c 258
 273 372 l 258
 273 375 267 398 237 398 c 258
 231 398 l 257
 231 516 l 257
 237 516 l 258
 277 516 309 502 333 482 c 257
 358 502 390 516 429 516 c 258
 434 516 l 257
 434 400 l 257
 431 400 l 258
 402 400 395 380 395 369 c 258
 395 324 l 257
 530 324 l 257
 530 369 l 258
 530 396 507 402 487 402 c 258
26 376 m 258
 26 421 77 516 184 516 c 258
 190 516 l 257
 190 398 l 257
 184 398 l 258
 151 398 146 374 146 373 c 258
 146 142 l 258
 146 139 154 113 184 113 c 258
 190 113 l 257
 190 -1 l 257
 184 -1 l 258
 76 -1 26 97 26 141 c 258
 26 376 l 258
EndSplineSet
Validated: 1
EndChar

StartChar: one
Encoding: 17 49 164
GlifName: one
Width: 266
VWidth: 0
GlyphClass: 2
Flags: W
HStem: 0 21<106 236 106 106> 0 21<106 236 106 106> 679 20<106 236 236 236> 679 20<106 236 236 236>
VStem: 30 206<439 640 640 640> 106 130<0 499 499 499 0 699>
LayerCount: 2
Back
Fore
SplineSet
106 499 m 257xa4
 30 439 l 257
 30 640 l 257xa8
 106 699 l 257
 236 699 l 257
 236 0 l 257
 106 0 l 257
 106 499 l 257xa4
EndSplineSet
Validated: 1
EndChar

StartChar: onehalf
Encoding: 124 189 165
GlifName: onehalf
Width: 581
VWidth: 0
GlyphClass: 2
Flags: W
HStem: -1 66<346 551 346 551> 288 66<422 424 422 424 448 449 424 448> 682 20<114 182 182 182 458 534 534 534>
VStem: 76 106<567 671 671 671> 114 68<349 597 597 597 349 702> 490 64<235.5 251 224 263>
LayerCount: 2
Back
Fore
SplineSet
422 288 m 258xe4
 420 287 400 278 400 250 c 258
 400 248 l 257
 337 261 l 257
 338 263 l 257
 343 306 374 347 422 353 c 257
 424 354 l 257
 424 290 l 257
 424 288 l 257
 422 288 l 258xe4
26 -2 m 257
 458 702 l 257
 534 702 l 257
 109 -2 l 257
 26 -2 l 257
551 65 m 257
 551 -1 l 257
 346 -1 l 257
 346 65 l 257
 551 65 l 257
448 288 m 257
 448 354 l 257
 453 354 l 258
 531 354 553 290 554 251 c 256
 554 197 529 180 499 159 c 256
 464 134 445 119 428 93 c 257
 427 92 l 257
 348 92 l 257
 349 94 l 258
 379 156 429 184 444 196 c 256
 467 215 490 220 490 251 c 256
 490 275 476 287 449 288 c 258
 448 288 l 257
114 597 m 257xec
 76 567 l 257
 76 671 l 257xf4
 114 702 l 257
 182 702 l 257
 182 349 l 257
 114 349 l 257
 114 597 l 257xec
EndSplineSet
Validated: 1
EndChar

StartChar: onequarter
Encoding: 123 188 166
GlifName: onequarter
Width: 560
VWidth: 0
GlyphClass: 2
Flags: W
HStem: -1 21<393 461 393 393> -1 21<393 461 393 393> 71 66<346 368 270 270 461 488> 682 20<114 181 181 181 458 534 534 534>
VStem: 75 106<567 671 671 671> 113 68<349 597 597 597> 270 98<71 137 71 137> 393 95<71 137 71 352> 393 68<-1 71 -1 137 137 352>
LayerCount: 2
Back
Fore
SplineSet
113 597 m 257x36
 75 567 l 257
 75 671 l 257x3a
 114 702 l 257
 181 702 l 257
 181 349 l 257
 113 349 l 257
 113 597 l 257x36
488 137 m 257xb3
 488 71 l 257xb3
 461 71 l 257
 461 -1 l 257
 393 -1 l 257xb280
 393 352 l 257xb3
 461 352 l 257
 461 137 l 257xb280
 488 137 l 257xb3
368 137 m 257
 368 71 l 257
 270 71 l 257
 270 137 l 257
 368 305 l 257
 368 175 l 257
 346 137 l 257
 368 137 l 257
26 -2 m 257
 458 702 l 257
 534 702 l 257
 109 -2 l 257
 26 -2 l 257
EndSplineSet
Validated: 1
EndChar

StartChar: ordfeminine
Encoding: 105 170 167
GlifName: ordfeminine
Width: 227
VWidth: 0
GlyphClass: 2
Flags: W
LayerCount: 2
Back
Fore
SplineSet
26 430 m 257
 201 430 l 257
 201 362 l 257
 26 362 l 257
 26 430 l 257
96 649 m 258
 87 648 80 643 80 627 c 258
 80 623 l 257
 31 642 l 257
 31 644 l 258
 31 676 65 701 96 701 c 258
 99 701 l 257
 99 649 l 257
 96 649 l 258
116 701 m 257
 119 701 l 258
 165 701 188 659 188 639 c 258
 188 535 l 258
 188 533 189 523 197 523 c 258
 200 523 l 257
 200 471 l 257
 197 471 l 258
 181 471 168 476 159 483 c 257
 148 475 136 471 120 471 c 258
 117 471 l 257
 117 523 l 257
 120 523 l 258
 132 523 134 536 134 537 c 258
 134 569 l 257
 115 559 85 554 79 551 c 256
 77 550 75 547 75 543 c 258
 75 537 l 258
 75 529 78 523 89 523 c 258
 99 523 l 257
 99 471 l 257
 97 471 l 258
 54 471 28 494 28 520 c 258
 28 551 l 258
 28 566 31 575 50 586 c 256
 70 598 134 610 134 626 c 258
 134 631 l 258
 134 641 133 648 119 649 c 258
 116 650 l 257
 116 701 l 257
EndSplineSet
Validated: 1
EndChar

StartChar: ordmasculine
Encoding: 121 186 168
GlifName: ordmasculine
Width: 230
VWidth: 0
GlyphClass: 2
Flags: W
HStem: 361 71<26 204 26 204> 470 55<78.5 108 103 108 103 127 103 123> 645 55<96.5 108 103 108 103 123 123 127>
VStem: 32 56<533.5 534 534 635> 141 55<533 635 635 635.5>
LayerCount: 2
Back
Fore
SplineSet
26 432 m 257
 204 432 l 257
 204 361 l 257
 26 361 l 257
 26 432 l 257
123 645 m 257
 123 700 l 257
 127 700 l 258
 173 700 196 658 196 637 c 258
 196 533 l 258
 196 513 174 470 127 470 c 258
 123 470 l 257
 123 523 l 257
 127 523 l 258
 139 523 141 532 141 533 c 258
 141 635 l 258
 141 636 139 645 127 645 c 258
 123 645 l 257
32 637 m 258
 32 658 55 700 103 700 c 258
 108 700 l 257
 108 645 l 257
 103 645 l 258
 90 645 88 636 88 635 c 258
 88 534 l 258
 88 533 91 525 103 525 c 258
 108 525 l 257
 108 470 l 257
 103 470 l 258
 54 470 32 513 32 533 c 258
 32 637 l 258
EndSplineSet
Validated: 1
EndChar

StartChar: oslash
Encoding: 183 248 169
GlifName: oslash
Width: 498
VWidth: 0
GlyphClass: 2
Flags: W
HStem: -1 118<195 231 225 231 272 278 225 272> 398 118<208.5 231 225 231 225 272 272 278>
VStem: 67 120<253 363 253 376 253 398.5> 314 117<152 261 261 261>
LayerCount: 2
Back
Fore
SplineSet
445 490 m 257
 498 430 l 257
 431 369 l 257
 431 141 l 258
 431 96 382 -1 278 -1 c 258
 272 -1 l 257
 272 117 l 257
 278 117 l 258
 309 118 314 141 314 152 c 258
 314 261 l 257
 188 145 l 257
 190 130 200 117 225 117 c 258
 231 117 l 257
 231 -1 l 257
 225 -1 l 258
 165 -1 123 29 98 63 c 257
 53 22 l 257
 0 82 l 257
 67 143 l 257
 67 376 l 258
 67 421 118 516 225 516 c 258
 231 516 l 257
 231 398 l 257
 225 398 l 258
 192 398 187 373 187 363 c 258
 187 253 l 257
 314 370 l 257
 312 384 304 398 278 398 c 258
 272 398 l 257
 272 516 l 257
 278 516 l 258
 336 516 378 486 402 451 c 257
 445 490 l 257
EndSplineSet
Validated: 1
EndChar

StartChar: p
Encoding: 80 112 171
GlifName: p
Width: 422
VWidth: 0
GlyphClass: 2
Flags: W
HStem: 0 118<203 232 203 234> 398 118<196 228 30 196>
VStem: 30 125<-182 516 -182 516> 276 120<143 372 372 375>
LayerCount: 2
Back
Fore
SplineSet
232 0 m 258
 203 0 l 257
 203 118 l 257
 234 118 l 257
 271 119 276 134 276 143 c 258
 276 372 l 257
 276 385 258 398 228 398 c 258
 196 398 l 257
 196 516 l 257
 228 516 l 258
 335 516 396 431 396 375 c 258
 396 139 l 257
 396 86 345 0 232 0 c 258
30 516 m 257
 155 516 l 257
 155 -182 l 257
 30 -182 l 257
 30 516 l 257
EndSplineSet
Validated: 1
EndChar

StartChar: paragraph
Encoding: 117 182 172
GlifName: paragraph
Width: 444
VWidth: 0
GlyphClass: 2
Flags: W
LayerCount: 2
Back
Fore
SplineSet
278 705 m 257
 278 -5 l 257
 195 -5 l 257
 195 329 l 257
 91 329 26 403 26 517 c 256
 26 617 93 705 195 705 c 256
 223 705 250 705 278 705 c 257
418 705 m 257
 418 -5 l 257
 335 -5 l 257
 335 705 l 257
 418 705 l 257
EndSplineSet
Validated: 1
EndChar

StartChar: parenleft
Encoding: 8 40 173
GlifName: parenleft
Width: 262
VWidth: 0
GlyphClass: 2
Flags: W
LayerCount: 2
Back
Fore
SplineSet
212 735 m 257
 213 648 l 257
 174 625 154 593 153 521 c 258
 153 208 l 258
 153 206 153 204 153 202 c 256
 153 104 178 73 213 51 c 257
 213 -37 l 257
 71 22 50 93 50 189 c 257
 50 510 l 257
 50 652 113 696 212 735 c 257
EndSplineSet
Validated: 1
EndChar

StartChar: parenright
Encoding: 9 41 174
GlifName: parenright
Width: 330
VWidth: 0
GlyphClass: 2
Flags: W
VStem: 161 119<202 208 208 510>
LayerCount: 2
Back
Fore
SplineSet
101 746 m 257
 209 706 280 650 280 510 c 257
 280 189 l 257
 280 93 243 9 101 -47 c 257
 101 51 l 257
 136 73 161 104 161 202 c 256
 161 204 161 206 161 208 c 258
 161 521 l 258
 160 593 139 626 100 649 c 257
 101 746 l 257
EndSplineSet
Validated: 1
EndChar

StartChar: period
Encoding: 14 46 175
GlifName: period
Width: 250
VWidth: 0
GlyphClass: 2
Flags: W
LayerCount: 2
Back
Fore
SplineSet
50 53 m 256
 50 95 83 129 125 129 c 256
 167 129 200 95 200 53 c 256
 200 11 167 -22 125 -22 c 256
 83 -22 50 11 50 53 c 256
EndSplineSet
Validated: 1
EndChar

StartChar: perthousand
Encoding: 219 8240 177
GlifName: perthousand
Width: 897
VWidth: 0
GlyphClass: 2
Flags: W
HStem: 0 65<487 489 488 489 488 489 488 517 517 518 488 519 746 747 775 776> 287 65<488 490 488 490 516 518 488 516 746 748 774 776> 680 20<497 570 570 570>
VStem: 26 68<499 522 522 551 499 592> 178 68<522 551 551 567> 393 68<148 171 171 201 148 242> 546 68<171 201 201 217> 651 68<148 171 171 201 148 242> 804 68<171 201 201 217>
LayerCount: 2
Back
Fore
SplineSet
67 0 m 257
 497 700 l 257
 570 700 l 257
 147 0 l 257
 67 0 l 257
151 702 m 257
 197 699 246 657 246 528 c 256
 246 378 186 353 152 351 c 257
 150 350 l 257
 150 415 l 257
 151 415 l 257
 177 421 178 476 178 522 c 258
 178 551 l 258
 178 583 176 631 151 637 c 257
 150 637 l 257
 150 703 l 257
 151 702 l 257
122 703 m 257
 122 637 l 257
 121 637 l 257
 96 631 94 583 94 551 c 258
 94 522 l 258
 94 476 95 421 121 415 c 257
 122 415 l 257
 122 350 l 257
 120 351 l 257
 86 353 26 378 26 528 c 256
 26 656 75 699 121 702 c 257
 122 703 l 257
518 352 m 258
 564 349 614 307 614 178 c 256
 614 28 553 2 519 0 c 258
 517 0 l 257
 517 65 l 257
 518 65 l 257
 544 71 546 125 546 171 c 258
 546 201 l 258
 546 233 543 281 518 287 c 257
 516 287 l 257
 516 352 l 257
 518 352 l 258
490 352 m 257
 490 287 l 257
 488 287 l 257
 463 281 461 233 461 201 c 258
 461 171 l 258
 461 125 462 71 488 65 c 257
 489 65 l 257
 489 0 l 257
 487 0 l 258
 453 2 393 28 393 178 c 256
 393 306 442 349 488 352 c 258
 490 352 l 257
776 352 m 258
 822 349 872 307 872 178 c 256
 872 28 811 2 777 0 c 258
 775 0 l 257
 775 65 l 257
 776 65 l 257
 802 71 804 125 804 171 c 258
 804 201 l 258
 804 233 801 281 776 287 c 257
 774 287 l 257
 774 352 l 257
 776 352 l 258
748 352 m 257
 748 287 l 257
 746 287 l 257
 721 281 719 233 719 201 c 258
 719 171 l 258
 719 125 720 71 746 65 c 257
 747 65 l 257
 747 0 l 257
 745 0 l 258
 711 2 651 28 651 178 c 256
 651 306 700 349 746 352 c 258
 748 352 l 257
EndSplineSet
Validated: 1
EndChar

StartChar: plus
Encoding: 11 43 178
GlifName: plus
Width: 475
VWidth: 0
GlyphClass: 2
Flags: W
LayerCount: 2
Back
Fore
SplineSet
425 357 m 257
 425 230 l 257
 300 230 l 257
 300 87 l 257
 173 87 l 257
 173 230 l 257
 50 230 l 257
 50 357 l 257
 173 357 l 257
 173 498 l 257
 300 498 l 257
 300 357 l 257
 425 357 l 257
EndSplineSet
Validated: 1
EndChar

StartChar: plusminus
Encoding: 112 177 179
GlifName: plusminus
Width: 575
VWidth: 0
GlyphClass: 2
Flags: W
HStem: 40 127<100 476 100 476> 391 127
VStem: 223 127
LayerCount: 2
Back
Fore
SplineSet
476 167 m 257
 476 40 l 257
 100 40 l 257
 100 167 l 257
 476 167 l 257
EndSplineSet
Refer: 178 43 N 1 0 0 1 0 161 2
Validated: 1
EndChar

StartChar: q
Encoding: 81 113 180
GlifName: q
Width: 416
VWidth: 0
GlyphClass: 2
Flags: W
HStem: 0 118<188 190 190 219> 398 118<167 214 183 214>
VStem: 26 120<142 143 143 373> 262 124<-182 -182>
LayerCount: 2
Back
Fore
SplineSet
146 143 m 258
 146 141 150 119 188 118 c 258
 219 118 l 257
 219 0 l 257
 190 0 l 258
 77 0 27 93 26 139 c 257
 26 375 l 258
 26 420 76 516 183 516 c 258
 214 516 l 257
 214 398 l 257
 183 398 l 258
 151 398 146 375 146 373 c 257
 146 143 l 258
385 516 m 257
 386 -182 l 257
 262 -182 l 257
 261 516 l 257
 385 516 l 257
EndSplineSet
Validated: 1
EndChar

StartChar: question
Encoding: 31 63 181
GlifName: question
Width: 460
VWidth: 0
GlyphClass: 2
Flags: W
HStem: -22 151<176 218> 166 220<134 263 134 134> 575 128<188.5 233.5>
VStem: 122 151<32 74> 134 129<166 276 166 386 166 386> 302 128<446.5 482.5 482.5 491 385 519>
LayerCount: 2
Back
Fore
SplineSet
122 53 m 256xf4
 122 95 155 129 197 129 c 256
 239 129 273 95 273 53 c 256
 273 11 239 -22 197 -22 c 256
 155 -22 122 11 122 53 c 256xf4
112 526 m 257
 30 611 l 257
 60 649 110 703 218 703 c 256
 346 703 426 620 430 491 c 256
 430 488 430 484 430 481 c 256
 430 289 263 276 263 276 c 257
 263 166 l 257
 134 166 l 257
 134 386 l 257xec
 251 388 302 400 302 493 c 256
 302 545 257 575 210 575 c 256
 167 575 133 554 112 526 c 257
EndSplineSet
Validated: 1
EndChar

StartChar: questiondown
Encoding: 126 191 182
GlifName: questiondown
Width: 460
VWidth: 0
GlyphClass: 2
Flags: W
HStem: -14 128<188.5 233.5 188.5 283.5> 303 220<134 263> 560 151<176 218>
VStem: 122 151<615 657> 134 129<413 523 413 523 413 523> 302 128<170 242.5>
LayerCount: 2
Back
Fore
SplineSet
112 163 m 257xec
 133 135 167 114 210 114 c 256
 257 114 302 144 302 196 c 256
 302 289 251 301 134 303 c 257
 134 523 l 257
 263 523 l 257
 263 413 l 257
 263 413 430 400 430 208 c 256
 430 72 349 -14 218 -14 c 256
 110 -14 60 40 30 78 c 257
 112 163 l 257xec
122 636 m 256xf4
 122 678 155 711 197 711 c 256
 239 711 273 678 273 636 c 256
 273 594 239 560 197 560 c 256
 155 560 122 594 122 636 c 256xf4
EndSplineSet
Validated: 1
EndChar

StartChar: quotedbl
Encoding: 2 34 183
GlifName: quotedbl
Width: 407
VWidth: 0
GlyphClass: 2
Flags: W
LayerCount: 2
Back
Fore
SplineSet
177 465 m 257
 50 465 l 257
 50 736 l 257
 177 736 l 257
 177 465 l 257
357 465 m 257
 230 465 l 257
 230 736 l 257
 357 736 l 257
 357 465 l 257
EndSplineSet
Validated: 1
EndChar

StartChar: quotedbl.alt
Encoding: 220 -1 184
GlifName: quotedbl.alt
Width: 359
VWidth: 0
GlyphClass: 2
Flags: W
HStem: 476 224<26 153 26 153 26 206 206 333>
VStem: 26 127<476 700> 206 127<476 700>
LayerCount: 2
Back
Fore
SplineSet
153 476 m 257
 26 476 l 257
 26 700 l 257
 153 700 l 257
 153 476 l 257
333 476 m 257
 206 476 l 257
 206 700 l 257
 333 700 l 257
 333 476 l 257
EndSplineSet
Validated: 1
EndChar

StartChar: quotesingle
Encoding: 7 39 191
GlifName: quotesingle
Width: 227
VWidth: 0
GlyphClass: 2
Flags: W
LayerCount: 2
Back
Fore
SplineSet
177 465 m 257
 50 465 l 257
 50 736 l 257
 177 736 l 257
 177 465 l 257
EndSplineSet
Validated: 1
EndChar

StartChar: r
Encoding: 82 114 192
GlifName: r
Width: 316
VWidth: 0
GlyphClass: 2
Flags: W
HStem: 0 21<36 160 36 36> 0 21<36 160 36 36> 395 121<289 289>
VStem: 36 124<0 271 454 516>
LayerCount: 2
Back
Fore
SplineSet
36 516 m 257xb0
 160 516 l 257
 160 454 l 257
 181 481 229 516 284 516 c 258
 317 516 l 257
 289 395 l 257
 222 394 160 331 160 271 c 258
 160 0 l 257
 36 0 l 257
 36 516 l 257xb0
EndSplineSet
Validated: 1
EndChar

StartChar: registered
Encoding: 109 174 193
GlifName: registered
Width: 404
VWidth: 0
GlyphClass: 2
Flags: W
HStem: 354 42<191 192 191 211> 511 36<206 210 210 216> 591 37<206 210 206 227> 662 41<193 195 193 195 193 240.5>
VStem: 30 40<523 567.5 526 567.5 526 587> 151 39<430 627 430 627> 234 36<562.5 575> 334 40<525 527 526.5 528 473 567.5>
LayerCount: 2
Back
Fore
SplineSet
191 396 m 257
 192 354 l 257
 111 355 30 432 30 523 c 256
 30 524 30 524 30 525 c 256
 30 649 133 703 193 703 c 256
 194 703 194 703 195 703 c 257
 195 662 l 257
 136 662 70 609 70 526 c 256
 71 457 126 399 191 396 c 257
211 396 m 257
 276 399 332 456 334 525 c 256
 334 526 334 526 334 527 c 256
 334 608 270 662 211 662 c 257
 211 703 l 257
 277 702 374 641 374 528 c 256
 374 526 374 525 374 523 c 256
 374 423 288 357 211 354 c 257
 211 396 l 257
206 547 m 257
 210 547 l 258
 227 547 234 557 234 568 c 256
 234 582 224 591 210 591 c 258
 206 591 l 257
 206 628 l 257
 248 628 270 604 270 570 c 256
 270 551 264 538 251 530 c 257
 261 522 269 506 270 492 c 258
 270 431 l 257
 235 431 l 257
 235 481 l 258
 235 504 226 511 206 511 c 257
 206 547 l 257
151 627 m 257
 190 627 l 257
 190 430 l 257
 151 430 l 257
 151 627 l 257
EndSplineSet
Validated: 1
EndChar

StartChar: ring
Encoding: 227 730 194
GlifName: ring
Width: 244
VWidth: 0
GlyphClass: 2
Flags: W
HStem: 430 64<113 131 113 148.5> 558 64<113 131>
VStem: 26 64<517 535 517 552.5> 154 64<517 535>
LayerCount: 2
Back
Fore
SplineSet
90 526 m 256
 90 508 104 494 122 494 c 256
 140 494 154 508 154 526 c 256
 154 544 140 558 122 558 c 256
 104 558 90 544 90 526 c 256
26 526 m 256
 26 579 69 622 122 622 c 256
 175 622 218 579 218 526 c 256
 218 473 175 430 122 430 c 256
 69 430 26 473 26 526 c 256
EndSplineSet
Validated: 1
EndChar

StartChar: s
Encoding: 83 115 195
GlifName: s
Width: 418
VWidth: 0
GlyphClass: 2
Flags: W
HStem: 404 113<224 226 179 223>
VStem: 26 112<353 369.5 353 422> 280 117<136.5 175.5>
LayerCount: 2
Back
Fore
SplineSet
22 134 m 256
 21 136 l 257
 133 157 l 257
 133 154 l 258
 135 135 157 113 181 111 c 256
 184 110 l 257
 184 -5 l 257
 181 -5 l 258
 87 -5 25 70 22 134 c 256
388 376 m 258
 388 374 l 257
 276 355 l 257
 276 358 l 256
 272 399 234 404 226 404 c 258
 223 404 l 257
 224 517 l 257
 227 517 l 258
 321 517 388 440 388 376 c 258
182 406 m 257
 180 406 l 256
 140 402 138 377 138 362 c 256
 138 344 153 323 294 296 c 256
 346 286 397 243 397 160 c 256
 397 57 321 -5 228 -5 c 258
 225 -5 l 257
 225 109 l 257
 228 109 l 258
 243 110 280 120 280 153 c 256
 280 198 168 206 111 232 c 256
 62 256 26 287 26 371 c 256
 26 473 125 517 179 517 c 258
 182 517 l 257
 182 406 l 257
EndSplineSet
Validated: 1
EndChar

StartChar: section
Encoding: 102 167 197
GlifName: section
Width: 547
VWidth: 0
GlyphClass: 2
Flags: W
HStem: -136 132<170 274 274 282 170 274> 627 132<265 273 273 377>
VStem: 26 141<335.5 368.5 335.5 382> 88 131<565.5 591 565.5 640.5> 328 131<32 57.5> 380 141<254.5 288>
LayerCount: 2
Back
Fore
SplineSet
363 223 m 257xc8
 373 231 380 243 380 266 c 256
 380 310 343 333 300 351 c 257
 300 498 l 257
 331 485 365 473 393 457 c 256
 454 421 521 374 521 272 c 256xc4
 521 210 493 158 449 124 c 257
 456 104 459 80 459 52 c 256
 459 -87 350 -136 282 -136 c 258
 170 -136 l 257
 170 -4 l 257
 274 -4 l 258
 307 -4 328 17 328 47 c 256
 328 68 317 84 300 97 c 257
 300 252 l 257
 313 247 325 242 336 237 c 256
 345 232 354 228 363 223 c 257xc8
265 759 m 258
 377 759 l 257
 377 627 l 257
 273 627 l 258
 240 627 219 606 219 576 c 256xd0
 219 555 230 540 246 527 c 257
 246 372 l 257
 233 377 221 381 211 386 c 256
 202 391 193 395 184 400 c 257
 174 392 167 380 167 357 c 256
 167 314 204 290 246 272 c 257
 246 125 l 257
 215 138 181 150 154 166 c 256
 93 202 26 249 26 351 c 256xe0
 26 413 54 465 98 499 c 257
 91 519 88 543 88 571 c 256xd0
 88 710 197 759 265 759 c 258
EndSplineSet
Validated: 1
EndChar

StartChar: semicolon
Encoding: 27 59 198
GlifName: semicolon
Width: 291
VWidth: 0
GlyphClass: 2
Flags: W
HStem: -23 152<87 177 50 214> 285 151<145 187>
VStem: 91 150<339 381>
LayerCount: 2
Back
Fore
SplineSet
91 360 m 256
 91 402 124 436 166 436 c 256
 208 436 241 402 241 360 c 256
 241 318 208 285 166 285 c 256
 124 285 91 318 91 360 c 256
177 -23 m 257
 50 -23 l 257
 87 129 l 257
 214 129 l 257
 177 -23 l 257
EndSplineSet
Validated: 1
EndChar

StartChar: seven
Encoding: 23 55 199
GlifName: seven
Width: 435
VWidth: 0
GlyphClass: 2
Flags: W
HStem: 0 21<136 273 136 136> 0 21<136 273 136 136> 510 188<236 371 236 236> 572 126<20 260 20 409>
LayerCount: 2
Back
Fore
SplineSet
20 698 m 257x10
 409 698 l 257x10
 409 573 l 257
 397 562 378 529 371 510 c 257
 236 510 l 257x20
 260 572 l 257
 20 572 l 257
 20 698 l 257x10
223 450 m 257
 356 450 l 257
 317 300 289 154 273 0 c 257
 136 0 l 257x80
 153 158 181 295 223 450 c 257
EndSplineSet
Validated: 1
EndChar

StartChar: six
Encoding: 22 54 200
GlifName: six
Width: 497
VWidth: 0
GlyphClass: 2
Flags: W
HStem: -1 125<140.5 228 228 282> 307 118<227 228 227 227> 573 125<282 293 282 284>
VStem: 26 124<399 416.5> 356 115<183.5 249>
LayerCount: 2
Back
Fore
SplineSet
282 425 m 257
 406 425 471 327 471 209 c 256
 471 84 383 0 282 -1 c 257
 282 123 l 257
 317 127 356 159 356 208 c 256
 356 290 302 304 283 309 c 257
 282 425 l 257
355 537 m 257
 339 559 321 573 293 573 c 256
 289 573 286 573 282 573 c 257
 282 698 l 257
 360 698 415 659 450 600 c 257
 355 537 l 257
228 697 m 257
 228 572 l 257
 165 565 150 448 150 399 c 257
 169 414 198 425 228 425 c 257
 228 307 l 257
 227 307 l 256
 207 302 160 286 160 209 c 256
 160 170 190 128 228 124 c 257
 228 -1 l 257
 53 -1 26 186 26 358 c 256
 26 475 55 675 228 697 c 257
EndSplineSet
Validated: 1
EndChar

StartChar: slash
Encoding: 15 47 201
GlifName: slash
Width: 401
VWidth: 0
GlyphClass: 2
Flags: W
LayerCount: 2
Back
Fore
SplineSet
50 -23 m 257
 225 716 l 257
 351 716 l 257
 177 -23 l 257
 50 -23 l 257
EndSplineSet
Validated: 1
EndChar

StartChar: sterling
Encoding: 98 163 203
GlifName: sterling
Width: 520
VWidth: 0
GlyphClass: 2
Flags: W
HStem: 0 108<238 462 238 462> 289 107<239 378 239 378 238 378> 584 121<291 293 293 307 291 319>
VStem: 106 132<108 288 288 288 108 514>
LayerCount: 2
Back
Fore
SplineSet
371 520 m 257
 361 551 341 584 297 584 c 256
 265 584 239 568 239 517 c 258
 239 396 l 257
 378 396 l 257
 378 289 l 257
 238 289 l 257
 238 108 l 257
 462 108 l 257
 462 0 l 257
 106 0 l 257
 106 288 l 257
 50 288 l 257
 50 395 l 257
 106 395 l 257
 106 514 l 258
 106 617 161 705 291 705 c 256
 292 705 292 705 293 705 c 256
 321 705 345 700 366 691 c 256
 424 668 459 618 470 570 c 257
 371 520 l 257
EndSplineSet
Validated: 1
EndChar

StartChar: t
Encoding: 84 116 204
GlifName: t
Width: 324
VWidth: 0
GlyphClass: 2
Flags: W
HStem: 0 125<244 271 244 298 243 271> 398 118<26 89 26 89 211 271> 680 20<89 211 211 211>
VStem: 89 122<168 398 516 700>
LayerCount: 2
Back
Fore
SplineSet
244 125 m 258
 271 125 l 257
 298 0 l 257
 243 0 l 258
 121 1 89 66 89 168 c 258
 89 398 l 257
 26 398 l 257
 26 516 l 257
 89 516 l 257
 89 700 l 257
 211 700 l 257
 211 516 l 257
 271 516 l 257
 271 398 l 257
 211 398 l 257
 211 159 l 258
 211 145 216 126 244 125 c 258
EndSplineSet
Validated: 1
EndChar

StartChar: thorn
Encoding: 189 254 205
GlifName: thorn
Width: 422
VWidth: 0
GlyphClass: 2
Flags: W
HStem: 0 118<203 232 203 234> 398 118<196 228 196 228> 680 20<30 155 155 155>
VStem: 30 125<-182 700 -182 700> 276 120<143 372 372 375>
LayerCount: 2
Back
Fore
SplineSet
232 0 m 258
 203 0 l 257
 203 118 l 257
 234 118 l 258
 271 119 276 134 276 143 c 258
 276 372 l 258
 276 385 258 398 228 398 c 258
 196 398 l 257
 196 516 l 257
 228 516 l 258
 335 516 396 431 396 375 c 258
 396 139 l 258
 396 86 345 0 232 0 c 258
30 700 m 257
 155 700 l 257
 155 -182 l 257
 30 -182 l 257
 30 700 l 257
EndSplineSet
Validated: 1
EndChar

StartChar: three
Encoding: 19 51 206
GlifName: three
Width: 484
VWidth: 0
GlyphClass: 2
Flags: W
HStem: 0 122<255 257 255 255.5> 286 124<188 247> 574 124<156 256 156 252.5>
VStem: 327 131<181 231>
LayerCount: 2
Back
Fore
SplineSet
132 537 m 257
 26 600 l 257
 59 656 117 698 195 698 c 257
 195 572 l 257
 166 570 146 558 132 537 c 257
254 122 m 257
 297 122 327 161 327 201 c 256
 327 261 306 286 188 286 c 257
 188 410 l 257
 308 410 327 439 327 499 c 256
 327 553 286 574 256 574 c 256
 255 574 253 574 252 574 c 257
 252 698 l 257
 386 695 453 582 453 508 c 256
 453 411 422 366 391 350 c 257
 419 331 458 284 458 199 c 256
 458 75 337 0 257 0 c 256
 256 0 256 0 255 0 c 257
 254 122 l 257
132 160 m 257
 146 139 166 127 195 125 c 257
 195 -1 l 257
 117 -1 60 30 26 97 c 257
 132 160 l 257
EndSplineSet
Validated: 1
EndChar

StartChar: threequarters
Encoding: 125 190 207
GlifName: threequarters
Width: 584
VWidth: 0
GlyphClass: 2
Flags: W
HStem: -1 21<417 485 417 417> -1 21<417 485 417 417> 71 66<370 392 294 294 485 512> 348 66<93.5 114 113 114 113 141 113 144> 492 65<108 109 109 137.5> 636 64<94 141 94 143 94 140>
VStem: 177 68<440.5 464.5> 294 98<71 137 71 137> 417 95<71 137 71 352> 417 68<-1 71 -1 137 137 352>
LayerCount: 2
Back
Fore
SplineSet
83 431 m 258x3f
 90 421 99 415 113 414 c 258
 114 414 l 257
 114 348 l 257
 113 348 l 258
 74 348 44 364 27 398 c 257
 26 399 l 257
 82 432 l 257
 83 431 l 258x3f
142 412 m 258
 163 412 177 431 177 450 c 256
 177 479 167 492 108 492 c 257
 108 557 l 257
 109 557 l 258
 169 557 177 571 177 600 c 256
 177 626 157 636 143 636 c 258
 140 636 l 257
 140 701 l 257
 141 700 l 257
 209 698 243 642 243 604 c 256
 243 557 229 534 214 525 c 257
 229 514 245 491 245 450 c 256
 245 387 185 348 144 348 c 258
 141 348 l 257
 141 412 l 257
 142 412 l 258
82 616 m 257
 26 649 l 257
 27 651 l 258
 44 679 74 700 114 700 c 257
 114 635 l 257
 113 635 l 258
 99 634 90 628 83 618 c 258
 82 616 l 257
512 137 m 257xbf80
 512 71 l 257xbf80
 485 71 l 257
 485 -1 l 257
 417 -1 l 257xbf40
 417 352 l 257xbf80
 485 352 l 257
 485 137 l 257xbf40
 512 137 l 257xbf80
392 137 m 257
 392 71 l 257
 294 71 l 257
 294 137 l 257
 392 305 l 257
 392 175 l 257
 370 137 l 257
 392 137 l 257
50 -2 m 257
 482 702 l 257
 558 702 l 257
 133 -2 l 257
 50 -2 l 257
EndSplineSet
Validated: 1
EndChar

StartChar: tilde
Encoding: 229 732 208
GlifName: tilde
Width: 333
VWidth: 0
GlyphClass: 2
Flags: W
HStem: 86 101<201.5 234.5> 126 102<86.5 116>
VStem: 26 281<114 114 114 206 206 206>
LayerCount: 2
Back
Fore
SplineSet
307 114 m 257xa0
 273 93 246 86 223 86 c 256xa0
 170 86 140 126 92 126 c 256
 74 126 52 120 26 104 c 257
 26 206 l 257
 54 222 77 228 96 228 c 256x60
 147 228 176 187 227 187 c 256
 249 187 274 195 307 215 c 257
 307 114 l 257xa0
EndSplineSet
Validated: 1
EndChar

StartChar: two
Encoding: 18 50 209
GlifName: two
Width: 480
VWidth: 0
GlyphClass: 2
Flags: W
HStem: 0 127<43 447 43 447> 574 126<245 252>
VStem: 330 123<495 497 496.5 497 442 522>
LayerCount: 2
Back
Fore
SplineSet
447 127 m 257
 447 0 l 257
 43 0 l 257
 43 127 l 257
 447 127 l 257
190 699 m 257
 190 573 l 258
 189 573 142 557 142 495 c 257
 24 520 l 257
 33 604 95 687 190 699 c 257
245 574 m 257
 245 700 l 257
 247 700 250 700 252 700 c 256
 406 700 452 574 453 497 c 256
 453 496 453 495 453 494 c 256
 453 390 403 358 342 315 c 256
 271 265 231 232 197 179 c 257
 45 179 l 257
 105 302 205 359 235 384 c 256
 278 421 329 433 330 495 c 256
 330 496 330 496 330 497 c 256
 330 547 300 572 245 574 c 257
EndSplineSet
Validated: 1
EndChar

StartChar: u
Encoding: 85 117 210
GlifName: u
Width: 434
VWidth: 0
GlyphClass: 2
Flags: W
HStem: -5 121<137.5 196 191 196 238 243 191 238> 494 20<30 154 154 154 280 404 404 404>
VStem: 30 124<140.5 142 142 514> 280 124<142 514>
LayerCount: 2
Back
Fore
SplineSet
238 116 m 257
 243 116 l 258
 274 116 280 140 280 142 c 257
 280 514 l 257
 404 514 l 257
 404 137 l 258
 404 92 350 -5 243 -5 c 258
 238 -5 l 257
 238 116 l 257
30 514 m 257
 154 514 l 257
 154 142 l 257
 154 139 160 116 191 116 c 258
 196 116 l 257
 196 -5 l 257
 191 -5 l 258
 84 -5 30 89 30 137 c 258
 30 514 l 257
EndSplineSet
Validated: 1
EndChar

StartChar: underscore
Encoding: 63 95 215
GlifName: underscore
Width: 510
VWidth: 0
GlyphClass: 2
Flags: W
HStem: -205 107<30 480 30 480>
LayerCount: 2
Back
Fore
SplineSet
480 -205 m 257
 30 -205 l 257
 30 -98 l 257
 480 -98 l 257
 480 -205 l 257
EndSplineSet
Validated: 1
EndChar

StartChar: uni00B2
Encoding: 113 178 218
GlifName: uni00B_2
Width: 245
VWidth: 0
GlyphClass: 2
Flags: W
LayerCount: 2
Back
Fore
SplineSet
102 638 m 258
 98 636 85 629 85 608 c 258
 85 604 l 257
 26 616 l 257
 26 619 l 257
 30 657 58 695 101 700 c 257
 105 700 l 257
 105 645 l 257
 105 638 l 257
 102 638 l 258
216 451 m 257
 216 389 l 257
 34 389 l 257
 34 451 l 257
 216 451 l 257
122 639 m 257
 122 700 l 257
 129 700 l 258
 198 700 219 643 219 609 c 256
 219 560 196 546 170 527 c 256
 139 505 123 493 109 471 c 258
 108 469 l 257
 34 469 l 257
 37 475 l 258
 63 529 107 553 119 563 c 256
 139 580 159 584 159 608 c 256
 159 629 148 638 125 639 c 258
 122 639 l 257
EndSplineSet
Validated: 1
EndChar

StartChar: uni00B3
Encoding: 114 179 219
GlifName: uni00B_3
Width: 247
VWidth: 0
GlyphClass: 2
Flags: W
HStem: 392 60<86.5 129 104 129 126 129 126 129 129 131> 516 61<97 101 97 101> 640 61<104 107 104 107 125 128 104 130 104 125>
VStem: 157 64<475 495>
LayerCount: 2
Back
Fore
SplineSet
80 467 m 258
 85 459 92 455 104 454 c 258
 107 453 l 257
 107 392 l 257
 104 392 l 258
 69 392 43 406 28 436 c 257
 26 439 l 257
 78 470 l 257
 80 467 l 258
129 452 m 258
 145 452 157 467 157 483 c 256
 157 507 151 516 101 516 c 258
 97 516 l 257
 97 577 l 257
 101 577 l 258
 152 577 157 588 157 612 c 256
 157 633 141 640 130 640 c 258
 125 640 l 257
 125 701 l 257
 128 701 l 258
 188 700 219 650 219 616 c 256
 219 578 208 557 195 547 c 257
 207 537 221 516 221 482 c 256
 221 426 167 392 131 392 c 258
 126 392 l 257
 126 452 l 257
 129 452 l 258
78 623 m 257
 26 654 l 257
 28 657 l 258
 43 682 69 701 104 701 c 258
 107 701 l 257
 107 640 l 257
 104 640 l 258
 92 639 85 634 80 626 c 258
 78 623 l 257
EndSplineSet
Validated: 1
EndChar

StartChar: uni00B9
Encoding: 120 185 220
GlifName: uni00B_9
Width: 186
VWidth: 0
GlyphClass: 2
Flags: W
HStem: 391 309<95 161 95 161 93 161>
VStem: 60 101<584 673 673 673> 93 68<391 610 610 610>
LayerCount: 2
Back
Fore
SplineSet
93 610 m 257xa0
 60 584 l 257
 60 673 l 257xc0
 95 700 l 257
 161 700 l 257
 161 391 l 257
 93 391 l 257
 93 610 l 257xa0
EndSplineSet
Validated: 1
EndChar

StartChar: v
Encoding: 86 118 221
GlifName: v
Width: 400
VWidth: 0
GlyphClass: 2
Flags: W
HStem: 0 21<174 174 174 243> 0 21<174 174 174 243> 496 20<151 151 269 269>
LayerCount: 2
Back
Fore
SplineSet
174 0 m 257xa0
 16 515 l 257
 151 516 l 257
 286 120 l 257
 243 0 l 257
 174 0 l 257xa0
269 516 m 257
 400 515 l 257
 308 208 l 257
 296 208 l 257
 232 394 l 257
 269 516 l 257
EndSplineSet
Validated: 1
EndChar

StartChar: w
Encoding: 87 119 222
GlifName: w
Width: 577
VWidth: 0
GlyphClass: 2
Flags: W
HStem: 0 21<160 160 160 222 348 412 348 348> 0 21<160 160 160 222 348 412 348 348> 496 20<144 144 328 328 443 443>
LayerCount: 2
Back
Fore
SplineSet
160 0 m 257xa0
 8 515 l 257
 144 516 l 257
 261 120 l 257
 222 0 l 257
 160 0 l 257xa0
348 0 m 257
 190 515 l 257
 328 516 l 257
 449 120 l 257
 412 0 l 257
 348 0 l 257
443 516 m 257
 569 515 l 257
 471 208 l 257
 463 208 l 257
 407 394 l 257
 443 516 l 257
EndSplineSet
Validated: 1
EndChar

StartChar: x
Encoding: 88 120 223
GlifName: x
Width: 381
VWidth: 0
GlyphClass: 2
Flags: W
HStem: 0 21<18 143 18 18 257 382 257 257> 0 21<18 143 18 18 257 382 257 257> 496 19
LayerCount: 2
Back
Fore
SplineSet
132 262 m 257xa0
 22 516 l 257
 147 516 l 257
 200 399 l 257
 252 515 l 257
 378 515 l 257
 269 262 l 257
 382 0 l 257
 257 0 l 257
 200 126 l 257
 143 0 l 257
 18 0 l 257
 132 262 l 257xa0
EndSplineSet
Validated: 1
EndChar

StartChar: y
Encoding: 89 121 224
GlifName: y
Width: 383
VWidth: 0
GlyphClass: 2
Flags: W
HStem: 495 20<131 131 251 251>
VStem: 188 1
LayerCount: 2
Back
Fore
SplineSet
118 113 m 257
 0 514 l 257
 131 515 l 257
 188 327 l 257
 188 328 189 328 189 329 c 257
 252 111 l 257
 155 -182 l 257
 29 -182 l 257
 118 113 l 257
251 515 m 257
 382 514 l 257
 279 208 l 257
 267 208 l 257
 213 393 l 257
 251 515 l 257
EndSplineSet
Validated: 1
EndChar

StartChar: yen
Encoding: 100 165 227
GlifName: yen
Width: 542
VWidth: 0
GlyphClass: 2
Flags: W
HStem: 0 21<203 340 203 203> 0 21<203 340 203 203> 238 57<50 193 50 203 50 193> 351 58<50 162 50 177 50 162> 678 20<73 210 210 210 333 470 470 470>
VStem: 203 137<0 236 0 238 0 238>
LayerCount: 2
Back
Fore
SplineSet
73 698 m 257xbc
 210 698 l 257
 273 485 l 257
 333 698 l 257
 470 698 l 257
 382 408 l 257
 492 408 l 257
 492 350 l 257
 365 350 l 257
 351 295 l 257
 492 295 l 257
 492 236 l 257
 340 236 l 257
 340 0 l 257
 203 0 l 257
 203 238 l 257
 50 238 l 257
 50 295 l 257
 193 295 l 257
 177 351 l 257
 50 351 l 257
 50 409 l 257
 162 409 l 257
 73 698 l 257xbc
EndSplineSet
Validated: 1
EndChar

StartChar: z
Encoding: 90 122 228
GlifName: z
Width: 348
VWidth: 0
GlyphClass: 2
Flags: W
HStem: 0 118<169 169 169 322> 394 120<26 183 26 322>
VStem: 26 296<0 116 116 116 400 514>
LayerCount: 2
Back
Fore
SplineSet
322 400 m 257
 169 118 l 257
 322 117 l 257
 322 0 l 257
 26 0 l 257
 26 116 l 257
 183 394 l 257
 26 394 l 257
 26 514 l 257
 322 514 l 257
 322 400 l 257
EndSplineSet
Validated: 1
EndChar

StartChar: zero
Encoding: 16 48 230
GlifName: zero
Width: 1024
VWidth: 0
GlyphClass: 2
Flags: W
LayerCount: 2
Back
Fore
SplineSet
404 698 m 257
 404 573 l 257
 351 560 346 461 346 398 c 256
 346 371 346 360 346 339 c 256
 346 248 348 137 403 124 c 257
 403 0 l 257
 337 3 221 60 221 353 c 256
 221 602 315 693 404 698 c 257
464 698 m 257
 553 693 647 602 647 353 c 256
 647 60 531 3 465 0 c 257
 465 124 l 257
 520 137 522 248 522 339 c 256
 522 360 522 371 522 398 c 256
 522 461 517 560 464 573 c 257
 464 698 l 257
EndSplineSet
Validated: 1
EndChar

StartChar: anusvara
Encoding: 232 3458 231
Width: 398
VWidth: 853
Flags: HW
LayerCount: 2
Back
Fore
SplineSet
231.107421875 265.86328125 m 0
 190.57421875 246.663085938 164.974609375 217.0625 154.307617188 177.0625 c 0
 143.107421875 137.0625 155.374023438 110.129882812 191.107421875 96.2626953125 c 0
 214.041015625 87.1962890625 240.174804688 85.3291015625 269.5078125 90.6630859375 c 0
 298.840820312 95.99609375 322.307617188 109.596679688 339.907226562 131.462890625 c 0
 348.974609375 142.663085938 355.5078125 157.0625 359.5078125 174.663085938 c 128
 363.5078125 192.262695312 362.708007812 208.663085938 357.107421875 223.86328125 c 128
 351.5078125 239.0625 342.44140625 251.329101562 329.907226562 260.663085938 c 128
 317.374023438 269.99609375 302.44140625 275.462890625 285.107421875 277.0625 c 128
 267.774414062 278.663085938 249.774414062 274.9296875 231.107421875 265.86328125 c 0
109.5078125 177.0625 m 2
 122.840820312 234.663085938 159.640625 277.329101562 219.907226562 305.0625 c 0
 255.107421875 321.596679688 288.44140625 325.596679688 319.907226562 317.0625 c 0
 351.374023438 308.529296875 375.107421875 291.196289062 391.107421875 265.0625 c 0
 407.107421875 238.396484375 411.107421875 207.729492188 403.107421875 173.0625 c 0
 395.107421875 137.86328125 376.974609375 107.196289062 348.708007812 81.0625 c 0
 320.44140625 54.9296875 288.708007812 37.86328125 253.5078125 29.86328125 c 0
 218.840820312 21.3291015625 188.708007812 24.529296875 163.107421875 39.462890625 c 0
 113.5078125 68.2626953125 95.107421875 111.462890625 107.907226562 169.0625 c 2
 109.5078125 177.0625 l 2
EndSplineSet
Colour: ffff00
EndChar

StartChar: visarga
Encoding: 233 3459 232
Width: 260
VWidth: 867
Flags: HW
LayerCount: 2
Back
Fore
SplineSet
181.08984375 358.377929688 m 1
 178.422851562 339.177734375 183.756835938 325.844726562 197.08984375 318.377929688 c 0
 210.422851562 311.444335938 225.356445312 311.7109375 241.889648438 319.177734375 c 128
 258.422851562 326.64453125 268.823242188 339.7109375 273.08984375 358.377929688 c 128
 277.356445312 377.043945312 273.08984375 390.111328125 260.290039062 397.578125 c 128
 247.490234375 405.043945312 232.556640625 405.310546875 215.490234375 398.377929688 c 0
 198.422851562 390.911132812 186.95703125 377.578125 181.08984375 358.377929688 c 1
138.690429688 362.377929688 m 1
 148.290039062 393.310546875 165.889648438 416.244140625 191.490234375 431.177734375 c 0
 217.623046875 446.111328125 243.223632812 450.64453125 268.290039062 444.77734375 c 0
 293.356445312 438.377929688 309.623046875 423.177734375 317.08984375 399.177734375 c 0
 320.823242188 387.444335938 320.823242188 373.844726562 317.08984375 358.377929688 c 0
 310.15625 329.043945312 293.889648438 305.844726562 268.290039062 288.77734375 c 0
 242.15625 271.7109375 216.0234375 265.844726562 189.889648438 271.177734375 c 0
 163.223632812 275.444335938 145.889648438 290.64453125 137.889648438 316.77734375 c 0
 134.690429688 326.911132812 134.422851562 339.444335938 137.08984375 354.377929688 c 1
 138.690429688 362.377929688 l 1
129.08984375 130.377929688 m 1
 126.422851562 111.177734375 131.756835938 97.8447265625 145.08984375 90.3779296875 c 128
 158.422851562 82.9111328125 173.356445312 82.9111328125 189.889648438 90.3779296875 c 128
 206.422851562 97.8447265625 216.823242188 111.043945312 221.08984375 129.977539062 c 0
 225.356445312 149.444335938 220.823242188 162.911132812 207.490234375 170.377929688 c 0
 194.690429688 177.844726562 180.0234375 177.844726562 163.490234375 170.377929688 c 0
 146.422851562 162.911132812 134.95703125 149.578125 129.08984375 130.377929688 c 1
85.8896484375 133.578125 m 1
 95.490234375 165.043945312 113.356445312 188.377929688 139.490234375 203.578125 c 128
 165.623046875 218.77734375 191.223632812 223.177734375 216.290039062 216.77734375 c 128
 241.356445312 210.377929688 257.356445312 195.177734375 264.290039062 171.177734375 c 0
 268.0234375 159.444335938 268.290039062 145.844726562 265.08984375 130.377929688 c 0
 258.15625 101.043945312 241.623046875 77.8447265625 215.490234375 60.77734375 c 0
 189.356445312 43.177734375 163.223632812 37.0439453125 137.08984375 42.3779296875 c 0
 110.422851562 46.64453125 93.3564453125 62.111328125 85.8896484375 88.77734375 c 0
 82.6904296875 99.4443359375 82.15625 112.244140625 84.2900390625 127.177734375 c 1
 85.8896484375 133.578125 l 1
EndSplineSet
Colour: ffff00
EndChar

StartChar: si_A
Encoding: 234 3461 233
Width: 554
VWidth: 853
Flags: HW
LayerCount: 2
Back
Fore
SplineSet
538.69921875 422.810546875 m 1
 518.432617188 403.077148438 505.365234375 389.077148438 499.499023438 380.810546875 c 128
 493.6328125 372.543945312 488.298828125 358.543945312 483.499023438 338.810546875 c 2
 475.499023438 302.810546875 l 1
 478.69921875 295.34375 484.565429688 289.744140625 493.098632812 286.010742188 c 128
 501.6328125 282.27734375 510.432617188 280.944335938 519.499023438 282.010742188 c 128
 528.565429688 283.077148438 536.69921875 287.34375 543.899414062 294.810546875 c 128
 551.098632812 302.27734375 554.965820312 311.610351562 555.499023438 322.810546875 c 128
 556.032226562 334.010742188 555.098632812 342.944335938 552.69921875 349.610351562 c 128
 550.298828125 356.27734375 546.83203125 365.34375 542.298828125 376.810546875 c 128
 537.765625 388.27734375 536.298828125 399.876953125 537.899414062 411.610351562 c 1
 538.69921875 422.810546875 l 1
285.899414062 71.6103515625 m 0
 315.765625 64.6767578125 349.6328125 63.876953125 387.499023438 69.2109375 c 1
 449.899414062 339.610351562 l 1
 423.232421875 348.143554688 392.298828125 348.676757812 357.098632812 341.2109375 c 0
 298.965820312 329.477539062 254.69921875 301.2109375 224.298828125 256.41015625 c 0
 213.6328125 241.477539062 205.899414062 222.810546875 201.098632812 200.41015625 c 0
 196.298828125 178.010742188 196.83203125 157.744140625 202.69921875 139.610351562 c 0
 214.432617188 104.41015625 242.166015625 81.744140625 285.899414062 71.6103515625 c 0
441.098632812 151.610351562 m 1
 429.098632812 96.41015625 l 1
 424.298828125 78.810546875 l 1
 429.098632812 79.876953125 434.965820312 81.4775390625 441.899414062 83.6103515625 c 2
 471.499023438 93.2109375 l 2
 484.298828125 97.4775390625 493.232421875 99.34375 498.298828125 98.810546875 c 128
 503.365234375 98.27734375 507.098632812 95.876953125 509.499023438 91.6103515625 c 128
 511.899414062 87.34375 510.166015625 81.4775390625 504.298828125 74.0107421875 c 1
 494.166015625 65.4775390625 472.032226562 56.9443359375 437.899414062 48.41015625 c 0
 429.899414062 46.27734375 422.69921875 44.1435546875 416.298828125 42.0107421875 c 1
 377.899414062 -124.389648438 l 2
 376.83203125 -129.72265625 374.298828125 -133.456054688 370.298828125 -135.58984375 c 128
 366.298828125 -137.72265625 362.166015625 -138.7890625 357.899414062 -138.7890625 c 0
 346.69921875 -138.7890625 341.899414062 -133.989257812 343.499023438 -124.389648438 c 1
 380.298828125 34.810546875 l 1
 360.032226562 32.1435546875 339.365234375 30.810546875 318.298828125 30.810546875 c 128
 297.232421875 30.810546875 277.098632812 32.6767578125 257.899414062 36.41015625 c 0
 188.565429688 49.744140625 148.83203125 83.876953125 138.69921875 138.810546875 c 0
 132.298828125 176.143554688 137.6328125 213.2109375 154.69921875 250.010742188 c 0
 176.565429688 295.876953125 213.765625 330.27734375 266.298828125 353.2109375 c 128
 318.83203125 376.143554688 381.098632812 383.34375 453.098632812 374.810546875 c 1
 456.298828125 400.41015625 449.365234375 418.27734375 432.298828125 428.41015625 c 128
 415.232421875 438.543945312 394.965820312 440.944335938 371.499023438 435.610351562 c 128
 348.032226562 430.27734375 330.166015625 419.610351562 317.899414062 403.610351562 c 1
 317.098632812 402.810546875 l 1
 303.232421875 387.876953125 286.69921875 382.543945312 267.499023438 386.810546875 c 0
 255.765625 388.944335938 249.232421875 392.810546875 247.899414062 398.41015625 c 128
 246.565429688 404.010742188 246.565429688 409.876953125 247.899414062 416.010742188 c 128
 249.232421875 422.143554688 254.965820312 430.143554688 265.098632812 440.010742188 c 128
 275.232421875 449.876953125 289.765625 458.27734375 308.69921875 465.2109375 c 128
 327.6328125 472.143554688 346.69921875 476.143554688 365.899414062 477.2109375 c 0
 408.565429688 479.34375 441.6328125 471.34375 465.098632812 453.2109375 c 0
 476.83203125 443.610351562 484.032226562 429.744140625 486.69921875 411.610351562 c 1
 502.166015625 431.34375 517.499023438 446.543945312 532.69921875 457.2109375 c 128
 547.899414062 467.876953125 565.098632812 475.077148438 584.298828125 478.810546875 c 0
 591.765625 479.34375 596.298828125 477.34375 597.899414062 472.810546875 c 128
 599.499023438 468.27734375 599.899414062 464.41015625 599.098632812 461.2109375 c 128
 598.298828125 458.010742188 596.032226562 454.810546875 592.298828125 451.610351562 c 0
 584.83203125 444.676757812 579.899414062 435.876953125 577.499023438 425.2109375 c 128
 575.098632812 414.543945312 576.032226562 405.2109375 580.298828125 397.2109375 c 0
 588.298828125 382.27734375 594.69921875 368.27734375 599.499023438 355.2109375 c 128
 604.298828125 342.143554688 604.032226562 327.876953125 598.69921875 312.41015625 c 0
 593.365234375 296.944335938 586.432617188 284.41015625 577.899414062 274.810546875 c 0
 560.298828125 252.944335938 539.232421875 242.010742188 514.69921875 242.010742188 c 0
 498.69921875 242.010742188 486.69921875 244.143554688 478.69921875 248.41015625 c 128
 470.69921875 252.676757812 466.166015625 256.143554688 465.098632812 258.810546875 c 1
 462.432617188 245.477539062 459.765625 232.41015625 457.098632812 219.610351562 c 2
 441.098632812 151.610351562 l 1
EndSplineSet
Colour: ffff00
EndChar

StartChar: si_Aa
Encoding: 235 3462 234
Width: 798
VWidth: 853
Flags: HW
LayerCount: 2
Back
Fore
SplineSet
590.533203125 88.41015625 m 1
 590.533203125 97.4775390625 595.06640625 103.610351562 604.1328125 106.810546875 c 0
 613.19921875 109.477539062 620.1328125 106.010742188 624.932617188 96.41015625 c 0
 636.1328125 72.9443359375 650.265625 62.0107421875 667.333007812 63.6103515625 c 0
 699.333007812 65.744140625 727.333007812 108.944335938 751.333007812 193.2109375 c 0
 787.599609375 318.543945312 785.732421875 383.34375 745.732421875 387.610351562 c 0
 724.932617188 389.744140625 704.666015625 379.610351562 684.932617188 357.2109375 c 0
 676.399414062 347.610351562 668.533203125 343.610351562 661.333007812 345.2109375 c 128
 654.1328125 346.810546875 651.599609375 353.2109375 653.732421875 364.41015625 c 1
 659.599609375 375.077148438 667.333007812 384.41015625 676.932617188 392.41015625 c 0
 696.666015625 408.944335938 719.333007812 418.810546875 744.932617188 422.010742188 c 0
 770.533203125 424.676757812 790.533203125 417.477539062 804.932617188 400.41015625 c 0
 827.333007812 373.744140625 835.732421875 335.077148438 830.1328125 284.41015625 c 128
 824.533203125 233.744140625 813.732421875 189.744140625 797.732421875 152.41015625 c 0
 774.799804688 98.0107421875 744.399414062 60.6767578125 706.533203125 40.41015625 c 0
 681.465820312 27.0771484375 656.533203125 25.744140625 631.732421875 36.41015625 c 128
 606.932617188 47.0771484375 593.19921875 64.41015625 590.533203125 88.41015625 c 1
564.1328125 422.810546875 m 1
 543.866210938 403.077148438 530.799804688 389.077148438 524.932617188 380.810546875 c 128
 519.06640625 372.543945312 513.732421875 358.543945312 508.932617188 338.810546875 c 2
 500.932617188 302.810546875 l 1
 504.1328125 295.34375 509.999023438 289.744140625 518.533203125 286.010742188 c 128
 527.06640625 282.27734375 535.866210938 280.944335938 544.932617188 282.010742188 c 128
 553.999023438 283.077148438 562.1328125 287.34375 569.333007812 294.810546875 c 128
 576.533203125 302.27734375 580.399414062 311.610351562 580.932617188 322.810546875 c 128
 581.465820312 334.010742188 580.533203125 342.944335938 578.1328125 349.610351562 c 128
 575.732421875 356.27734375 572.265625 365.34375 567.732421875 376.810546875 c 128
 563.19921875 388.27734375 561.732421875 399.876953125 563.333007812 411.610351562 c 1
 564.1328125 422.810546875 l 1
311.333007812 71.6103515625 m 0
 341.19921875 64.6767578125 375.06640625 63.876953125 412.932617188 69.2109375 c 1
 475.333007812 339.610351562 l 1
 448.666015625 348.143554688 417.732421875 348.676757812 382.533203125 341.2109375 c 0
 324.399414062 329.477539062 280.1328125 301.2109375 249.732421875 256.41015625 c 0
 239.06640625 241.477539062 231.333007812 222.810546875 226.533203125 200.41015625 c 128
 221.732421875 178.010742188 222.265625 157.744140625 228.1328125 139.610351562 c 0
 239.866210938 104.41015625 267.599609375 81.744140625 311.333007812 71.6103515625 c 0
466.533203125 151.610351562 m 1
 454.533203125 96.41015625 l 1
 449.732421875 78.810546875 l 1
 454.533203125 79.876953125 460.399414062 81.4775390625 467.333007812 83.6103515625 c 2
 496.932617188 93.2109375 l 2
 509.732421875 97.4775390625 518.666015625 99.34375 523.732421875 98.810546875 c 128
 528.799804688 98.27734375 532.533203125 95.876953125 534.932617188 91.6103515625 c 128
 537.333007812 87.34375 535.599609375 81.4775390625 529.732421875 74.0107421875 c 1
 519.599609375 65.4775390625 497.465820312 56.9443359375 463.333007812 48.41015625 c 0
 455.333007812 46.27734375 448.1328125 44.1435546875 441.732421875 42.0107421875 c 1
 403.333007812 -124.389648438 l 2
 402.265625 -129.72265625 399.732421875 -133.456054688 395.732421875 -135.58984375 c 128
 391.732421875 -137.72265625 387.599609375 -138.7890625 383.333007812 -138.7890625 c 0
 372.1328125 -138.7890625 367.333007812 -133.989257812 368.932617188 -124.389648438 c 1
 405.732421875 34.810546875 l 1
 385.465820312 32.1435546875 364.799804688 30.810546875 343.732421875 30.810546875 c 128
 322.666015625 30.810546875 302.533203125 32.6767578125 283.333007812 36.41015625 c 0
 213.999023438 49.744140625 174.265625 83.876953125 164.1328125 138.810546875 c 0
 157.732421875 176.143554688 163.06640625 213.2109375 180.1328125 250.010742188 c 0
 201.999023438 295.876953125 239.19921875 330.27734375 291.732421875 353.2109375 c 128
 344.265625 376.143554688 406.533203125 383.34375 478.533203125 374.810546875 c 1
 481.732421875 400.41015625 474.799804688 418.27734375 457.732421875 428.41015625 c 128
 440.666015625 438.543945312 420.399414062 440.944335938 396.932617188 435.610351562 c 128
 373.465820312 430.27734375 355.599609375 419.610351562 343.333007812 403.610351562 c 1
 342.533203125 402.810546875 l 1
 328.666015625 387.876953125 312.1328125 382.543945312 292.932617188 386.810546875 c 0
 281.19921875 388.944335938 274.666015625 392.810546875 273.333007812 398.41015625 c 128
 271.999023438 404.010742188 271.999023438 409.876953125 273.333007812 416.010742188 c 128
 274.666015625 422.143554688 280.399414062 430.143554688 290.533203125 440.010742188 c 128
 300.666015625 449.876953125 315.19921875 458.27734375 334.1328125 465.2109375 c 128
 353.06640625 472.143554688 372.1328125 476.143554688 391.333007812 477.2109375 c 0
 433.999023438 479.34375 467.06640625 471.34375 490.533203125 453.2109375 c 0
 502.265625 443.610351562 509.465820312 429.744140625 512.1328125 411.610351562 c 1
 527.599609375 431.34375 542.932617188 446.543945312 558.1328125 457.2109375 c 128
 573.333007812 467.876953125 590.533203125 475.077148438 609.732421875 478.810546875 c 0
 617.19921875 479.34375 621.732421875 477.34375 623.333007812 472.810546875 c 128
 624.932617188 468.27734375 625.333007812 464.41015625 624.533203125 461.2109375 c 128
 623.732421875 458.010742188 621.465820312 454.810546875 617.732421875 451.610351562 c 0
 610.265625 444.676757812 605.333007812 435.876953125 602.932617188 425.2109375 c 128
 600.533203125 414.543945312 601.465820312 405.2109375 605.732421875 397.2109375 c 0
 613.732421875 382.27734375 620.1328125 368.27734375 624.932617188 355.2109375 c 128
 629.732421875 342.143554688 629.465820312 327.876953125 624.1328125 312.41015625 c 128
 618.799804688 296.944335938 611.866210938 284.41015625 603.333007812 274.810546875 c 0
 585.732421875 252.944335938 564.666015625 242.010742188 540.1328125 242.010742188 c 0
 524.1328125 242.010742188 512.1328125 244.143554688 504.1328125 248.41015625 c 128
 496.1328125 252.676757812 491.599609375 256.143554688 490.533203125 258.810546875 c 1
 487.866210938 245.477539062 485.19921875 232.41015625 482.533203125 219.610351562 c 2
 466.533203125 151.610351562 l 1
EndSplineSet
Colour: ffff00
EndChar

StartChar: si_Ae
Encoding: 236 3463 235
Width: 772
VWidth: 853
Flags: HW
LayerCount: 2
Back
Fore
SplineSet
647.772460938 302.810546875 m 128
 649.639648438 311.34375 656.172851562 316.676757812 667.373046875 318.810546875 c 1
 792.172851562 318.810546875 l 2
 799.639648438 318.810546875 803.373046875 316.143554688 803.373046875 310.810546875 c 128
 803.373046875 305.477539062 800.706054688 299.077148438 795.373046875 291.610351562 c 1
 736.706054688 235.077148438 696.706054688 174.27734375 675.373046875 109.2109375 c 0
 659.373046875 61.2109375 658.439453125 26.27734375 672.572265625 4.41015625 c 128
 686.706054688 -17.4560546875 708.439453125 -16.65625 737.772460938 6.810546875 c 1
 748.439453125 12.6767578125 756.172851562 12.6767578125 760.97265625 6.810546875 c 0
 765.772460938 1.4775390625 764.706054688 -5.9892578125 757.772460938 -15.58984375 c 1
 735.373046875 -33.189453125 711.373046875 -43.3232421875 685.772460938 -45.9892578125 c 128
 660.172851562 -48.65625 639.639648438 -43.8564453125 624.172851562 -31.58984375 c 0
 594.305664062 -8.65625 592.97265625 34.9443359375 620.172851562 99.2109375 c 128
 647.373046875 163.477539062 690.83984375 225.477539062 750.572265625 285.2109375 c 1
 659.373046875 285.2109375 l 1
 649.772460938 288.41015625 645.90625 294.27734375 647.772460938 302.810546875 c 128
560.97265625 422.810546875 m 1
 540.706054688 403.077148438 527.639648438 389.077148438 521.772460938 380.810546875 c 128
 515.90625 372.543945312 510.572265625 358.543945312 505.772460938 338.810546875 c 2
 497.772460938 302.810546875 l 1
 500.97265625 295.34375 506.83984375 289.744140625 515.373046875 286.010742188 c 128
 523.90625 282.27734375 532.706054688 280.944335938 541.772460938 282.010742188 c 128
 550.83984375 283.077148438 558.97265625 287.34375 566.172851562 294.810546875 c 128
 573.373046875 302.27734375 577.239257812 311.610351562 577.772460938 322.810546875 c 128
 578.305664062 334.010742188 577.373046875 342.944335938 574.97265625 349.610351562 c 128
 572.572265625 356.27734375 569.106445312 365.34375 564.572265625 376.810546875 c 128
 560.0390625 388.27734375 558.572265625 399.876953125 560.172851562 411.610351562 c 1
 560.97265625 422.810546875 l 1
308.172851562 71.6103515625 m 0
 338.0390625 64.6767578125 371.90625 63.876953125 409.772460938 69.2109375 c 1
 472.172851562 339.610351562 l 1
 445.505859375 348.143554688 414.572265625 348.676757812 379.373046875 341.2109375 c 0
 321.239257812 329.477539062 276.97265625 301.2109375 246.572265625 256.41015625 c 0
 235.90625 241.477539062 228.172851562 222.810546875 223.373046875 200.41015625 c 128
 218.572265625 178.010742188 219.106445312 157.744140625 224.97265625 139.610351562 c 0
 236.706054688 104.41015625 264.439453125 81.744140625 308.172851562 71.6103515625 c 0
463.373046875 151.610351562 m 1
 451.373046875 96.41015625 l 1
 446.572265625 78.810546875 l 1
 451.373046875 79.876953125 457.239257812 81.4775390625 464.172851562 83.6103515625 c 2
 493.772460938 93.2109375 l 2
 506.572265625 97.4775390625 515.505859375 99.34375 520.572265625 98.810546875 c 128
 525.639648438 98.27734375 529.373046875 95.876953125 531.772460938 91.6103515625 c 128
 534.172851562 87.34375 532.439453125 81.4775390625 526.572265625 74.0107421875 c 1
 516.439453125 65.4775390625 494.305664062 56.9443359375 460.172851562 48.41015625 c 0
 452.172851562 46.27734375 444.97265625 44.1435546875 438.572265625 42.0107421875 c 1
 400.172851562 -124.389648438 l 2
 399.106445312 -129.72265625 396.572265625 -133.456054688 392.572265625 -135.58984375 c 128
 388.572265625 -137.72265625 384.439453125 -138.7890625 380.172851562 -138.7890625 c 0
 368.97265625 -138.7890625 364.172851562 -133.989257812 365.772460938 -124.389648438 c 1
 402.572265625 34.810546875 l 1
 382.305664062 32.1435546875 361.639648438 30.810546875 340.572265625 30.810546875 c 128
 319.505859375 30.810546875 299.373046875 32.6767578125 280.172851562 36.41015625 c 0
 210.83984375 49.744140625 171.106445312 83.876953125 160.97265625 138.810546875 c 0
 154.572265625 176.143554688 159.90625 213.2109375 176.97265625 250.010742188 c 0
 198.83984375 295.876953125 236.0390625 330.27734375 288.572265625 353.2109375 c 128
 341.106445312 376.143554688 403.373046875 383.34375 475.373046875 374.810546875 c 1
 478.572265625 400.41015625 471.639648438 418.27734375 454.572265625 428.41015625 c 128
 437.505859375 438.543945312 417.239257812 440.944335938 393.772460938 435.610351562 c 128
 370.305664062 430.27734375 352.439453125 419.610351562 340.172851562 403.610351562 c 1
 339.373046875 402.810546875 l 1
 325.505859375 387.876953125 308.97265625 382.543945312 289.772460938 386.810546875 c 0
 278.0390625 388.944335938 271.505859375 392.810546875 270.172851562 398.41015625 c 128
 268.83984375 404.010742188 268.83984375 409.876953125 270.172851562 416.010742188 c 128
 271.505859375 422.143554688 277.239257812 430.143554688 287.373046875 440.010742188 c 128
 297.505859375 449.876953125 312.0390625 458.27734375 330.97265625 465.2109375 c 128
 349.90625 472.143554688 368.97265625 476.143554688 388.172851562 477.2109375 c 0
 430.83984375 479.34375 463.90625 471.34375 487.373046875 453.2109375 c 0
 499.106445312 443.610351562 506.305664062 429.744140625 508.97265625 411.610351562 c 1
 524.439453125 431.34375 539.772460938 446.543945312 554.97265625 457.2109375 c 128
 570.172851562 467.876953125 587.373046875 475.077148438 606.572265625 478.810546875 c 0
 614.0390625 479.34375 618.572265625 477.34375 620.172851562 472.810546875 c 128
 621.772460938 468.27734375 622.172851562 464.41015625 621.373046875 461.2109375 c 128
 620.572265625 458.010742188 618.305664062 454.810546875 614.572265625 451.610351562 c 0
 607.106445312 444.676757812 602.172851562 435.876953125 599.772460938 425.2109375 c 128
 597.373046875 414.543945312 598.305664062 405.2109375 602.572265625 397.2109375 c 0
 610.572265625 382.27734375 616.97265625 368.27734375 621.772460938 355.2109375 c 128
 626.572265625 342.143554688 626.305664062 327.876953125 620.97265625 312.41015625 c 128
 615.639648438 296.944335938 608.706054688 284.41015625 600.172851562 274.810546875 c 0
 582.572265625 252.944335938 561.505859375 242.010742188 536.97265625 242.010742188 c 0
 520.97265625 242.010742188 508.97265625 244.143554688 500.97265625 248.41015625 c 128
 492.97265625 252.676757812 488.439453125 256.143554688 487.373046875 258.810546875 c 1
 484.706054688 245.477539062 482.0390625 232.41015625 479.373046875 219.610351562 c 2
 463.373046875 151.610351562 l 1
EndSplineSet
Colour: ffff00
EndChar

StartChar: si_Aae
Encoding: 237 3464 236
Width: 782
VWidth: 853
Flags: HW
LayerCount: 2
Back
Fore
SplineSet
654.094726562 302.810546875 m 128
 656.228515625 311.34375 662.627929688 316.676757812 673.294921875 318.810546875 c 1
 790.89453125 318.810546875 l 1
 799.961914062 317.744140625 805.028320312 314.010742188 806.094726562 307.610351562 c 128
 807.161132812 301.2109375 803.428710938 294.810546875 794.89453125 288.41015625 c 1
 781.561523438 280.944335938 768.361328125 273.077148438 755.294921875 264.810546875 c 128
 742.228515625 256.543945312 729.028320312 248.41015625 715.6953125 240.41015625 c 1
 773.294921875 240.41015625 l 2
 780.76171875 240.41015625 784.76171875 237.610351562 785.294921875 232.010742188 c 128
 785.828125 226.41015625 783.428710938 220.143554688 778.094726562 213.2109375 c 1
 747.6953125 184.41015625 722.627929688 156.41015625 702.89453125 129.2109375 c 128
 683.161132812 102.010742188 672.228515625 75.34375 670.094726562 49.2109375 c 0
 669.028320312 33.2109375 672.495117188 19.0771484375 680.495117188 6.810546875 c 0
 694.89453125 -15.0556640625 716.495117188 -14.255859375 745.294921875 9.2109375 c 1
 755.961914062 15.0771484375 763.6953125 15.0771484375 768.495117188 9.2109375 c 128
 773.294921875 3.34375 772.228515625 -4.3896484375 765.294921875 -13.9892578125 c 1
 742.89453125 -31.0556640625 719.161132812 -40.9228515625 694.094726562 -43.58984375 c 0
 653.028320312 -47.8564453125 625.961914062 -34.5224609375 612.89453125 -3.58984375 c 128
 599.828125 27.34375 612.228515625 70.0107421875 650.094726562 124.41015625 c 0
 675.161132812 160.143554688 701.561523438 187.610351562 729.294921875 206.810546875 c 1
 651.6953125 206.810546875 l 1
 644.76171875 208.944335938 640.89453125 212.810546875 640.094726562 218.41015625 c 0
 639.294921875 223.477539062 642.094726562 229.2109375 648.495117188 235.610351562 c 1
 684.228515625 256.944335938 711.6953125 273.477539062 730.89453125 285.2109375 c 1
 666.094726562 285.2109375 l 1
 655.961914062 288.41015625 651.961914062 294.27734375 654.094726562 302.810546875 c 128
561.294921875 422.810546875 m 1
 541.028320312 403.077148438 527.961914062 389.077148438 522.094726562 380.810546875 c 128
 516.228515625 372.543945312 510.89453125 358.543945312 506.094726562 338.810546875 c 2
 498.094726562 302.810546875 l 1
 501.294921875 295.34375 507.161132812 289.744140625 515.6953125 286.010742188 c 128
 524.228515625 282.27734375 533.028320312 280.944335938 542.094726562 282.010742188 c 128
 551.161132812 283.077148438 559.294921875 287.34375 566.495117188 294.810546875 c 128
 573.6953125 302.27734375 577.561523438 311.610351562 578.094726562 322.810546875 c 128
 578.627929688 334.010742188 577.6953125 342.944335938 575.294921875 349.610351562 c 128
 572.89453125 356.27734375 569.428710938 365.34375 564.89453125 376.810546875 c 128
 560.361328125 388.27734375 558.89453125 399.876953125 560.495117188 411.610351562 c 1
 561.294921875 422.810546875 l 1
308.495117188 71.6103515625 m 0
 338.361328125 64.6767578125 372.228515625 63.876953125 410.094726562 69.2109375 c 1
 472.495117188 339.610351562 l 1
 445.828125 348.143554688 414.89453125 348.676757812 379.6953125 341.2109375 c 0
 321.561523438 329.477539062 277.294921875 301.2109375 246.89453125 256.41015625 c 0
 236.228515625 241.477539062 228.495117188 222.810546875 223.6953125 200.41015625 c 128
 218.89453125 178.010742188 219.428710938 157.744140625 225.294921875 139.610351562 c 0
 237.028320312 104.41015625 264.76171875 81.744140625 308.495117188 71.6103515625 c 0
463.6953125 151.610351562 m 1
 451.6953125 96.41015625 l 1
 446.89453125 78.810546875 l 1
 451.6953125 79.876953125 457.561523438 81.4775390625 464.495117188 83.6103515625 c 2
 494.094726562 93.2109375 l 2
 506.89453125 97.4775390625 515.828125 99.34375 520.89453125 98.810546875 c 128
 525.961914062 98.27734375 529.6953125 95.876953125 532.094726562 91.6103515625 c 128
 534.495117188 87.34375 532.76171875 81.4775390625 526.89453125 74.0107421875 c 1
 516.76171875 65.4775390625 494.627929688 56.9443359375 460.495117188 48.41015625 c 0
 452.495117188 46.27734375 445.294921875 44.1435546875 438.89453125 42.0107421875 c 1
 400.495117188 -124.389648438 l 2
 399.428710938 -129.72265625 396.89453125 -133.456054688 392.89453125 -135.58984375 c 128
 388.89453125 -137.72265625 384.76171875 -138.7890625 380.495117188 -138.7890625 c 0
 369.294921875 -138.7890625 364.495117188 -133.989257812 366.094726562 -124.389648438 c 1
 402.89453125 34.810546875 l 1
 382.627929688 32.1435546875 361.961914062 30.810546875 340.89453125 30.810546875 c 128
 319.828125 30.810546875 299.6953125 32.6767578125 280.495117188 36.41015625 c 0
 211.161132812 49.744140625 171.428710938 83.876953125 161.294921875 138.810546875 c 0
 154.89453125 176.143554688 160.228515625 213.2109375 177.294921875 250.010742188 c 0
 199.161132812 295.876953125 236.361328125 330.27734375 288.89453125 353.2109375 c 128
 341.428710938 376.143554688 403.6953125 383.34375 475.6953125 374.810546875 c 1
 478.89453125 400.41015625 471.961914062 418.27734375 454.89453125 428.41015625 c 128
 437.828125 438.543945312 417.561523438 440.944335938 394.094726562 435.610351562 c 128
 370.627929688 430.27734375 352.76171875 419.610351562 340.495117188 403.610351562 c 1
 339.6953125 402.810546875 l 1
 325.828125 387.876953125 309.294921875 382.543945312 290.094726562 386.810546875 c 0
 278.361328125 388.944335938 271.828125 392.810546875 270.495117188 398.41015625 c 128
 269.161132812 404.010742188 269.161132812 409.876953125 270.495117188 416.010742188 c 128
 271.828125 422.143554688 277.561523438 430.143554688 287.6953125 440.010742188 c 128
 297.828125 449.876953125 312.361328125 458.27734375 331.294921875 465.2109375 c 128
 350.228515625 472.143554688 369.294921875 476.143554688 388.495117188 477.2109375 c 0
 431.161132812 479.34375 464.228515625 471.34375 487.6953125 453.2109375 c 0
 499.428710938 443.610351562 506.627929688 429.744140625 509.294921875 411.610351562 c 1
 524.76171875 431.34375 540.094726562 446.543945312 555.294921875 457.2109375 c 128
 570.495117188 467.876953125 587.6953125 475.077148438 606.89453125 478.810546875 c 0
 614.361328125 479.34375 618.89453125 477.34375 620.495117188 472.810546875 c 128
 622.094726562 468.27734375 622.495117188 464.41015625 621.6953125 461.2109375 c 128
 620.89453125 458.010742188 618.627929688 454.810546875 614.89453125 451.610351562 c 0
 607.428710938 444.676757812 602.495117188 435.876953125 600.094726562 425.2109375 c 128
 597.6953125 414.543945312 598.627929688 405.2109375 602.89453125 397.2109375 c 0
 610.89453125 382.27734375 617.294921875 368.27734375 622.094726562 355.2109375 c 128
 626.89453125 342.143554688 626.627929688 327.876953125 621.294921875 312.41015625 c 128
 615.961914062 296.944335938 609.028320312 284.41015625 600.495117188 274.810546875 c 0
 582.89453125 252.944335938 561.828125 242.010742188 537.294921875 242.010742188 c 0
 521.294921875 242.010742188 509.294921875 244.143554688 501.294921875 248.41015625 c 128
 493.294921875 252.676757812 488.76171875 256.143554688 487.6953125 258.810546875 c 1
 485.028320312 245.477539062 482.361328125 232.41015625 479.6953125 219.610351562 c 2
 463.6953125 151.610351562 l 1
EndSplineSet
Colour: ffff00
EndChar

StartChar: si_I
Encoding: 238 3465 237
Width: 573
VWidth: 851
Flags: HW
LayerCount: 2
Back
Fore
SplineSet
436.599609375 258.01953125 m 1
 439.266601562 287.88671875 428.06640625 306.553710938 403 314.01953125 c 0
 387.533203125 318.8203125 371 316.953125 353.399414062 308.419921875 c 0
 336.333007812 300.419921875 323.266601562 288.419921875 314.19921875 272.419921875 c 0
 309.932617188 263.88671875 307.533203125 255.353515625 307 246.8203125 c 1
 304.866210938 234.553710938 306.466796875 224.286132812 311.799804688 216.01953125 c 128
 317.1328125 207.752929688 324.599609375 201.752929688 334.19921875 198.01953125 c 0
 355.533203125 189.486328125 376.19921875 190.953125 396.19921875 202.419921875 c 128
 416.19921875 213.88671875 429.666015625 232.419921875 436.599609375 258.01953125 c 1
359.799804688 32.419921875 m 1
 312.333007812 24.953125 269.932617188 25.2197265625 232.599609375 33.2197265625 c 0
 224.599609375 34.8203125 217.932617188 38.2861328125 212.599609375 43.6201171875 c 0
 209.932617188 47.88671875 209.399414062 52.5537109375 211 57.6201171875 c 128
 212.599609375 62.6865234375 215.399414062 66.2861328125 219.399414062 68.419921875 c 128
 223.399414062 70.5537109375 227.1328125 71.486328125 230.599609375 71.2197265625 c 128
 234.06640625 70.953125 237.932617188 70.419921875 242.19921875 69.6201171875 c 128
 246.466796875 68.8203125 251.266601562 67.88671875 256.599609375 66.8203125 c 0
 261.399414062 65.2197265625 269.1328125 63.88671875 279.799804688 62.8203125 c 0
 341.666015625 55.353515625 397.666015625 67.6201171875 447.799804688 99.6201171875 c 0
 475 116.686523438 496.866210938 136.953125 513.399414062 160.419921875 c 0
 529.932617188 183.353515625 541.1328125 206.553710938 547 230.01953125 c 0
 559.266601562 279.086914062 551.533203125 322.286132812 523.799804688 359.620117188 c 128
 496.06640625 396.953125 455.799804688 415.086914062 403 414.01953125 c 0
 362.466796875 412.953125 324.06640625 402.153320312 287.799804688 381.620117188 c 128
 251.533203125 361.086914062 224.19921875 334.8203125 205.799804688 302.8203125 c 128
 187.399414062 270.8203125 182.733398438 238.286132812 191.799804688 205.219726562 c 0
 202.466796875 166.8203125 229.399414062 143.353515625 272.599609375 134.8203125 c 0
 300.333007812 129.486328125 325.666015625 131.88671875 348.599609375 142.01953125 c 0
 360.866210938 146.8203125 373.666015625 154.01953125 387 163.620117188 c 1
 357.666015625 156.153320312 331.799804688 157.88671875 309.399414062 168.8203125 c 0
 287 180.286132812 274.466796875 198.8203125 271.799804688 224.419921875 c 0
 268.06640625 257.486328125 280.333007812 287.486328125 308.599609375 314.419921875 c 128
 336.866210938 341.353515625 368.466796875 352.686523438 403.399414062 348.419921875 c 128
 438.333007812 344.153320312 459.932617188 327.486328125 468.19921875 298.419921875 c 128
 476.466796875 269.353515625 471.1328125 235.752929688 452.19921875 197.620117188 c 128
 433.266601562 159.486328125 405.399414062 132.01953125 368.599609375 115.219726562 c 128
 331.799804688 98.419921875 293.932617188 93.7529296875 255 101.219726562 c 0
 208.06640625 109.752929688 176.866210938 136.419921875 161.399414062 181.219726562 c 0
 141.1328125 239.88671875 153.666015625 301.219726562 199 365.219726562 c 128
 244.333007812 429.219726562 306.466796875 465.752929688 385.399414062 474.8203125 c 0
 450.466796875 482.286132812 502.466796875 469.486328125 541.399414062 436.419921875 c 0
 574.466796875 408.686523438 593 372.553710938 597 328.01953125 c 128
 601 283.486328125 592.866210938 240.419921875 572.599609375 198.8203125 c 128
 552.333007812 157.219726562 527.666015625 124.286132812 498.599609375 100.01953125 c 0
 469.533203125 76.2861328125 435.533203125 56.953125 396.599609375 42.01953125 c 1
 415.266601562 15.353515625 420.06640625 -15.3134765625 411 -49.98046875 c 128
 401.932617188 -84.646484375 382.466796875 -111.580078125 352.599609375 -130.780273438 c 0
 322.19921875 -150.513671875 291 -156.913085938 259 -149.98046875 c 0
 243 -146.780273438 230.866210938 -141.046875 222.599609375 -132.780273438 c 128
 214.333007812 -124.513671875 208.866210938 -116.11328125 206.19921875 -107.580078125 c 0
 204.06640625 -99.580078125 203.533203125 -91.046875 204.599609375 -81.98046875 c 0
 207.266601562 -62.7802734375 215.799804688 -45.580078125 230.19921875 -30.3798828125 c 128
 244.599609375 -15.1796875 262.19921875 -7.046875 283 -5.98046875 c 0
 293.666015625 -4.9130859375 304.866210938 -7.580078125 316.599609375 -13.98046875 c 1
 321.399414062 -18.2470703125 322.733398438 -23.046875 320.599609375 -28.3798828125 c 0
 316.866210938 -37.98046875 311 -43.3134765625 303 -44.3798828125 c 1
 286.19921875 -41.1796875 l 1
 276.599609375 -40.646484375 268.599609375 -44.513671875 262.19921875 -52.7802734375 c 128
 255.799804688 -61.046875 252.333007812 -69.4462890625 251.799804688 -77.98046875 c 0
 250.733398438 -92.3798828125 257.1328125 -103.1796875 271 -110.379882812 c 128
 284.866210938 -117.580078125 299.533203125 -119.046875 315 -114.780273438 c 0
 342.19921875 -107.846679688 360.866210938 -90.11328125 371 -61.580078125 c 128
 381.1328125 -33.046875 381.399414062 -9.4462890625 371.799804688 9.2197265625 c 2
 359.799804688 32.419921875 l 1
EndSplineSet
Colour: ffff00
EndChar

StartChar: si_Ii
Encoding: 239 3466 238
Width: 677
VWidth: 895
Flags: HW
LayerCount: 2
Back
Fore
SplineSet
395.458984375 436.631835938 m 1
 390.125 436.631835938 375.325195312 430.765625 351.05859375 419.032226562 c 128
 326.791992188 407.298828125 306.924804688 396.631835938 291.458984375 387.032226562 c 0
 257.858398438 365.165039062 232.125 339.698242188 214.258789062 310.631835938 c 128
 196.391601562 281.565429688 190.391601562 248.8984375 196.258789062 212.631835938 c 0
 203.192382812 170.499023438 241.05859375 145.698242188 309.858398438 138.232421875 c 0
 347.192382812 133.96484375 380.924804688 134.232421875 411.05859375 139.032226562 c 128
 441.192382812 143.83203125 463.458984375 148.365234375 477.858398438 152.631835938 c 0
 492.258789062 156.365234375 506.658203125 162.499023438 521.05859375 171.032226562 c 0
 535.9921875 179.565429688 550.125 189.431640625 563.458984375 200.631835938 c 0
 592.791992188 225.165039062 613.725585938 252.631835938 626.258789062 283.032226562 c 0
 638.791992188 313.96484375 638.125 342.765625 624.258789062 369.431640625 c 0
 607.192382812 403.032226562 575.9921875 425.698242188 530.658203125 437.431640625 c 128
 485.325195312 449.165039062 440.258789062 448.8984375 395.458984375 436.631835938 c 1
670.658203125 652.232421875 m 128
 674.924804688 658.365234375 679.458984375 664.8984375 684.258789062 671.83203125 c 128
 689.05859375 678.765625 694.525390625 684.098632812 700.658203125 687.83203125 c 0
 706.791992188 691.032226562 712.525390625 693.165039062 717.858398438 694.232421875 c 0
 729.591796875 695.83203125 738.791992188 692.765625 745.458984375 685.032226562 c 128
 752.125 677.298828125 751.192382812 668.365234375 742.658203125 658.232421875 c 1
 710.658203125 606.499023438 632.791992188 549.165039062 509.05859375 486.232421875 c 1
 496.258789062 479.83203125 l 1
 578.391601562 468.631835938 631.9921875 439.032226562 657.05859375 391.032226562 c 0
 674.658203125 358.499023438 677.325195312 321.431640625 665.05859375 279.83203125 c 0
 639.9921875 191.298828125 581.858398438 129.698242188 490.658203125 95.0322265625 c 0
 439.458984375 75.83203125 387.591796875 68.365234375 335.05859375 72.6318359375 c 128
 282.525390625 76.8984375 239.458984375 93.6982421875 205.858398438 123.032226562 c 0
 188.791992188 137.96484375 175.9921875 156.098632812 167.458984375 177.431640625 c 0
 151.458984375 217.96484375 154.791992188 260.631835938 177.458984375 305.431640625 c 128
 200.125 350.232421875 233.591796875 386.499023438 277.858398438 414.232421875 c 0
 311.458984375 434.499023438 356.658203125 455.96484375 413.458984375 478.631835938 c 128
 470.258789062 501.298828125 513.325195312 522.098632812 542.658203125 541.032226562 c 128
 571.9921875 559.96484375 593.9921875 575.565429688 608.658203125 587.83203125 c 128
 623.325195312 600.098632812 633.725585938 609.431640625 639.858398438 615.83203125 c 128
 645.9921875 622.232421875 651.591796875 628.365234375 656.658203125 634.232421875 c 128
 661.725585938 640.098632812 666.391601562 646.098632812 670.658203125 652.232421875 c 128
555.458984375 617.431640625 m 1
 560.791992188 628.098632812 562.125 636.8984375 559.458984375 643.83203125 c 128
 556.791992188 650.765625 552.258789062 655.698242188 545.858398438 658.631835938 c 128
 539.458984375 661.565429688 531.9921875 661.83203125 523.458984375 659.431640625 c 128
 514.924804688 657.032226562 507.9921875 652.365234375 502.658203125 645.431640625 c 0
 493.591796875 634.765625 490.791992188 624.232421875 494.258789062 613.83203125 c 128
 497.725585938 603.431640625 504.258789062 597.698242188 513.858398438 596.631835938 c 0
 530.924804688 595.565429688 544.791992188 602.499023438 555.458984375 617.431640625 c 1
593.858398438 630.232421875 m 1
 587.9921875 605.698242188 574.391601562 587.298828125 553.05859375 575.032226562 c 128
 531.725585938 562.765625 511.325195312 559.298828125 491.858398438 564.631835938 c 128
 472.391601562 569.96484375 461.05859375 583.032226562 457.858398438 603.83203125 c 0
 456.258789062 613.96484375 457.325195312 624.8984375 461.05859375 636.631835938 c 0
 468.525390625 660.098632812 485.05859375 677.032226562 510.658203125 687.431640625 c 128
 536.258789062 697.83203125 557.325195312 697.298828125 573.858398438 685.83203125 c 128
 590.391601562 674.365234375 597.325195312 658.499023438 594.658203125 638.232421875 c 2
 593.858398438 630.232421875 l 1
725.858398438 491.032226562 m 1
 731.192382812 501.698242188 732.525390625 510.499023438 729.858398438 517.431640625 c 128
 727.192382812 524.365234375 722.658203125 529.298828125 716.258789062 532.232421875 c 0
 709.858398438 534.631835938 702.391601562 534.765625 693.858398438 532.631835938 c 0
 684.791992188 530.499023438 677.858398438 525.96484375 673.05859375 519.032226562 c 0
 663.9921875 508.365234375 661.192382812 497.83203125 664.658203125 487.431640625 c 128
 668.125 477.032226562 674.658203125 471.298828125 684.258789062 470.232421875 c 0
 701.325195312 469.165039062 715.192382812 476.098632812 725.858398438 491.032226562 c 1
764.258789062 503.83203125 m 1
 758.391601562 479.298828125 744.791992188 460.8984375 723.458984375 448.631835938 c 128
 702.125 436.365234375 681.591796875 432.8984375 661.858398438 438.232421875 c 128
 642.125 443.565429688 630.924804688 456.631835938 628.258789062 477.431640625 c 0
 626.658203125 487.565429688 627.725585938 498.499023438 631.458984375 510.232421875 c 0
 638.924804688 533.698242188 655.458984375 550.631835938 681.05859375 561.032226562 c 128
 706.658203125 571.431640625 726.924804688 571.298828125 741.858398438 560.631835938 c 0
 756.791992188 549.431640625 764.258789062 536.365234375 764.258789062 521.431640625 c 0
 764.258789062 517.165039062 764.525390625 513.96484375 765.05859375 511.83203125 c 2
 764.258789062 503.83203125 l 1
EndSplineSet
Colour: ffff00
EndChar

StartChar: si_U
Encoding: 240 3467 239
Width: 584
VWidth: 850
Flags: HW
LayerCount: 2
Back
Fore
SplineSet
570.352539062 365.100585938 m 128
 571.15234375 367.234375 572.219726562 371.900390625 573.552734375 379.100585938 c 128
 574.885742188 386.30078125 573.953125 394.166992188 570.752929688 402.701171875 c 0
 567.552734375 411.234375 562.486328125 418.166992188 555.552734375 423.500976562 c 0
 542.752929688 433.100585938 525.418945312 436.833984375 503.552734375 434.701171875 c 0
 472.619140625 431.500976562 450.219726562 420.30078125 436.352539062 401.100585938 c 1
 435.552734375 400.30078125 l 1
 421.686523438 385.3671875 405.15234375 380.034179688 385.953125 384.30078125 c 0
 374.219726562 386.434570312 367.686523438 390.30078125 366.352539062 395.900390625 c 128
 365.01953125 401.500976562 365.01953125 407.3671875 366.352539062 413.500976562 c 128
 367.686523438 419.633789062 373.418945312 427.633789062 383.552734375 437.500976562 c 128
 393.686523438 447.3671875 408.219726562 455.767578125 427.15234375 462.701171875 c 128
 446.0859375 469.633789062 465.418945312 473.633789062 485.15234375 474.701171875 c 0
 558.752929688 480.034179688 599.01953125 455.767578125 605.953125 401.900390625 c 0
 609.686523438 377.900390625 607.01953125 356.30078125 597.953125 337.100585938 c 0
 594.219726562 328.567382812 587.819335938 324.833984375 578.752929688 325.900390625 c 0
 569.686523438 326.967773438 557.686523438 328.567382812 542.752929688 330.701171875 c 0
 462.752929688 342.434570312 396.219726562 337.633789062 343.15234375 316.30078125 c 128
 290.0859375 294.967773438 248.0859375 261.3671875 217.15234375 215.500976562 c 128
 186.219726562 169.633789062 171.819335938 120.567382812 173.953125 68.30078125 c 0
 176.0859375 0.0341796875 204.0859375 -50.8994140625 257.953125 -84.4990234375 c 0
 303.286132812 -112.765625 352.352539062 -122.099609375 405.15234375 -112.499023438 c 0
 457.418945312 -102.899414062 496.352539062 -77.8330078125 521.953125 -37.298828125 c 0
 537.953125 -11.69921875 545.418945312 14.4345703125 544.352539062 41.1005859375 c 1
 545.418945312 51.767578125 551.01953125 58.1669921875 561.15234375 60.30078125 c 128
 571.286132812 62.4345703125 577.15234375 58.701171875 578.752929688 49.1005859375 c 1
 578.219726562 19.234375 573.418945312 -5.5654296875 564.352539062 -25.298828125 c 128
 555.286132812 -45.0322265625 543.15234375 -62.765625 527.953125 -78.4990234375 c 128
 512.752929688 -94.232421875 496.0859375 -107.69921875 477.953125 -118.899414062 c 0
 443.286132812 -140.232421875 404.0859375 -153.298828125 360.352539062 -158.099609375 c 128
 316.619140625 -162.899414062 279.01953125 -160.232421875 247.552734375 -150.099609375 c 0
 185.686523438 -129.833007812 144.0859375 -91.9658203125 122.752929688 -36.4990234375 c 0
 103.552734375 10.9677734375 103.01953125 67.234375 121.15234375 132.30078125 c 0
 140.352539062 200.567382812 176.885742188 255.767578125 230.752929688 297.900390625 c 0
 274.486328125 332.034179688 325.552734375 353.767578125 383.953125 363.100585938 c 128
 442.352539062 372.434570312 502.752929688 372.30078125 565.15234375 362.701171875 c 0
 567.819335938 362.166992188 569.552734375 362.967773438 570.352539062 365.100585938 c 128
EndSplineSet
Colour: ffff00
EndChar

StartChar: si_Uu
Encoding: 241 3468 240
Width: 886
VWidth: 850
Flags: HW
LayerCount: 2
Back
Fore
SplineSet
821.850585938 293.900390625 m 0
 818.651367188 281.100585938 808.517578125 267.500976562 791.451171875 253.100585938 c 128
 774.384765625 238.701171875 754.118164062 231.500976562 730.651367188 231.500976562 c 128
 707.184570312 231.500976562 690.118164062 239.500976562 679.451171875 255.500976562 c 0
 663.984375 277.900390625 663.451171875 308.034179688 677.850585938 345.900390625 c 0
 694.91796875 389.100585938 722.651367188 415.500976562 761.05078125 425.100585938 c 1
 771.717773438 424.034179688 776.784179688 419.234375 776.250976562 410.701171875 c 128
 775.717773438 402.166992188 770.118164062 396.034179688 759.451171875 392.30078125 c 1
 750.384765625 389.633789062 742.118164062 385.100585938 734.651367188 378.701171875 c 0
 719.717773438 364.833984375 709.717773438 347.500976562 704.651367188 326.701171875 c 128
 699.583984375 305.900390625 701.850585938 288.833984375 711.451171875 275.500976562 c 128
 721.05078125 262.166992188 737.583984375 260.30078125 761.05078125 269.900390625 c 0
 766.384765625 272.034179688 772.250976562 275.500976562 778.651367188 280.30078125 c 0
 784.517578125 284.567382812 787.984375 292.833984375 789.05078125 305.100585938 c 0
 791.184570312 323.767578125 785.05078125 333.100585938 770.651367188 333.100585938 c 1
 761.05078125 335.767578125 757.317382812 342.434570312 759.451171875 353.100585938 c 0
 766.384765625 382.967773438 789.583984375 405.900390625 829.05078125 421.900390625 c 0
 843.984375 428.30078125 860.517578125 429.633789062 878.651367188 425.900390625 c 0
 933.05078125 414.166992188 944.784179688 346.967773438 913.850585938 224.30078125 c 0
 898.91796875 163.500976562 870.384765625 113.633789062 828.250976562 74.701171875 c 0
 801.05078125 49.1005859375 774.91796875 34.1669921875 749.850585938 29.900390625 c 0
 715.184570312 24.0341796875 685.850585938 30.1669921875 661.850585938 48.30078125 c 0
 645.317382812 60.5673828125 637.317382812 76.30078125 637.850585938 95.5009765625 c 1
 640.517578125 106.166992188 646.250976562 112.701171875 655.05078125 115.100585938 c 128
 663.850585938 117.500976562 669.583984375 113.900390625 672.250976562 104.30078125 c 1
 672.250976562 95.767578125 674.91796875 88.5673828125 680.250976562 82.701171875 c 128
 685.583984375 76.833984375 694.384765625 71.6337890625 706.651367188 67.1005859375 c 128
 718.91796875 62.5673828125 734.118164062 62.4345703125 752.250976562 66.701171875 c 1
 791.717773438 79.5009765625 824.250976562 121.633789062 849.850585938 193.100585938 c 0
 855.184570312 207.500976562 859.717773438 222.034179688 863.451171875 236.701171875 c 128
 867.184570312 251.3671875 870.91796875 269.900390625 874.651367188 292.30078125 c 128
 878.384765625 314.701171875 877.317382812 336.567382812 871.451171875 357.900390625 c 128
 865.583984375 379.234375 851.451171875 388.034179688 829.05078125 384.30078125 c 0
 816.250976562 382.166992188 806.118164062 374.701171875 798.651367188 361.900390625 c 1
 822.118164062 350.701171875 829.850585938 328.034179688 821.850585938 293.900390625 c 0
606.250976562 365.100585938 m 128
 607.05078125 367.234375 608.118164062 371.900390625 609.451171875 379.100585938 c 128
 610.784179688 386.30078125 609.850585938 394.166992188 606.651367188 402.701171875 c 0
 603.451171875 411.234375 598.384765625 418.166992188 591.451171875 423.500976562 c 0
 578.651367188 433.100585938 561.317382812 436.833984375 539.451171875 434.701171875 c 0
 508.517578125 431.500976562 486.118164062 420.30078125 472.250976562 401.100585938 c 1
 471.451171875 400.30078125 l 1
 457.583984375 385.3671875 441.05078125 380.034179688 421.850585938 384.30078125 c 0
 410.118164062 386.434570312 403.583984375 390.30078125 402.250976562 395.900390625 c 128
 400.91796875 401.500976562 400.91796875 407.3671875 402.250976562 413.500976562 c 128
 403.583984375 419.633789062 409.317382812 427.633789062 419.451171875 437.500976562 c 128
 429.583984375 447.3671875 444.118164062 455.767578125 463.05078125 462.701171875 c 128
 481.984375 469.633789062 501.317382812 473.633789062 521.05078125 474.701171875 c 0
 594.651367188 480.034179688 634.91796875 455.767578125 641.850585938 401.900390625 c 0
 645.583984375 377.900390625 642.91796875 356.30078125 633.850585938 337.100585938 c 0
 630.118164062 328.567382812 623.717773438 324.833984375 614.651367188 325.900390625 c 0
 605.583984375 326.967773438 593.583984375 328.567382812 578.651367188 330.701171875 c 0
 498.651367188 342.434570312 432.118164062 337.633789062 379.05078125 316.30078125 c 128
 325.984375 294.967773438 283.984375 261.3671875 253.05078125 215.500976562 c 128
 222.118164062 169.633789062 207.717773438 120.567382812 209.850585938 68.30078125 c 0
 211.984375 0.0341796875 239.984375 -50.8994140625 293.850585938 -84.4990234375 c 0
 339.184570312 -112.765625 388.250976562 -122.099609375 441.05078125 -112.499023438 c 0
 493.317382812 -102.899414062 532.250976562 -77.8330078125 557.850585938 -37.298828125 c 0
 573.850585938 -11.69921875 581.317382812 14.4345703125 580.250976562 41.1005859375 c 1
 581.317382812 51.767578125 586.91796875 58.1669921875 597.05078125 60.30078125 c 128
 607.184570312 62.4345703125 613.05078125 58.701171875 614.651367188 49.1005859375 c 1
 614.118164062 19.234375 609.317382812 -5.5654296875 600.250976562 -25.298828125 c 128
 591.184570312 -45.0322265625 579.05078125 -62.765625 563.850585938 -78.4990234375 c 128
 548.651367188 -94.232421875 531.984375 -107.69921875 513.850585938 -118.899414062 c 0
 479.184570312 -140.232421875 439.984375 -153.298828125 396.250976562 -158.099609375 c 128
 352.517578125 -162.899414062 314.91796875 -160.232421875 283.451171875 -150.099609375 c 0
 221.583984375 -129.833007812 179.984375 -91.9658203125 158.651367188 -36.4990234375 c 0
 139.451171875 10.9677734375 138.91796875 67.234375 157.05078125 132.30078125 c 0
 176.250976562 200.567382812 212.784179688 255.767578125 266.651367188 297.900390625 c 0
 310.384765625 331.500976562 361.717773438 353.100585938 420.651367188 362.701171875 c 128
 479.583984375 372.30078125 539.717773438 372.30078125 601.05078125 362.701171875 c 0
 603.717773438 362.166992188 605.451171875 362.967773438 606.250976562 365.100585938 c 128
EndSplineSet
Colour: ffff00
EndChar

StartChar: si_vocalicR
Encoding: 242 3469 241
Width: 974
VWidth: 874
Flags: HW
LayerCount: 2
Back
Fore
SplineSet
910.96484375 117.5546875 m 1
 930.165039062 162.354492188 l 2
 932.831054688 168.754882812 935.764648438 177.821289062 938.96484375 189.5546875 c 2
 942.96484375 207.154296875 l 1
 940.297851562 219.955078125 927.498046875 229.021484375 904.564453125 234.354492188 c 128
 881.630859375 239.6875 858.165039062 239.154296875 834.165039062 232.754882812 c 0
 821.364257812 229.5546875 808.831054688 221.021484375 796.564453125 207.154296875 c 0
 773.630859375 181.5546875 766.165039062 156.221679688 774.165039062 131.154296875 c 0
 778.431640625 117.288085938 787.498046875 109.821289062 801.364257812 108.754882812 c 0
 810.431640625 108.221679688 819.8984375 111.420898438 829.764648438 118.354492188 c 128
 839.630859375 125.288085938 847.09765625 130.62109375 852.165039062 134.354492188 c 128
 857.231445312 138.087890625 862.96484375 140.48828125 869.364257812 141.5546875 c 0
 888.03125 145.288085938 901.8984375 137.288085938 910.96484375 117.5546875 c 1
738.96484375 179.154296875 m 0
 763.498046875 234.62109375 805.09765625 265.021484375 863.764648438 270.354492188 c 0
 896.831054688 273.5546875 927.764648438 266.087890625 956.564453125 247.955078125 c 1
 961.364257812 264.48828125 964.297851562 279.955078125 965.364257812 294.354492188 c 0
 971.764648438 365.821289062 953.364257812 406.087890625 910.165039062 415.154296875 c 0
 891.498046875 419.420898438 870.165039062 415.154296875 846.165039062 402.354492188 c 0
 832.297851562 395.420898438 822.96484375 386.354492188 818.165039062 375.154296875 c 1
 811.231445312 365.5546875 803.764648438 361.821289062 795.764648438 363.955078125 c 128
 787.764648438 366.087890625 785.09765625 372.48828125 787.764648438 383.154296875 c 1
 792.03125 392.754882812 798.698242188 401.821289062 807.764648438 410.354492188 c 0
 843.498046875 442.354492188 881.630859375 455.6875 922.165039062 450.354492188 c 0
 952.564453125 446.087890625 974.431640625 432.754882812 987.764648438 410.354492188 c 0
 1016.56445312 363.420898438 1018.43164062 298.354492188 993.364257812 215.154296875 c 0
 984.297851562 186.354492188 974.165039062 159.6875 962.96484375 135.154296875 c 0
 940.03125 86.087890625 921.630859375 58.8876953125 907.764648438 53.5546875 c 0
 895.498046875 49.2880859375 888.831054688 51.955078125 887.764648438 61.5546875 c 0
 884.564453125 79.6875 877.09765625 89.5546875 865.364257812 91.154296875 c 1
 857.8984375 87.4208984375 849.09765625 81.5546875 838.96484375 73.5546875 c 128
 828.831054688 65.5546875 816.564453125 58.8876953125 802.165039062 53.5546875 c 128
 787.764648438 48.2216796875 771.8984375 51.4208984375 754.564453125 63.154296875 c 128
 737.231445312 74.8876953125 727.764648438 91.2880859375 726.165039062 112.354492188 c 128
 724.564453125 133.420898438 728.831054688 155.6875 738.96484375 179.154296875 c 0
399.764648438 399.154296875 m 0
 414.165039062 399.154296875 414.165039062 399.154296875 425.764648438 399.154296875 c 128
 433.498046875 399.154296875 437.630859375 401.288085938 438.165039062 405.5546875 c 0
 441.8984375 419.420898438 440.831054688 430.087890625 434.96484375 437.5546875 c 0
 424.297851562 454.087890625 407.231445312 460.087890625 383.764648438 455.5546875 c 128
 360.297851562 451.021484375 342.96484375 440.754882812 331.764648438 424.754882812 c 1
 330.96484375 423.955078125 l 1
 317.09765625 409.021484375 300.564453125 403.6875 281.364257812 407.955078125 c 0
 270.165039062 410.087890625 263.630859375 413.955078125 261.764648438 419.5546875 c 128
 259.8984375 425.154296875 259.764648438 431.154296875 261.364257812 437.5546875 c 128
 262.96484375 443.955078125 268.698242188 451.955078125 278.564453125 461.5546875 c 128
 288.431640625 471.154296875 301.630859375 479.420898438 318.165039062 486.354492188 c 128
 334.698242188 493.288085938 351.498046875 497.288085938 368.564453125 498.354492188 c 0
 403.764648438 500.48828125 432.831054688 492.48828125 455.764648438 474.354492188 c 0
 469.630859375 462.62109375 476.564453125 443.6875 476.564453125 417.5546875 c 0
 476.564453125 401.5546875 473.364257812 389.288085938 466.96484375 380.754882812 c 128
 460.564453125 372.221679688 454.165039062 366.62109375 447.764648438 363.955078125 c 1
 407.231445312 367.154296875 376.03125 366.62109375 354.165039062 362.354492188 c 0
 297.09765625 349.5546875 256.831054688 323.420898438 233.364257812 283.955078125 c 0
 218.431640625 257.288085938 212.03125 229.821289062 214.165039062 201.5546875 c 128
 216.297851562 173.288085938 226.297851562 151.021484375 244.165039062 134.754882812 c 128
 262.03125 118.48828125 286.165039062 111.420898438 316.564453125 113.5546875 c 0
 346.431640625 115.154296875 371.231445312 122.887695312 390.96484375 136.754882812 c 0
 400.564453125 143.6875 406.698242188 150.887695312 409.364257812 158.354492188 c 0
 417.8984375 179.6875 422.96484375 193.6875 424.564453125 200.354492188 c 128
 426.165039062 207.021484375 428.297851562 211.955078125 430.96484375 215.154296875 c 128
 433.630859375 218.354492188 438.431640625 219.955078125 445.364257812 219.955078125 c 0
 457.09765625 220.48828125 461.364257812 214.62109375 458.165039062 202.354492188 c 0
 451.764648438 170.887695312 450.96484375 151.821289062 455.764648438 145.154296875 c 128
 460.564453125 138.48828125 465.8984375 133.5546875 471.764648438 130.354492188 c 0
 482.431640625 123.955078125 497.09765625 119.6875 515.764648438 117.5546875 c 0
 567.498046875 111.6875 610.165039062 126.887695312 643.764648438 163.154296875 c 0
 664.564453125 185.5546875 678.165039062 211.5546875 684.564453125 241.154296875 c 128
 690.96484375 270.754882812 688.297851562 296.221679688 676.564453125 317.5546875 c 0
 653.09765625 359.154296875 597.8984375 374.62109375 510.96484375 363.955078125 c 1
 501.364257812 366.62109375 497.8984375 373.5546875 500.564453125 384.754882812 c 0
 511.764648438 432.754882812 536.564453125 466.354492188 574.96484375 485.5546875 c 0
 598.96484375 497.288085938 623.498046875 502.354492188 648.564453125 500.754882812 c 128
 673.630859375 499.154296875 693.630859375 491.6875 708.564453125 478.354492188 c 0
 716.03125 471.955078125 720.564453125 465.021484375 722.165039062 457.5546875 c 0
 731.231445312 421.288085938 727.231445312 398.887695312 710.165039062 390.354492188 c 1
 694.698242188 387.154296875 688.297851562 391.955078125 690.96484375 404.754882812 c 0
 699.498046875 442.087890625 680.297851562 461.821289062 633.364257812 463.955078125 c 0
 599.764648438 465.5546875 574.698242188 455.955078125 558.165039062 435.154296875 c 0
 550.698242188 426.087890625 544.564453125 415.6875 539.764648438 403.955078125 c 0
 539.231445312 400.754882812 540.297851562 399.154296875 542.96484375 399.154296875 c 1
 603.231445312 404.48828125 649.764648438 394.087890625 682.564453125 367.955078125 c 128
 715.364257812 341.821289062 728.831054688 303.6875 722.96484375 253.5546875 c 128
 717.09765625 203.420898438 697.8984375 158.887695312 665.364257812 119.955078125 c 128
 632.831054688 81.021484375 591.09765625 58.48828125 540.165039062 52.3544921875 c 128
 489.231445312 46.2216796875 454.431640625 57.5546875 435.764648438 86.3544921875 c 0
 431.498046875 93.2880859375 427.764648438 100.754882812 424.564453125 108.754882812 c 1
 421.8984375 111.420898438 418.96484375 111.154296875 415.764648438 107.955078125 c 0
 399.231445312 90.8876953125 384.03125 78.087890625 370.165039062 69.5546875 c 0
 339.231445312 52.48828125 305.8984375 46.8876953125 270.165039062 52.7548828125 c 0
 216.297851562 60.7548828125 184.297851562 91.955078125 174.165039062 146.354492188 c 0
 167.231445312 181.5546875 170.96484375 218.354492188 185.364257812 256.754882812 c 0
 207.231445312 315.420898438 249.8984375 358.087890625 313.364257812 384.754882812 c 0
 338.431640625 394.887695312 367.231445312 399.6875 399.764648438 399.154296875 c 0
EndSplineSet
Colour: ffff00
EndChar

StartChar: si_vocalicRr
Encoding: 243 3470 242
Width: 1278
VWidth: 874
Flags: HW
LayerCount: 2
Back
Fore
SplineSet
1219.46484375 117.5546875 m 1
 1238.66503906 162.354492188 l 2
 1241.33105469 168.754882812 1243.99804688 177.821289062 1246.66503906 189.5546875 c 2
 1250.66503906 207.154296875 l 1
 1247.99804688 219.955078125 1235.19824219 229.021484375 1212.26464844 234.354492188 c 128
 1189.33105469 239.6875 1165.86425781 239.154296875 1141.86425781 232.754882812 c 0
 1129.06445312 229.5546875 1116.79785156 221.021484375 1105.06445312 207.154296875 c 0
 1082.13085938 181.5546875 1074.3984375 156.221679688 1081.86425781 131.154296875 c 0
 1086.13085938 117.288085938 1095.19824219 109.821289062 1109.06445312 108.754882812 c 0
 1118.13085938 108.221679688 1127.59765625 111.420898438 1137.46484375 118.354492188 c 128
 1147.33105469 125.288085938 1154.93164062 130.62109375 1160.26464844 134.354492188 c 128
 1165.59765625 138.087890625 1171.19824219 140.48828125 1177.06445312 141.5546875 c 0
 1196.26464844 145.288085938 1210.3984375 137.288085938 1219.46484375 117.5546875 c 1
1047.46484375 179.154296875 m 0
 1071.99804688 234.62109375 1113.59765625 265.021484375 1172.26464844 270.354492188 c 0
 1205.33105469 273.5546875 1235.99804688 266.087890625 1264.26464844 247.955078125 c 1
 1269.06445312 264.48828125 1271.99804688 279.955078125 1273.06445312 294.354492188 c 0
 1279.46484375 365.821289062 1261.33105469 406.087890625 1218.66503906 415.154296875 c 0
 1199.99804688 419.420898438 1178.3984375 415.154296875 1153.86425781 402.354492188 c 0
 1139.99804688 395.420898438 1130.93164062 386.354492188 1126.66503906 375.154296875 c 1
 1119.73144531 365.5546875 1112.26464844 361.821289062 1104.26464844 363.955078125 c 128
 1096.26464844 366.087890625 1093.33105469 372.48828125 1095.46484375 383.154296875 c 1
 1099.73144531 392.754882812 1106.66503906 401.821289062 1116.26464844 410.354492188 c 0
 1152.53125 442.354492188 1190.66503906 455.6875 1230.66503906 450.354492188 c 0
 1261.06445312 446.087890625 1282.93164062 432.754882812 1296.26464844 410.354492188 c 0
 1325.06445312 363.420898438 1326.93164062 298.354492188 1301.86425781 215.154296875 c 0
 1292.79785156 186.354492188 1282.66503906 159.6875 1271.46484375 135.154296875 c 0
 1248.53125 86.087890625 1229.86425781 58.8876953125 1215.46484375 53.5546875 c 0
 1203.19824219 49.2880859375 1196.53125 51.955078125 1195.46484375 61.5546875 c 0
 1192.26464844 79.6875 1185.06445312 89.5546875 1173.86425781 91.154296875 c 1
 1166.3984375 87.4208984375 1157.46484375 81.5546875 1147.06445312 73.5546875 c 128
 1136.66503906 65.5546875 1124.26464844 58.8876953125 1109.86425781 53.5546875 c 128
 1095.46484375 48.2216796875 1079.73144531 51.4208984375 1062.66503906 63.154296875 c 128
 1045.59765625 74.8876953125 1036.26464844 91.2880859375 1034.66503906 112.354492188 c 128
 1033.06445312 133.420898438 1037.33105469 155.6875 1047.46484375 179.154296875 c 0
944.264648438 117.5546875 m 1
 963.46484375 162.354492188 l 2
 966.130859375 168.754882812 968.797851562 177.821289062 971.46484375 189.5546875 c 2
 975.46484375 207.154296875 l 1
 972.797851562 219.955078125 959.998046875 229.021484375 937.064453125 234.354492188 c 128
 914.130859375 239.6875 890.665039062 239.154296875 866.665039062 232.754882812 c 0
 853.864257812 229.5546875 841.59765625 221.021484375 829.864257812 207.154296875 c 0
 806.931640625 181.5546875 799.198242188 156.221679688 806.665039062 131.154296875 c 0
 810.931640625 117.288085938 819.998046875 109.821289062 833.864257812 108.754882812 c 0
 842.931640625 108.221679688 852.3984375 111.420898438 862.264648438 118.354492188 c 128
 872.130859375 125.288085938 879.731445312 130.62109375 885.064453125 134.354492188 c 128
 890.3984375 138.087890625 895.998046875 140.48828125 901.864257812 141.5546875 c 0
 921.064453125 145.288085938 935.198242188 137.288085938 944.264648438 117.5546875 c 1
772.264648438 179.154296875 m 0
 796.797851562 234.62109375 838.3984375 265.021484375 897.064453125 270.354492188 c 0
 930.130859375 273.5546875 960.797851562 266.087890625 989.064453125 247.955078125 c 1
 993.864257812 264.48828125 996.797851562 279.955078125 997.864257812 294.354492188 c 0
 1004.26464844 365.821289062 986.130859375 406.087890625 943.46484375 415.154296875 c 0
 924.797851562 419.420898438 903.198242188 415.154296875 878.665039062 402.354492188 c 0
 864.797851562 395.420898438 855.731445312 386.354492188 851.46484375 375.154296875 c 1
 844.53125 365.5546875 837.064453125 361.821289062 829.064453125 363.955078125 c 128
 821.064453125 366.087890625 818.130859375 372.48828125 820.264648438 383.154296875 c 1
 824.53125 392.754882812 831.46484375 401.821289062 841.064453125 410.354492188 c 0
 877.331054688 442.354492188 915.46484375 455.6875 955.46484375 450.354492188 c 0
 985.864257812 446.087890625 1007.73144531 432.754882812 1021.06445312 410.354492188 c 0
 1049.86425781 363.420898438 1051.73144531 298.354492188 1026.66503906 215.154296875 c 0
 1017.59765625 186.354492188 1007.46484375 159.6875 996.264648438 135.154296875 c 0
 973.331054688 86.087890625 954.665039062 58.8876953125 940.264648438 53.5546875 c 0
 927.998046875 49.2880859375 921.331054688 51.955078125 920.264648438 61.5546875 c 0
 917.064453125 79.6875 909.864257812 89.5546875 898.665039062 91.154296875 c 1
 891.198242188 87.4208984375 882.264648438 81.5546875 871.864257812 73.5546875 c 128
 861.46484375 65.5546875 849.064453125 58.8876953125 834.665039062 53.5546875 c 128
 820.264648438 48.2216796875 804.53125 51.4208984375 787.46484375 63.154296875 c 128
 770.3984375 74.8876953125 761.064453125 91.2880859375 759.46484375 112.354492188 c 128
 757.864257812 133.420898438 762.130859375 155.6875 772.264648438 179.154296875 c 0
432.264648438 399.154296875 m 0
 446.665039062 399.154296875 446.665039062 399.154296875 458.264648438 399.154296875 c 128
 465.998046875 399.154296875 470.130859375 401.288085938 470.665039062 405.5546875 c 0
 474.3984375 419.420898438 473.59765625 430.087890625 468.264648438 437.5546875 c 0
 457.59765625 454.087890625 440.3984375 460.087890625 416.665039062 455.5546875 c 128
 392.931640625 451.021484375 375.46484375 440.754882812 364.264648438 424.754882812 c 1
 363.46484375 423.955078125 l 1
 349.59765625 409.021484375 333.064453125 403.6875 313.864257812 407.955078125 c 0
 302.665039062 410.087890625 296.264648438 413.955078125 294.665039062 419.5546875 c 128
 293.064453125 425.154296875 292.931640625 431.154296875 294.264648438 437.5546875 c 128
 295.59765625 443.955078125 301.331054688 451.955078125 311.46484375 461.5546875 c 128
 321.59765625 471.154296875 334.931640625 479.420898438 351.46484375 486.354492188 c 128
 367.998046875 493.288085938 384.53125 497.288085938 401.064453125 498.354492188 c 0
 436.264648438 500.48828125 465.59765625 492.48828125 489.064453125 474.354492188 c 0
 503.46484375 462.62109375 510.3984375 443.6875 509.864257812 417.5546875 c 0
 509.864257812 401.5546875 506.53125 389.288085938 499.864257812 380.754882812 c 128
 493.198242188 372.221679688 486.665039062 366.62109375 480.264648438 363.955078125 c 1
 439.731445312 367.154296875 408.53125 366.62109375 386.665039062 362.354492188 c 0
 310.931640625 345.821289062 265.59765625 306.087890625 250.665039062 243.154296875 c 0
 243.731445312 214.354492188 245.331054688 187.955078125 255.46484375 163.955078125 c 0
 271.46484375 127.154296875 303.46484375 110.354492188 351.46484375 113.5546875 c 0
 380.797851562 115.154296875 405.064453125 122.887695312 424.264648438 136.754882812 c 0
 433.864257812 143.154296875 439.998046875 150.354492188 442.665039062 158.354492188 c 0
 451.198242188 179.6875 456.264648438 193.6875 457.864257812 200.354492188 c 128
 459.46484375 207.021484375 461.46484375 211.955078125 463.864257812 215.154296875 c 128
 466.264648438 218.354492188 471.198242188 219.955078125 478.665039062 219.955078125 c 0
 490.3984375 220.48828125 494.665039062 214.62109375 491.46484375 202.354492188 c 0
 485.064453125 170.887695312 484.130859375 151.821289062 488.665039062 145.154296875 c 128
 493.198242188 138.48828125 498.3984375 133.5546875 504.264648438 130.354492188 c 0
 514.931640625 123.955078125 529.59765625 119.6875 548.264648438 117.5546875 c 0
 599.46484375 111.6875 642.130859375 126.887695312 676.264648438 163.154296875 c 0
 697.064453125 185.5546875 710.665039062 211.5546875 717.064453125 241.154296875 c 128
 723.46484375 270.754882812 721.064453125 296.221679688 709.864257812 317.5546875 c 0
 686.3984375 359.154296875 630.931640625 374.62109375 543.46484375 363.955078125 c 1
 533.864257812 366.62109375 530.3984375 373.5546875 533.064453125 384.754882812 c 0
 544.264648438 432.754882812 569.331054688 466.354492188 608.264648438 485.5546875 c 0
 632.264648438 497.288085938 656.797851562 502.354492188 681.864257812 500.754882812 c 128
 706.931640625 499.154296875 726.931640625 491.6875 741.864257812 478.354492188 c 0
 749.331054688 471.955078125 753.864257812 465.021484375 755.46484375 457.5546875 c 0
 764.53125 421.288085938 760.264648438 398.887695312 742.665039062 390.354492188 c 1
 727.198242188 387.154296875 720.797851562 391.955078125 723.46484375 404.754882812 c 0
 730.3984375 434.087890625 719.46484375 452.754882812 690.665039062 460.754882812 c 0
 666.130859375 467.6875 643.064453125 466.48828125 621.46484375 457.154296875 c 0
 599.864257812 447.288085938 583.46484375 429.5546875 572.264648438 403.955078125 c 0
 571.731445312 400.754882812 572.797851562 399.154296875 575.46484375 399.154296875 c 1
 635.731445312 404.48828125 682.264648438 394.087890625 715.064453125 367.955078125 c 128
 747.864257812 341.821289062 761.46484375 303.6875 755.864257812 253.5546875 c 128
 750.264648438 203.420898438 731.064453125 158.887695312 698.264648438 119.955078125 c 128
 665.46484375 81.021484375 623.59765625 58.48828125 572.665039062 52.3544921875 c 128
 521.731445312 46.2216796875 487.198242188 57.5546875 469.064453125 86.3544921875 c 0
 464.797851562 93.2880859375 460.797851562 100.754882812 457.064453125 108.754882812 c 1
 454.3984375 111.420898438 451.731445312 111.154296875 449.064453125 107.955078125 c 0
 432.53125 90.8876953125 417.064453125 78.087890625 402.665039062 69.5546875 c 0
 371.731445312 52.48828125 338.665039062 46.8876953125 303.46484375 52.7548828125 c 0
 249.59765625 60.7548828125 217.331054688 91.955078125 206.665039062 146.354492188 c 0
 199.731445312 181.5546875 203.46484375 218.354492188 217.864257812 256.754882812 c 0
 239.731445312 315.420898438 282.665039062 358.087890625 346.665039062 384.754882812 c 0
 371.198242188 394.887695312 399.731445312 399.6875 432.264648438 399.154296875 c 0
EndSplineSet
Colour: ffff00
EndChar

StartChar: si_vocalicL
Encoding: 244 3471 243
Width: 833
VWidth: 874
Flags: HW
LayerCount: 2
Back
Fore
SplineSet
577.061523438 363.967773438 m 1
 561.594726562 365.03515625 558.127929688 378.901367188 566.661132812 405.568359375 c 0
 577.328125 438.634765625 594.927734375 462.368164062 619.461914062 476.768554688 c 0
 643.995117188 490.634765625 671.461914062 498.234375 701.861328125 499.568359375 c 128
 732.26171875 500.901367188 755.728515625 493.03515625 772.26171875 475.967773438 c 1
 799.995117188 475.967773438 823.061523438 465.834960938 841.461914062 445.568359375 c 128
 859.861328125 425.301757812 869.594726562 400.768554688 870.661132812 371.967773438 c 0
 870.661132812 365.03515625 871.061523438 358.234375 871.861328125 351.568359375 c 128
 872.661132812 344.901367188 872.528320312 334.634765625 871.461914062 320.768554688 c 128
 870.39453125 306.901367188 866.127929688 288.368164062 858.661132812 265.16796875 c 128
 851.194335938 241.967773438 841.328125 218.901367188 829.061523438 195.967773438 c 0
 802.927734375 146.368164062 771.194335938 106.368164062 733.861328125 75.9677734375 c 1
 723.194335938 70.1015625 715.328125 69.9677734375 710.26171875 75.568359375 c 128
 705.194335938 81.16796875 706.39453125 88.7685546875 713.861328125 98.3681640625 c 1
 748.528320312 123.967773438 777.328125 159.701171875 800.26171875 205.568359375 c 0
 838.127929688 280.234375 847.728515625 341.834960938 829.061523438 390.368164062 c 0
 821.061523438 411.16796875 808.26171875 425.834960938 790.661132812 434.368164062 c 1
 787.995117188 419.967773438 776.661132812 410.768554688 756.661132812 406.768554688 c 128
 736.661132812 402.768554688 723.194335938 408.234375 716.26171875 423.16796875 c 1
 715.461914062 423.16796875 l 1
 711.194335938 439.701171875 698.39453125 449.834960938 677.061523438 453.568359375 c 0
 655.728515625 456.768554688 635.995117188 449.568359375 617.861328125 431.967773438 c 0
 608.794921875 423.434570312 602.927734375 412.234375 600.26171875 398.368164062 c 1
 601.061523438 398.368164062 l 2
 610.661132812 398.368164062 620.528320312 398.500976562 630.661132812 398.768554688 c 128
 640.794921875 399.03515625 650.661132812 398.634765625 660.26171875 397.568359375 c 0
 701.861328125 395.434570312 732.127929688 381.301757812 751.061523438 355.16796875 c 128
 769.995117188 329.03515625 777.728515625 298.1015625 774.26171875 262.368164062 c 128
 770.794921875 226.634765625 757.061523438 192.234375 733.061523438 159.16796875 c 0
 680.794921875 87.701171875 593.861328125 51.9677734375 472.26171875 51.9677734375 c 0
 380.528320312 51.9677734375 317.594726562 73.568359375 283.461914062 116.768554688 c 0
 263.728515625 141.301757812 254.927734375 172.234375 257.061523438 209.568359375 c 0
 260.26171875 265.568359375 285.061523438 313.568359375 331.461914062 353.568359375 c 0
 367.728515625 384.500976562 415.194335938 399.434570312 473.861328125 398.368164062 c 0
 489.061523438 398.368164062 489.061523438 398.368164062 504.26171875 398.368164062 c 2
 504.26171875 398.368164062 l 1
 507.995117188 412.234375 507.461914062 423.434570312 502.661132812 431.967773438 c 0
 492.528320312 449.568359375 475.861328125 456.768554688 452.661132812 453.568359375 c 128
 429.461914062 450.368164062 411.995117188 440.234375 400.26171875 423.16796875 c 1
 400.26171875 423.16796875 l 1
 386.39453125 408.234375 369.861328125 402.901367188 350.661132812 407.16796875 c 0
 338.39453125 409.834960938 331.594726562 414.234375 330.26171875 420.368164062 c 128
 328.927734375 426.500976562 328.794921875 431.701171875 329.861328125 435.967773438 c 1
 296.26171875 423.701171875 267.461914062 396.901367188 243.461914062 355.568359375 c 128
 219.461914062 314.234375 209.861328125 264.234375 214.661132812 205.568359375 c 0
 218.39453125 160.768554688 230.927734375 125.03515625 252.26171875 98.3681640625 c 1
 254.927734375 88.7685546875 252.39453125 81.16796875 244.661132812 75.568359375 c 128
 236.927734375 69.9677734375 229.328125 70.1015625 221.861328125 75.9677734375 c 1
 198.39453125 106.368164062 184.26171875 148.901367188 179.461914062 203.568359375 c 128
 174.661132812 258.234375 183.995117188 307.434570312 207.461914062 351.16796875 c 0
 211.194335938 357.568359375 215.594726562 366.234375 220.661132812 377.16796875 c 128
 225.728515625 388.1015625 233.861328125 399.967773438 245.061523438 412.768554688 c 0
 256.26171875 425.03515625 268.528320312 435.967773438 281.861328125 445.568359375 c 0
 311.194335938 465.834960938 339.995117188 475.967773438 368.26171875 475.967773438 c 1
 392.26171875 492.500976562 419.461914062 500.234375 449.861328125 499.16796875 c 0
 480.26171875 498.634765625 505.328125 490.368164062 525.061523438 474.368164062 c 0
 540.528320312 461.568359375 546.26171875 440.234375 542.26171875 410.368164062 c 128
 538.26171875 380.500976562 528.26171875 365.03515625 512.26171875 363.967773438 c 1
 501.061523438 363.967773438 489.594726562 364.368164062 477.861328125 365.16796875 c 128
 466.127929688 365.967773438 450.528320312 365.701171875 431.061523438 364.368164062 c 128
 411.594726562 363.03515625 393.861328125 357.568359375 377.861328125 347.967773438 c 0
 327.728515625 318.1015625 299.461914062 279.16796875 293.061523438 231.16796875 c 0
 283.995117188 168.234375 322.127929688 130.634765625 407.461914062 118.368164062 c 0
 428.26171875 115.701171875 454.661132812 114.368164062 486.661132812 114.368164062 c 0
 626.927734375 114.368164062 709.061523438 152.234375 733.061523438 227.967773438 c 0
 749.061523438 278.1015625 740.794921875 317.03515625 708.26171875 344.768554688 c 0
 687.995117188 361.834960938 655.995117188 368.768554688 612.26171875 365.568359375 c 0
 594.661132812 364.768554688 594.661132812 364.768554688 577.061523438 363.967773438 c 1
EndSplineSet
Colour: ffff00
EndChar

StartChar: si_vocalicLL
Encoding: 245 3472 244
Width: 1168
VWidth: 874
Flags: HW
LayerCount: 2
Back
Fore
SplineSet
613.756835938 363.799804688 m 1
 598.290039062 364.8671875 594.823242188 378.733398438 603.356445312 405.400390625 c 0
 614.0234375 438.466796875 631.624023438 462.200195312 656.157226562 476.600585938 c 0
 680.690429688 490.466796875 708.157226562 498.06640625 738.556640625 499.400390625 c 128
 768.95703125 500.733398438 792.423828125 492.8671875 808.95703125 475.799804688 c 1
 836.690429688 475.799804688 859.756835938 465.666992188 878.157226562 445.400390625 c 128
 896.556640625 425.133789062 906.290039062 400.600585938 907.356445312 371.799804688 c 0
 907.356445312 364.8671875 907.756835938 358.06640625 908.556640625 351.400390625 c 128
 909.356445312 344.733398438 909.223632812 334.466796875 908.157226562 320.600585938 c 128
 907.08984375 306.733398438 902.823242188 288.200195312 895.356445312 265 c 128
 887.890625 241.799804688 878.0234375 218.733398438 865.756835938 195.799804688 c 0
 839.624023438 146.200195312 807.890625 106.200195312 770.556640625 75.7998046875 c 1
 759.890625 69.93359375 752.0234375 69.7998046875 746.95703125 75.400390625 c 128
 741.890625 81 743.08984375 88.6005859375 750.556640625 98.2001953125 c 1
 785.223632812 123.799804688 814.0234375 159.533203125 836.95703125 205.400390625 c 0
 874.823242188 280.06640625 884.423828125 341.666992188 865.756835938 390.200195312 c 0
 857.756835938 411 844.95703125 425.666992188 827.356445312 434.200195312 c 1
 824.690429688 419.799804688 813.356445312 410.600585938 793.356445312 406.600585938 c 128
 773.356445312 402.600585938 759.890625 408.06640625 752.95703125 423 c 1
 752.157226562 423 l 1
 747.890625 439.533203125 735.08984375 449.666992188 713.756835938 453.400390625 c 0
 692.423828125 456.600585938 672.690429688 449.400390625 654.556640625 431.799804688 c 0
 645.490234375 423.266601562 639.624023438 412.06640625 636.95703125 398.200195312 c 1
 637.756835938 398.200195312 l 2
 647.356445312 398.200195312 657.223632812 398.333007812 667.356445312 398.600585938 c 128
 677.490234375 398.8671875 687.356445312 398.466796875 696.95703125 397.400390625 c 0
 738.556640625 395.266601562 768.823242188 381.133789062 787.756835938 355 c 128
 806.690429688 328.8671875 814.423828125 297.93359375 810.95703125 262.200195312 c 128
 807.490234375 226.466796875 793.756835938 192.06640625 769.756835938 159 c 0
 717.490234375 87.533203125 630.556640625 51.7998046875 508.95703125 51.7998046875 c 0
 417.223632812 51.7998046875 354.290039062 73.400390625 320.157226562 116.600585938 c 0
 300.423828125 141.133789062 291.624023438 172.06640625 293.756835938 209.400390625 c 0
 296.95703125 265.400390625 321.756835938 313.400390625 368.157226562 353.400390625 c 0
 404.423828125 384.333007812 451.890625 399.266601562 510.556640625 398.200195312 c 0
 525.756835938 398.200195312 525.756835938 398.200195312 540.95703125 398.200195312 c 2
 540.95703125 398.200195312 l 1
 544.690429688 412.06640625 544.157226562 423.266601562 539.356445312 431.799804688 c 0
 529.223632812 449.400390625 512.556640625 456.600585938 489.356445312 453.400390625 c 128
 466.157226562 450.200195312 448.690429688 440.06640625 436.95703125 423 c 1
 436.95703125 423 l 1
 423.08984375 408.06640625 406.556640625 402.733398438 387.356445312 407 c 0
 375.08984375 409.666992188 368.290039062 414.06640625 366.95703125 420.200195312 c 128
 365.624023438 426.333007812 365.490234375 431.533203125 366.556640625 435.799804688 c 1
 332.95703125 423.533203125 304.157226562 396.733398438 280.157226562 355.400390625 c 128
 256.157226562 314.06640625 246.556640625 264.06640625 251.356445312 205.400390625 c 0
 255.08984375 160.600585938 267.624023438 124.8671875 288.95703125 98.2001953125 c 1
 291.624023438 88.6005859375 289.08984375 81 281.356445312 75.400390625 c 128
 273.624023438 69.7998046875 266.0234375 69.93359375 258.556640625 75.7998046875 c 1
 235.08984375 106.200195312 220.95703125 148.733398438 216.157226562 203.400390625 c 128
 211.356445312 258.06640625 220.690429688 307.266601562 244.157226562 351 c 0
 247.890625 357.400390625 252.290039062 366.06640625 257.356445312 377 c 128
 262.423828125 387.93359375 270.556640625 399.799804688 281.756835938 412.600585938 c 0
 292.95703125 424.8671875 305.223632812 435.799804688 318.556640625 445.400390625 c 0
 347.890625 465.666992188 376.690429688 475.799804688 404.95703125 475.799804688 c 1
 428.95703125 492.333007812 456.157226562 500.06640625 486.556640625 499 c 0
 516.95703125 498.466796875 542.0234375 490.200195312 561.756835938 474.200195312 c 0
 577.223632812 461.400390625 582.95703125 440.06640625 578.95703125 410.200195312 c 128
 574.95703125 380.333007812 564.95703125 364.8671875 548.95703125 363.799804688 c 1
 537.756835938 363.799804688 526.290039062 364.200195312 514.556640625 365 c 128
 502.823242188 365.799804688 487.223632812 365.533203125 467.756835938 364.200195312 c 128
 448.290039062 362.8671875 430.556640625 357.400390625 414.556640625 347.799804688 c 0
 364.423828125 317.93359375 336.157226562 279 329.756835938 231 c 0
 320.690429688 168.06640625 358.823242188 130.466796875 444.157226562 118.200195312 c 0
 464.95703125 115.533203125 491.356445312 114.200195312 523.356445312 114.200195312 c 0
 663.624023438 114.200195312 745.756835938 152.06640625 769.756835938 227.799804688 c 0
 785.756835938 277.93359375 777.490234375 316.8671875 744.95703125 344.600585938 c 0
 724.690429688 361.666992188 692.690429688 368.600585938 648.95703125 365.400390625 c 0
 631.356445312 364.600585938 631.356445312 364.600585938 613.756835938 363.799804688 c 1
1033.75683594 448.600585938 m 1
 1044.42382812 447.533203125 1049.35644531 442.733398438 1048.55664062 434.200195312 c 128
 1047.75683594 425.666992188 1042.0234375 419.533203125 1031.35644531 415.799804688 c 1
 1013.75683594 411.533203125 999.356445312 399.266601562 988.157226562 379 c 0
 982.823242188 369.93359375 979.08984375 360.466796875 976.95703125 350.600585938 c 128
 974.823242188 340.733398438 974.0234375 331.533203125 974.556640625 323 c 0
 977.223632812 297.400390625 991.624023438 286.200195312 1017.75683594 289.400390625 c 0
 1029.49023438 291 1038.55664062 294.466796875 1044.95703125 299.799804688 c 0
 1051.890625 304.600585938 1056.15722656 309.400390625 1057.75683594 314.200195312 c 0
 1062.0234375 324.8671875 1063.08984375 334.600585938 1060.95703125 343.400390625 c 128
 1058.82324219 352.200195312 1052.69042969 356.600585938 1042.55664062 356.600585938 c 1
 1032.95703125 358.733398438 1029.35644531 365.133789062 1031.75683594 375.799804688 c 128
 1034.15722656 386.466796875 1038.55664062 396.06640625 1044.95703125 404.600585938 c 0
 1050.82324219 413.133789062 1057.75683594 420.600585938 1065.75683594 427 c 0
 1082.82324219 439.799804688 1101.890625 447.533203125 1122.95703125 450.200195312 c 128
 1144.0234375 452.8671875 1160.69042969 449.400390625 1172.95703125 439.799804688 c 0
 1193.75683594 423.799804688 1203.62402344 394.200195312 1202.55664062 351 c 0
 1202.0234375 323.799804688 1198.0234375 295.266601562 1190.55664062 265.400390625 c 0
 1166.0234375 166.733398438 1119.62402344 99.2666015625 1051.35644531 63 c 0
 1023.08984375 48.06640625 992.423828125 46.466796875 959.356445312 58.2001953125 c 0
 939.08984375 64.6005859375 924.690429688 75.7998046875 916.157226562 91.7998046875 c 0
 911.356445312 99.2666015625 909.223632812 108.333007812 909.756835938 119 c 1
 912.423828125 129.666992188 918.290039062 136.200195312 927.356445312 138.600585938 c 128
 936.423828125 141 942.290039062 137.400390625 944.95703125 127.799804688 c 1
 944.423828125 111.799804688 953.08984375 100.466796875 970.95703125 93.7998046875 c 128
 988.823242188 87.1337890625 1006.82324219 85.93359375 1024.95703125 90.2001953125 c 1
 1064.42382812 103 1096.95703125 145.133789062 1122.55664062 216.600585938 c 0
 1139.08984375 262.466796875 1147.75683594 302.200195312 1148.55664062 335.799804688 c 128
 1149.35644531 369.400390625 1143.35644531 391.533203125 1130.55664062 402.200195312 c 0
 1124.15722656 408.06640625 1116.29003906 410.333007812 1106.95703125 409 c 128
 1097.62402344 407.666992188 1090.42382812 405.400390625 1085.35644531 402.200195312 c 128
 1080.29003906 399 1075.62402344 393.400390625 1071.35644531 385.400390625 c 1
 1085.75683594 378.466796875 1094.29003906 366.466796875 1096.95703125 349.400390625 c 0
 1098.55664062 341.400390625 1098.0234375 332.8671875 1095.35644531 323.799804688 c 0
 1092.69042969 315.266601562 1088.95703125 307 1084.15722656 299 c 0
 1074.55664062 284.06640625 1062.0234375 273 1046.55664062 265.799804688 c 128
 1031.08984375 258.600585938 1016.42382812 255 1002.55664062 255 c 0
 979.08984375 255 962.290039062 263 952.157226562 279 c 0
 936.690429688 301.400390625 935.890625 331.533203125 949.756835938 369.400390625 c 0
 959.890625 396.600585938 975.356445312 417.666992188 996.157226562 432.600585938 c 0
 1007.35644531 440.06640625 1019.890625 445.400390625 1033.75683594 448.600585938 c 1
EndSplineSet
Colour: ffff00
EndChar

StartChar: si_E
Encoding: 246 3473 245
Width: 654
VWidth: 894
Flags: HW
LayerCount: 2
Back
Fore
SplineSet
628.106445312 523.265625 m 1
 604.639648438 556.33203125 575.306640625 586.732421875 540.106445312 614.465820312 c 0
 538.506835938 615.532226562 537.172851562 616.33203125 536.106445312 616.866210938 c 128
 535.040039062 617.399414062 533.440429688 615.532226562 531.306640625 611.265625 c 0
 529.172851562 606.999023438 525.973632812 601.666015625 521.70703125 595.265625 c 0
 490.240234375 547.798828125 492.106445312 516.065429688 527.306640625 500.065429688 c 0
 558.7734375 486.19921875 590.7734375 492.599609375 623.306640625 519.265625 c 2
 628.106445312 523.265625 l 1
184.90625 384.065429688 m 1
 175.306640625 385.666015625 171.70703125 391.399414062 174.106445312 401.265625 c 128
 176.506835938 411.1328125 182.7734375 416.599609375 192.90625 417.666015625 c 1
 408.90625 419.265625 l 1
 412.639648438 420.33203125 415.040039062 422.465820312 416.106445312 425.666015625 c 0
 419.83984375 439.532226562 418.7734375 450.19921875 412.90625 457.666015625 c 0
 402.240234375 474.19921875 385.172851562 480.19921875 361.70703125 475.666015625 c 128
 338.240234375 471.1328125 320.90625 460.866210938 309.70703125 444.866210938 c 1
 308.90625 444.065429688 l 1
 295.040039062 429.1328125 278.506835938 423.798828125 259.306640625 428.065429688 c 0
 248.106445312 430.19921875 241.573242188 434.065429688 239.70703125 439.666015625 c 128
 237.83984375 445.265625 237.70703125 451.265625 239.306640625 457.666015625 c 128
 240.90625 464.065429688 246.639648438 472.065429688 256.506835938 481.666015625 c 128
 266.373046875 491.265625 279.573242188 499.532226562 296.106445312 506.465820312 c 128
 312.639648438 513.399414062 329.440429688 517.399414062 346.506835938 518.465820312 c 0
 381.70703125 520.599609375 410.7734375 512.599609375 433.70703125 494.465820312 c 0
 451.83984375 479.532226562 457.440429688 454.999023438 450.506835938 420.866210938 c 0
 448.373046875 410.732421875 444.373046875 400.599609375 438.506835938 390.465820312 c 1
 432.639648438 386.19921875 427.040039062 384.065429688 421.70703125 384.065429688 c 2
 340.106445312 384.065429688 l 1
 307.040039062 378.732421875 282.639648438 371.532226562 266.90625 362.465820312 c 128
 251.172851562 353.399414062 239.040039062 344.599609375 230.506835938 336.065429688 c 128
 221.973632812 327.532226562 214.506835938 317.932617188 208.106445312 307.265625 c 128
 201.70703125 296.599609375 197.573242188 287.1328125 195.70703125 278.866210938 c 128
 193.83984375 270.599609375 192.506835938 260.999023438 191.70703125 250.065429688 c 128
 190.90625 239.1328125 193.172851562 227.798828125 198.506835938 216.065429688 c 0
 203.83984375 204.33203125 211.83984375 193.932617188 222.506835938 184.866210938 c 0
 241.70703125 166.732421875 267.83984375 152.999023438 300.90625 143.666015625 c 128
 333.973632812 134.33203125 362.90625 130.465820312 387.70703125 132.065429688 c 128
 412.506835938 133.666015625 434.639648438 136.866210938 454.106445312 141.666015625 c 128
 473.573242188 146.465820312 492.639648438 153.1328125 511.306640625 161.666015625 c 0
 552.373046875 180.33203125 585.973632812 204.599609375 612.106445312 234.465820312 c 0
 657.440429688 286.732421875 674.506835938 350.732421875 663.306640625 426.465820312 c 0
 660.106445312 451.532226562 653.172851562 474.732421875 642.506835938 496.065429688 c 1
 595.040039062 460.866210938 552.639648438 450.732421875 515.306640625 465.666015625 c 0
 492.90625 474.732421875 477.573242188 488.999023438 469.306640625 508.465820312 c 128
 461.040039062 527.932617188 462.240234375 549.1328125 472.90625 572.065429688 c 0
 478.7734375 584.33203125 485.306640625 595.798828125 492.506835938 606.465820312 c 128
 499.70703125 617.1328125 503.83984375 623.798828125 504.90625 626.465820312 c 128
 505.973632812 629.1328125 506.639648438 630.866210938 506.90625 631.666015625 c 128
 507.172851562 632.465820312 507.440429688 632.999023438 507.70703125 633.265625 c 128
 507.973632812 633.532226562 507.973632812 633.932617188 507.70703125 634.465820312 c 128
 507.440429688 634.999023438 507.306640625 636.065429688 507.306640625 637.666015625 c 0
 504.106445312 641.399414062 499.973632812 644.33203125 494.90625 646.465820312 c 128
 489.83984375 648.599609375 485.70703125 651.532226562 482.506835938 655.265625 c 128
 479.306640625 658.999023438 478.7734375 663.532226562 480.90625 668.866210938 c 128
 483.040039062 674.19921875 486.240234375 677.932617188 490.506835938 680.065429688 c 0
 503.306640625 687.532226562 529.172851562 674.732421875 568.106445312 641.666015625 c 0
 588.90625 624.599609375 606.7734375 608.065429688 621.70703125 592.065429688 c 0
 684.106445312 525.932617188 710.506835938 450.732421875 700.90625 366.465820312 c 0
 693.973632812 304.599609375 670.506835938 247.532226562 630.506835938 195.265625 c 0
 584.106445312 133.399414062 522.240234375 94.4658203125 444.90625 78.4658203125 c 0
 380.90625 65.1328125 320.90625 68.599609375 264.90625 88.8662109375 c 0
 208.373046875 109.1328125 173.172851562 144.33203125 159.306640625 194.465820312 c 0
 149.172851562 232.866210938 154.240234375 270.999023438 174.506835938 308.866210938 c 0
 188.373046875 334.465820312 212.373046875 356.866210938 246.506835938 376.065429688 c 1
 248.106445312 378.19921875 248.639648438 380.065429688 248.106445312 381.666015625 c 128
 247.573242188 383.265625 246.240234375 384.065429688 244.106445312 384.065429688 c 2
 184.90625 384.065429688 l 1
EndSplineSet
Colour: ffff00
EndChar

